<svg xmlns="http://www.w3.org/2000/svg" viewBox="0 0 512.002 512.002"><path d="M497.075 322.374c-18.745-10.267-105.714-49.217-109.407-50.87a8.086 8.086 0 0 0-9.574 2.293c-.208.256-21.184 25.709-50.541 28.439-16.629 1.56-33.16-4.515-49.089-18.024-6.27-5.318-13.54-11.764-22.877-20.284a8.072 8.072 0 0 0-10.881 11.923c9.484 8.655 16.894 15.222 23.317 20.67 19.41 16.462 39.987 23.785 61.175 21.772 27.873-2.651 48.669-20.858 57.217-29.659 19.625 8.822 87.327 39.364 102.907 47.898 4.635 2.537 6.059 4.355 6.441 4.972-.695 1.191-3.444 3.257-5.78 4.305-190.565 82.754-287.365-6.822-333.883-49.871-27.189-25.159-64.462-39.908-94.717-48.345.376-8.881 1.017-17.579 1.942-25.914a8.07 8.07 0 0 0-7.131-8.911 8.06 8.06 0 0 0-8.911 7.131 394.71 394.71 0 0 0-1.884 23.628c-12.434-2.867-22.721-4.564-29.196-5.485.34-19.168 2.039-35.649 4.385-49.575.086-.51.176-.999.265-1.501.152-.872.302-1.752.458-2.603.068-.369.14-.722.209-1.088.181-.961.362-1.924.549-2.859.116-.583.237-1.142.355-1.714.144-.695.285-1.402.432-2.082.131-.607.266-1.19.398-1.785.139-.621.275-1.254.415-1.862.123-.529.247-1.035.371-1.555.155-.649.308-1.308.464-1.941.151-.611.305-1.198.457-1.795.132-.515.263-1.045.395-1.549.151-.575.303-1.123.456-1.683.137-.505.273-1.022.411-1.516.085-.305.171-.591.256-.891.498-1.755.999-3.453 1.5-5.064l.002-.005c3.816-12.253 7.644-20.386 9.926-24.683 1.116.076 2.247.182 3.392.313l.168.02c8.144.953 17.013 3.294 26.517 7-4.788 10.072-11.508 27.324-16.472 52.522a8.07 8.07 0 0 0 6.358 9.478c4.375.866 8.616-1.985 9.478-6.358 4.75-24.111 11.202-40.283 15.382-49.039 47.412 23.758 100.637 72.978 142.556 111.743l.322.298a8.072 8.072 0 0 0 10.958-11.852l-.322-.297C174.49 189.009 97.862 118.15 36.165 116.037a80.283 80.283 0 0 0-2.806-.051 8.071 8.071 0 0 0-6.651 3.498C25.62 121.074 0 159.327 0 245.15c0 .023.003.044.003.067 0 .072.008.144.011.216.008.231.024.461.052.687.011.086.024.172.037.258.037.236.083.467.139.696.011.043.014.086.026.129L37.82 389.995a8.07 8.07 0 0 0 7.805 6.018h39.469a8.069 8.069 0 0 0 8.07-8.07V275.759c18.604 7.862 37.127 18.286 51.976 32.026 23.516 21.761 62.874 58.183 121.471 76.596 24.498 7.698 50.3 11.543 77.317 11.542 47.312 0 98.331-11.79 152.501-35.314 2.509-1.095 15.05-7.131 15.557-18.448.335-7.528-4.681-14.184-14.911-19.787zM77.023 379.871H51.847L18.964 254.84c12.806 2.103 34.647 6.488 58.059 14.697v110.334z"/></svg>