<svg xmlns="http://www.w3.org/2000/svg" viewBox="0 0 512 512"><path d="M500.304 295.609a35.6 35.6 0 0 0-1.301-1.103c-.168-.135-.34-.263-.51-.396-.274-.213-.547-.427-.827-.632-.21-.154-.424-.3-.635-.448-.245-.172-.49-.343-.74-.508-.23-.152-.462-.298-.695-.444-.24-.151-.48-.3-.722-.445a36.806 36.806 0 0 0-2.168-1.189 33.91 33.91 0 0 0-.837-.406c-.209-.098-.418-.197-.629-.29a35.353 35.353 0 0 0-1.001-.426c-.162-.066-.323-.134-.485-.198a32.564 32.564 0 0 0-1.289-.474l-.219-.078a35.027 35.027 0 0 0-11.285-1.871 35 35 0 0 0-8.554 1.072l-.128.031c-.434.111-.864.232-1.293.36l-.416.121c-9.875-2.845-49.086-13.574-141.398-32.815-1.727-.599-9.291-3.343-19.983-8.8l4.713-9.565a8.063 8.063 0 0 0-3.668-10.797 8.062 8.062 0 0 0-10.797 3.668l-4.354 8.836a228.071 228.071 0 0 1-13.546-8.87l6.039-6.843a8.063 8.063 0 0 0-.712-11.381 8.063 8.063 0 0 0-11.381.712l-6.803 7.71a211.866 211.866 0 0 1-13.5-12.094l6.567-5.441a8.064 8.064 0 0 0-10.29-12.418l-7.385 6.12a193.817 193.817 0 0 1-9.886-12.313l8.387-4.528a8.063 8.063 0 0 0-7.662-14.19l-9.768 5.274c-8.105-13.253-15.034-28.323-19.936-45.404a8.043 8.043 0 0 0-.424-1.143c-.659-1.433-6.803-14-19.62-14-12.646 0-24.194 12.005-36.236 37.722-6.783 3.679-29.391 14.861-47.498 11.474-.201-.038-.411-.065-.609-.105-.449-.092-.89-.215-1.333-.327-.367-.092-.742-.175-1.1-.28-.373-.109-.738-.244-1.105-.368-.405-.137-.817-.264-1.211-.417-.354-.138-.697-.301-1.045-.453-.385-.168-.777-.327-1.149-.512-.393-.195-.773-.419-1.158-.635-.306-.172-.622-.33-.92-.514a24.507 24.507 0 0 1-1.967-1.344 203.814 203.814 0 0 0-3.62-2.678 166.696 166.696 0 0 0-5.982-4.139c-.061-.04-.121-.081-.183-.12-19.316-12.699-34.622-16.389-45.578-10.948-8.357 4.15-13.073 12.916-14.068 26.08-.018.232-.027.478-.042.714-.041.635-.085 1.269-.109 1.923a77.187 77.187 0 0 0-.054 2.848c0 .506-.004 1.039-.01 1.576-.002.212-.004.425-.008.644l-.015.89a305.61 305.61 0 0 1-.289 8.412v.032C13.785 224.153 2.077 322.088.287 336.893l-.03.25-.047.387-.049.413c-.008.058-.014.113-.02.166l-.041.332-.042.346-.004.066a7.145 7.145 0 0 0-.034.511c-.005.114-.016.228-.017.341l-.003.063v26.999c0 19.334 15.729 35.062 35.062 35.062h161.501c4.454 0 8.063-3.609 8.063-8.063s-3.609-8.063-8.063-8.063H35.062c-10.441 0-18.936-8.494-18.936-18.936v-18.936h240.497l.039.002.031-.002h42.963c.25 0 .503.004.76.015.017.001 1.011.04 2.837.076-11.87 9.697-19.793 22.527-23.328 37.78h-55.767c-4.454 0-8.063 3.609-8.063 8.063s3.609 8.063 8.063 8.063h74.864l.732.024c1.98.059 5.831.148 11.11.148 15.197 0 38.812-.703 65.012-4.055 59.975-7.67 102.782-25.443 127.231-52.826 12.877-14.426 11.62-36.634-2.803-49.51zm-51.274 4.628c-.139.134-.276.27-.418.404a34.842 34.842 0 0 1-1.343 1.211c-.186.161-.37.323-.561.484-.295.246-.599.49-.905.734-.183.145-.36.291-.546.437-.36.28-.734.556-1.111.833-.145.106-.285.215-.433.321-.531.383-1.077.762-1.64 1.14-.083.056-.172.111-.256.167a69.29 69.29 0 0 1-1.471.951c-.202.127-.413.252-.618.377-.395.242-.79.484-1.198.722-.243.143-.495.284-.742.426-.383.219-.768.439-1.162.656-.268.147-.541.294-.813.44a92.64 92.64 0 0 1-3.266 1.676c-.296.144-.592.288-.892.431-.421.201-.85.401-1.282.6a85.995 85.995 0 0 1-2.283 1.021c-.299.13-.596.26-.898.389-.497.212-1.004.42-1.513.628-.28.115-.555.23-.837.344-.603.243-1.219.482-1.837.72-.198.076-.389.154-.588.229-.829.315-1.67.627-2.524.934-.119.043-.242.084-.361.127-.731.261-1.47.52-2.22.776-.285.097-.577.192-.865.288-.594.199-1.189.397-1.793.592-.342.111-.689.218-1.034.328-.562.177-1.127.355-1.698.529a267.363 267.363 0 0 1-2.82.838c-.386.112-.774.221-1.163.332a201.889 201.889 0 0 1-2.925.804c-.589.157-1.184.313-1.78.468l-1.199.309c-.624.158-1.255.313-1.887.467a178.473 178.473 0 0 1-3.223.764l-1.044.241c-.846.19-1.702.377-2.563.562l-.609.133c-1.078.229-2.168.454-3.268.674-.202.041-.409.078-.611.119-.248.049-.501.097-.75.145-.645.126-1.288.253-1.941.375-.375.071-.756.139-1.134.207-.738.135-1.476.271-2.223.402l-1.332.23c-.697.119-1.396.239-2.1.355a470.252 470.252 0 0 1-3.485.556c-.495.076-.991.152-1.49.226-.339.051-.681.1-1.021.149-.041-.447-.109-.884-.157-1.328-.054-.479-.107-.959-.171-1.438-2.548-19.467-12.815-35.759-22.965-47.524 51.279 11.015 82.404 18.684 98.969 23.019zM181.166 126.128c1.779 0 3.848 2.578 4.757 4.207a200.107 200.107 0 0 0 21.029 47.875l-10.011 5.406a8.063 8.063 0 0 0-3.264 10.926 8.06 8.06 0 0 0 10.926 3.265l11.267-6.083a210.28 210.28 0 0 0 11.776 14.882l-9.915 8.216a8.063 8.063 0 0 0 5.149 14.272 8.02 8.02 0 0 0 5.14-1.855l10.647-8.821a226.19 226.19 0 0 0 15.284 13.886l-8.01 9.077a8.063 8.063 0 1 0 12.093 10.669l8.719-9.88a242.588 242.588 0 0 0 17.149 11.225l-5.527 11.217a8.063 8.063 0 0 0 7.227 11.629 8.062 8.062 0 0 0 7.239-4.501l5.199-10.55c10.544 5.349 18.341 8.283 21.283 9.32 3.867 2.848 20.497 15.788 30.487 34.579-.255-.013-.512-.02-.767-.034-.85-.046-1.694-.105-2.542-.16a250.037 250.037 0 0 1-3.161-.22c-.848-.067-1.691-.146-2.535-.221-1.036-.094-2.073-.187-3.103-.294-.845-.088-1.684-.187-2.523-.284a201.663 201.663 0 0 1-3.051-.367c-.84-.109-1.675-.228-2.51-.346a223.599 223.599 0 0 1-3.003-.44c-.833-.13-1.662-.269-2.491-.407-.988-.166-1.975-.333-2.957-.513-.827-.151-1.65-.311-2.472-.471-.973-.189-1.945-.382-2.911-.585-.819-.172-1.635-.352-2.45-.533a171.16 171.16 0 0 1-5.294-1.253c-.946-.238-1.89-.48-2.831-.73-.803-.214-1.603-.434-2.402-.658a194.546 194.546 0 0 1-5.161-1.52 183.608 183.608 0 0 1-5.1-1.657 206.486 206.486 0 0 1-5.031-1.79 190.875 190.875 0 0 1-7.599-3.012 181.79 181.79 0 0 1-2.268-.971c-.869-.38-1.732-.768-2.594-1.16-.747-.34-1.493-.682-2.236-1.031-.857-.403-1.709-.816-2.56-1.233-.738-.361-1.474-.722-2.207-1.093a193.36 193.36 0 0 1-2.52-1.303c-.728-.382-1.456-.764-2.179-1.156-.832-.45-1.658-.913-2.483-1.375-.717-.402-1.434-.804-2.146-1.216a196.94 196.94 0 0 1-2.452-1.45c-.705-.423-1.412-.843-2.112-1.275-.811-.5-1.615-1.013-2.419-1.525-.693-.442-1.388-.882-2.076-1.333-.799-.524-1.59-1.061-2.381-1.596-.685-.463-1.371-.924-2.049-1.397-.785-.546-1.563-1.107-2.342-1.666-.674-.484-1.349-.964-2.019-1.458-.775-.572-1.543-1.159-2.312-1.744-.66-.503-1.323-1.001-1.979-1.513-.768-.6-1.528-1.215-2.289-1.828-.645-.519-1.293-1.033-1.933-1.561-.759-.627-1.509-1.27-2.262-1.909-.631-.536-1.266-1.068-1.893-1.614-.75-.654-1.492-1.326-2.236-1.993-.617-.554-1.237-1.1-1.849-1.662-.746-.685-1.482-1.389-2.22-2.088-.599-.567-1.201-1.125-1.795-1.7-.743-.719-1.476-1.459-2.213-2.192-.578-.576-1.161-1.144-1.735-1.728-.745-.759-1.479-1.538-2.217-2.313-.554-.581-1.112-1.151-1.661-1.74-.768-.824-1.526-1.669-2.285-2.508-.505-.559-1.017-1.107-1.519-1.673-.85-.958-1.688-1.938-2.527-2.916-.402-.468-.81-.925-1.208-1.397a238.19 238.19 0 0 1-3.667-4.448 244.442 244.442 0 0 1-2.634-3.34c-.286-.37-.564-.739-.847-1.108a224.259 224.259 0 0 1-1.699-2.242c-.321-.43-.636-.859-.953-1.288-.51-.691-1.013-1.382-1.509-2.072a215.685 215.685 0 0 1-2.406-3.403c-.288-.415-.58-.831-.863-1.245-.541-.789-1.07-1.575-1.595-2.36-.205-.307-.418-.617-.621-.925a233.395 233.395 0 0 1-2.096-3.218c-.196-.305-.383-.607-.576-.913-.491-.774-.979-1.547-1.456-2.315-.256-.413-.504-.821-.756-1.232a247.214 247.214 0 0 1-3.075-5.158c-.241-.415-.483-.831-.719-1.244-.38-.663-.75-1.32-1.118-1.975-.205-.364-.414-.732-.615-1.094a248.16 248.16 0 0 1-1.436-2.623c-.075-.139-.153-.278-.227-.417a265.603 265.603 0 0 1-1.515-2.86c-.178-.342-.349-.677-.525-1.016a258.48 258.48 0 0 1-.956-1.863c-.191-.377-.377-.749-.564-1.122a266.238 266.238 0 0 1-2.193-4.486c-.16-.335-.321-.672-.477-1.003-.298-.632-.587-1.254-.871-1.87l-.328-.707c-.385-.84-.758-1.665-1.117-2.473-.088-.197-.169-.386-.255-.581-.272-.616-.54-1.226-.798-1.821l-.347-.81c-.216-.504-.429-1.004-.634-1.493l-.342-.818c-.198-.474-.389-.941-.576-1.398a169.417 169.417 0 0 1-.878-2.181l-.221-.557c-.515-1.308-.981-2.53-1.4-3.654l-.129-.349c-.161-.435-.317-.86-.463-1.265-.053-.144-.101-.283-.152-.423-.133-.372-.262-.733-.383-1.076l-.124-.352a143.768 143.768 0 0 1-.836-2.456c12.783-27.087 20.513-27.895 21.378-27.895zM17.158 331.7c1.964-16.458 6.17-52.468 9.656-87.602 5.43 2.765 12.653 7.307 19.805 14.411 17.561 17.445 27.155 42.039 28.57 73.191H17.158zm74.161 0c-.708-16.935-3.592-31.277-7.814-43.408 8.737.418 17.28-.717 25.507-3.414 1.275-.418 2.549-.842 3.825-1.266 25.777-8.57 48.04-15.97 81.432 18.973 9.952 10.417 21.86 20.619 33.713 29.116H91.319zm209.784.031a30.328 30.328 0 0 0-1.446-.031h-41.073c-16.662-8.392-37.129-24.008-52.654-40.257-40.445-42.325-71.116-32.129-98.177-23.136-1.255.418-2.508.834-3.763 1.245-8.876 2.911-18.288 3.461-27.983 1.652-14.778-27.299-36.384-39.389-47.565-44.058 1.05-11.357 1.97-22.253 2.649-31.949 15.308 10.21 42.975 24.864 75.842 25.075h.053a8.064 8.064 0 0 0 .05-16.127c-35.935-.23-65.742-20.956-74.877-28.033l.01-.291c.019-.541.037-1.073.052-1.595l.018-.628c.013-.46.024-.91.033-1.354l.016-.695c.009-.431.014-.848.02-1.263l.009-.616c.006-.6.01-1.185.01-1.748 0-6.335.872-11.164 2.501-14.151 1.034-1.834 2.263-2.759 3.438-3.227 2.982-1.06 8.459-.433 16.39 3.191.462.213.928.429 1.401.659.233.113.474.235.712.353.539.269 1.082.544 1.633.834l.237.124c4.483 2.382 9.377 5.482 14.519 9.214l.498.361c.806.589 1.617 1.19 2.434 1.81a41.18 41.18 0 0 0 2.454 1.714c.531.345 1.07.679 1.616 1 .131.076.26.159.391.234.644.369 1.299.718 1.963 1.053.196.099.393.19.59.286a44.44 44.44 0 0 0 1.518.699c.21.091.418.184.628.272a44.284 44.284 0 0 0 4.267 1.525c.156.046.312.09.469.135a48.1 48.1 0 0 0 1.9.506l.325.08c3.897.922 8.049 1.392 12.448 1.392 6.397 0 12.781-1.001 18.764-2.486l.102-.026c1.923-.479 3.8-1.006 5.626-1.571.41-.127.82-.252 1.225-.382.327-.105.648-.212.971-.318.547-.181 1.089-.363 1.625-.549l.633-.221a130.414 130.414 0 0 0 12.931-5.379l.067.182.182.491c.157.424.319.859.488 1.306l.226.596c.226.591.458 1.196.703 1.823l.108.274c.23.586.471 1.19.718 1.806.095.234.19.472.288.711.206.509.419 1.028.638 1.556l.284.685c.3.719.611 1.454.933 2.206l.284.656c.249.578.505 1.164.768 1.76l.381.86a260.465 260.465 0 0 0 2.316 5.058l.405.856c.302.635.611 1.278.925 1.928.146.302.291.603.441.907l.523 1.06c-8.386 5.153-17.117 8.952-26.036 11.323a8.062 8.062 0 0 0-5.721 9.864 8.061 8.061 0 0 0 9.864 5.721c10.132-2.692 20.007-6.957 29.468-12.666l.231.403c.195.341.389.681.587 1.022a285.72 285.72 0 0 0 1.862 3.177c.62 1.04 1.258 2.089 1.905 3.143.203.331.411.663.617.996.497.801 1.002 1.605 1.516 2.414.203.319.403.638.609.958a261.79 261.79 0 0 0 2.115 3.25c.135.205.277.413.414.619.606.912 1.223 1.826 1.851 2.743l.713 1.037c.62.898 1.25 1.798 1.89 2.7.169.238.333.474.503.712a243.125 243.125 0 0 0 2.436 3.351c.215.29.434.582.651.873.652.874 1.312 1.748 1.981 2.624.254.332.506.663.763.996.881 1.14 1.771 2.279 2.683 3.42 19.253 24.055 41.861 43.247 67.195 57.042a205.001 205.001 0 0 0 5.84 3.057c.64.323 1.291.624 1.934.939 1.329.653 2.658 1.305 4 1.929.781.362 1.573.703 2.359 1.056 1.219.547 2.436 1.098 3.667 1.622.852.362 1.712.703 2.568 1.055 1.18.484 2.36.971 3.55 1.433.896.348 1.8.677 2.702 1.013 1.165.434 2.33.87 3.504 1.284.931.328 1.87.64 2.807.956 1.16.39 2.32.781 3.489 1.151.958.304 1.921.594 2.886.885 1.163.352 2.328.7 3.499 1.032.979.278 1.965.544 2.951.808 1.17.314 2.343.622 3.521.917a228.468 228.468 0 0 0 6.557 1.534 217.818 217.818 0 0 0 6.646 1.343c1.029.192 2.059.38 3.093.558 1.208.209 2.422.403 3.638.593 1.04.162 2.079.323 3.124.471 1.226.174 2.459.332 3.692.488 1.047.131 2.093.264 3.146.382 1.249.14 2.506.262 3.763.384 1.049.101 2.099.205 3.153.294 1.278.106 2.565.191 3.851.278 1.045.07 2.087.147 3.137.204 1.319.072 2.647.12 3.974.172 1.03.04 2.058.089 3.092.117.203.005.404.018.607.023a56.498 56.498 0 0 1 1.264 8.014c-.439.045-.871.095-1.313.139l-1.562.154a434.16 434.16 0 0 1-4.965.446c-.642.054-1.277.104-1.912.155-1.523.121-3.054.238-4.594.345a475.676 475.676 0 0 1-32.32 1.14c-5.98-.004-9.544-.137-9.556-.137zm189.975 2.644c-21.788 24.402-61.236 40.408-117.248 47.57-25.357 3.245-48.237 3.925-62.965 3.925-5.963 0-9.977-.116-11.427-.166a8.592 8.592 0 0 0-.278-.005h-2.581c9.818-32.593 43.66-38.363 46.911-38.842.343-.024.679-.053 1.022-.077l.259-.018.789-.056 1.747-.129.447-.035c.702-.054 1.401-.108 2.112-.166.37-.03.735-.063 1.103-.094l.071-.006 1.008-.086c.536-.046 1.074-.094 1.615-.142l1.423-.132c.512-.047 1.021-.095 1.536-.145.252-.025.501-.051.752-.075l1.492-.149 1.283-.133c.804-.085 1.61-.172 2.421-.262l.672-.075c.163-.018.325-.038.488-.057a341.96 341.96 0 0 0 3.062-.361c.969-.118 1.939-.239 2.916-.366l.072-.009a363.689 363.689 0 0 0 15.537-2.352c28.854-5.029 61.274-14.598 77.509-32.778.462-.518.953-1.003 1.464-1.462.069-.062.143-.115.213-.175.057-.049.117-.094.174-.142.409-.347.824-.687 1.26-.998.06-.043.123-.081.183-.123.045-.031.092-.058.137-.089a19.018 19.018 0 0 1 1.643-1.007l.013-.006a19.684 19.684 0 0 1 1.895-.895l.001-.001c.326-.133.652-.266.984-.38.302-.103.61-.191.916-.278.287-.083.574-.165.864-.233.353-.083.707-.152 1.063-.215.253-.045.505-.087.759-.122a18.56 18.56 0 0 1 1.866-.158c.419-.015.839-.024 1.258-.012.139.004.277.012.416.019a19.972 19.972 0 0 1 1.819.18 19.042 19.042 0 0 1 1.803.358c.387.097.772.21 1.154.331.202.064.405.129.605.2.35.125.696.266 1.04.412.217.092.434.182.648.282.327.154.647.326.966.499.213.116.429.225.638.348.335.199.661.42.987.642.176.12.359.231.532.357.49.359.97.742 1.433 1.155 7.793 6.951 8.472 18.946 1.518 26.734z"/></svg>