<svg xmlns="http://www.w3.org/2000/svg" viewBox="0 0 512 512"><path d="M499.775 308.316c-21.297-29.923-64.628-33.495-93.301-35.856-2.311-.191-4.532-.374-6.646-.563-31.039-2.775-62.042-10.77-67.292-12.167-2.18-1.142-9.326-4.966-19.221-11.087l1.248-1.633a8.088 8.088 0 0 0-12.851-9.823l-2.021 2.644a392.515 392.515 0 0 1-13.697-9.684l1.351-1.5a8.088 8.088 0 0 0-12.016-10.828l-2.158 2.395a318.556 318.556 0 0 1-11.069-9.414l2.09-1.774a8.087 8.087 0 0 0 .932-11.399 8.086 8.086 0 0 0-11.399-.932l-3.448 2.928a232.652 232.652 0 0 1-11.397-12.26l3.49-2.748a8.087 8.087 0 0 0 1.351-11.357 8.086 8.086 0 0 0-11.357-1.351l-3.54 2.786c-9.363-12.918-16.779-26.909-20.678-41.69l-.001-.003a95.322 95.322 0 0 1-.988-4.065c-1.873-8.62-7.025-32.257-25.177-39.007-.078-.029-.155-.054-.232-.082a26.623 26.623 0 0 0-3.234-.971c-.067-.015-.135-.027-.202-.042a29.14 29.14 0 0 0-2.063-.389l-.033-.005c-5.046-.77-10.295-.243-15.709 1.184-.038.01-.074.021-.112.03a66.555 66.555 0 0 0-5.36 1.68c-.164.058-.329.119-.493.178-.851.312-1.705.635-2.563.98l-.257.107c-.762.31-1.528.633-2.295.967l-.734.32c-.801.356-1.606.72-2.412 1.099-.229.107-.458.219-.688.328-.646.307-1.294.621-1.944.942-.273.135-.546.268-.818.405-.798.399-1.597.807-2.399 1.223-.267.138-.535.28-.802.421-.658.345-1.317.694-1.978 1.048l-.707.378a317.851 317.851 0 0 0-3.266 1.789c-.759.422-1.52.845-2.284 1.275l-.404.226c-.905.509-1.813 1.023-2.722 1.541l-.704.4-2.613 1.489-2.845 1.622-.561.319c-.978.555-1.957 1.111-2.937 1.662l-.398.223a387.195 387.195 0 0 1-6.224 3.431l-.195.106a254.05 254.05 0 0 1-3.202 1.693l-.023.012c-11.976 6.216-23.875 11.035-34.928 11.074-.077 0-.154.002-.231.001a35.795 35.795 0 0 1-2.335-.078c-.044-.003-.088-.01-.134-.013a32.181 32.181 0 0 1-1.946-.202c-.257-.033-.512-.074-.768-.114a29.785 29.785 0 0 1-1.377-.247c-.24-.048-.481-.095-.72-.149a30.45 30.45 0 0 1-2.012-.52 93.396 93.396 0 0 0-3.154-.878c-.376-.098-.747-.187-1.12-.279a83.642 83.642 0 0 0-3.294-.75 80.757 80.757 0 0 0-1.648-.318c-.477-.087-.954-.178-1.424-.256-.527-.086-1.046-.156-1.567-.231a67.357 67.357 0 0 0-2.656-.323c-.416-.042-.835-.089-1.247-.123-.546-.045-1.085-.074-1.623-.104a52.49 52.49 0 0 0-2.781-.09c-.102-.001-.207-.006-.31-.006-.115 0-.225.01-.34.011-.93.005-1.848.033-2.753.085l-.2.013c-8.243.512-15.461 2.989-21.571 7.467-4.129 3.027-7.323 6.688-9.808 10.534a62.94 62.94 0 0 0-.46.717 45.467 45.467 0 0 0-2.232 4.038c-.182.369-.378.722-.553 1.099-2.627 5.661-3.968 11.305-4.654 15.536l-.054.334-.096.63c-.043.291-.082.573-.119.848l-.024.176c-.349 2.667-.413 4.477-.424 4.941l-.002.089v.009c-.002.05-.002.092-.002.133v247.255a8.086 8.086 0 0 0 8.087 8.087h89.63c4.467 0 8.087-3.62 8.087-8.087s-3.62-8.087-8.087-8.087H16.175v-60.451H145.142l33.076 9.904 93.758 28.07a8.1 8.1 0 0 0 2.319.34h210.316c.396 0 .788.023 1.178.065.094.01.185.03.278.043.294.039.589.083.878.146.104.023.204.054.307.079.274.068.546.139.813.227.107.036.21.078.315.115.257.094.511.192.76.304.106.047.209.1.314.152.242.119.48.244.712.38.1.058.199.12.298.181.233.146.46.301.683.465.086.063.171.126.256.191.236.184.466.381.688.586.059.054.12.106.177.161a11.013 11.013 0 0 1 3.412 7.974c0 6.103-4.966 11.07-11.068 11.07h-224.67l-100.429-27.364a8.094 8.094 0 0 0-7.035 1.376 8.091 8.091 0 0 0-3.178 6.427v19.562h-24.983c-4.467 0-8.087 3.62-8.087 8.087s3.62 8.087 8.087 8.087h33.071a8.086 8.086 0 0 0 8.087-8.087v-17.062l91.259 24.866a8.08 8.08 0 0 0 2.126.285h225.753c15.022 0 27.242-12.222 27.242-27.245a27.06 27.06 0 0 0-3.896-14.021c7.386-31.318 4.642-56.315-8.184-74.336zm-483.6 22.796v-75.273c15.519 4.577 46.414 20.538 49.188 75.273H16.175zm177.595-5.695a110.354 110.354 0 0 0-3.371 2.653c-.322.264-.637.547-.958.815-.795.665-1.588 1.33-2.371 2.024-.416.369-.823.76-1.236 1.138-.677.619-1.355 1.231-2.023 1.873-.438.421-.866.864-1.299 1.295-.63.627-1.263 1.247-1.883 1.894-.441.459-.871.941-1.307 1.411-.511.552-1.03 1.089-1.533 1.656l-29.139-8.724a8.1 8.1 0 0 0-2.319-.34H81.546v-.001c-2.023-43.735-20.331-66.592-35.838-78.176-11.189-8.358-22.416-12.099-29.535-13.751v-49.647c11.101 5.072 28.935 10.987 51.767 10.986 18.68-.002 40.706-3.964 65.102-15.587a8.087 8.087 0 0 0 3.823-10.779 8.084 8.084 0 0 0-10.779-3.823c-27.715 13.204-55.163 17.061-81.582 11.465-13.638-2.891-23.491-7.699-28.329-10.432v-2.691l.003-.082.003-.068.01-.195.003-.055c.022-.366.063-.944.141-1.693l.003-.033c.058-.546.137-1.183.24-1.888l.023-.153c.03-.203.064-.413.099-.628l.053-.315a51.708 51.708 0 0 1 .284-1.524c.029-.144.063-.294.094-.442a52.09 52.09 0 0 1 .253-1.125c.077-.322.157-.648.245-.98l.045-.177c.113-.424.234-.855.364-1.292l.03-.1a45.9 45.9 0 0 1 .402-1.267l.036-.105a37.972 37.972 0 0 1 1.719-4.252c.283-.589.576-1.158.881-1.71l.04-.071c.285-.511.579-1.006.883-1.485.026-.041.051-.084.078-.125.291-.454.594-.89.904-1.316.093-.126.188-.251.283-.376.237-.314.481-.619.728-.917.096-.115.19-.234.288-.348.325-.376.659-.738 1.001-1.086.1-.102.205-.201.307-.301.281-.276.568-.546.863-.803.1-.088.201-.178.303-.265a21.237 21.237 0 0 1 5.272-3.278c.122-.053.237-.114.36-.165.229-.095.469-.174.703-.262.315-.119.625-.244.95-.35.033-.011.07-.019.104-.03 2.184-.704 4.566-1.13 7.146-1.271.445-.024.904-.029 1.362-.037.208-.003.41-.016.621-.016.199 0 .408.011.61.014.437.006.873.014 1.32.036.34.016.687.044 1.033.069.319.023.636.043.96.073.38.036.765.08 1.152.125.304.036.609.071.919.113a63.51 63.51 0 0 1 3.339.554c.37.072.745.151 1.12.232.36.077.72.153 1.085.237.468.108.944.228 1.42.348.287.072.57.139.859.217.781.207 1.57.427 2.372.666a45.347 45.347 0 0 0 2.774.727c.448.104.898.202 1.35.292.28.057.561.116.842.167a49.266 49.266 0 0 0 2.922.438c.331.04.661.081.993.114.375.038.75.07 1.126.099.327.026.655.046.982.066.361.021.722.043 1.084.057a58.612 58.612 0 0 0 2.935.022c.362-.006.725-.011 1.088-.025.39-.015.781-.039 1.172-.062.309-.018.619-.037.928-.06.423-.032.845-.069 1.268-.11.25-.025.499-.052.749-.079.477-.052.952-.107 1.429-.169l.263-.038c15.883-2.18 31.659-10.437 46.342-18.736l.044-.025c1.745-.986 3.475-1.972 5.187-2.949 1.066-.608 2.129-1.215 3.186-1.816.625-.356 1.25-.71 1.871-1.061l.801-.452c.656-.369 1.308-.735 1.958-1.098l.454-.253c.733-.408 1.463-.81 2.189-1.207l.495-.271a244.15 244.15 0 0 1 2.604-1.397c1.663-.88 3.302-1.721 4.909-2.506l.031-.015c7.504-3.665 14.336-6.158 19.967-6.158l.56.003c1.807.065 3.475.405 4.982 1.077a11.953 11.953 0 0 1 1.382.746c.083.051.164.109.247.162 3.52 2.343 7.527 7.459 10.838 18.61l.163.552c.145.498.287 1.014.428 1.536a109.705 109.705 0 0 1 1.067 4.314l-42.509 26.373a8.086 8.086 0 0 0-2.608 11.136 8.087 8.087 0 0 0 11.136 2.608l38.621-23.961c4.815 13.238 11.895 25.726 20.322 37.317l-11.54 9.085a8.087 8.087 0 0 0 10.006 12.708l11.565-9.104a245.666 245.666 0 0 0 11.723 12.772l-11.106 9.427a8.087 8.087 0 1 0 10.468 12.33l12.373-10.503a326.386 326.386 0 0 0 12.675 10.907l-10.616 11.781a8.088 8.088 0 0 0 12.014 10.829l11.383-12.632a396.07 396.07 0 0 0 14.757 10.48l-9.571 12.523a8.088 8.088 0 0 0 12.851 9.823l10.338-13.525a374.564 374.564 0 0 0 15.038 8.858l-16.822 29.158c-4.374-.48-11.03-1.008-19.181-1.008-.817 0-1.657.005-2.517.018-.286.004-.586.013-.877.018-.582.011-1.164.022-1.763.038-.365.011-.744.027-1.115.039-.542.018-1.08.036-1.636.06-.413.018-.838.042-1.257.064-.533.027-1.061.052-1.606.084-.446.027-.904.059-1.358.09-.532.036-1.06.069-1.6.11-.478.037-.965.079-1.449.12-.534.044-1.063.088-1.606.138-.503.046-1.015.1-1.525.152-.537.054-1.072.108-1.615.168-.525.058-1.057.123-1.588.187-.542.065-1.084.129-1.633.201-.543.07-1.092.148-1.642.224-.549.077-1.098.153-1.652.235-.561.084-1.126.174-1.692.264-.553.088-1.106.177-1.665.272-.577.098-1.158.203-1.74.307a153.384 153.384 0 0 0-8.667 1.813 147.376 147.376 0 0 0-3.557.893 151.4 151.4 0 0 0-3.584.993c-.623.181-1.245.365-1.87.554-.58.177-1.161.36-1.744.546-.626.199-1.252.401-1.879.61-.583.195-1.168.398-1.753.602-.628.219-1.254.438-1.883.667-.587.214-1.173.437-1.76.66-.628.238-1.255.478-1.884.727-.589.234-1.176.479-1.764.721-.626.259-1.252.518-1.877.787-.591.256-1.18.523-1.77.788-.622.279-1.243.557-1.863.849-.595.279-1.188.573-1.781.863-.612.299-1.225.594-1.835.905-.602.306-1.2.629-1.799.946-.601.318-1.201.631-1.799.96-.607.334-1.209.687-1.813 1.034-.587.336-1.174.666-1.759 1.015-.616.368-1.226.756-1.837 1.137-.566.353-1.134.695-1.697 1.059-.644.416-1.281.856-1.921 1.287-.524.354-1.05.695-1.571 1.059-.734.513-1.46 1.054-2.188 1.588-.419.306-.842.599-1.257.914zm300.109 45.635l-.049-.015a27.039 27.039 0 0 0-2.087-.655c-.05-.013-.098-.029-.148-.042a27.626 27.626 0 0 0-2.09-.463l-.303-.054a26.98 26.98 0 0 0-2.087-.275c-.106-.01-.211-.016-.317-.024a27.67 27.67 0 0 0-2.185-.096H275.481v-.003l-80.262-24.03a97.685 97.685 0 0 1 2.658-2.445c.264-.233.534-.452.799-.682a98.164 98.164 0 0 1 2.03-1.718c.381-.311.768-.607 1.151-.91.576-.455 1.152-.911 1.734-1.351.422-.318.846-.624 1.271-.934.554-.404 1.11-.809 1.67-1.199.44-.307.883-.606 1.326-.905a97.36 97.36 0 0 1 6.069-3.791c.566-.327 1.135-.644 1.705-.959.454-.25.908-.503 1.364-.746.589-.314 1.18-.616 1.771-.917.44-.224.88-.453 1.321-.67.636-.313 1.273-.611 1.912-.91.399-.187.797-.381 1.197-.563a112.34 112.34 0 0 1 2.532-1.109c.277-.118.554-.238.832-.355.947-.394 1.893-.775 2.841-1.142.401-.155.802-.299 1.203-.449a126 126 0 0 1 1.936-.713c.446-.159.892-.307 1.338-.459.599-.205 1.198-.41 1.796-.604.464-.151.925-.294 1.388-.439.58-.181 1.16-.361 1.739-.533a157.757 157.757 0 0 1 3.113-.884 127.997 127.997 0 0 1 3.103-.801 114.312 114.312 0 0 1 3.098-.723c.44-.098.88-.197 1.318-.29.602-.127 1.199-.247 1.795-.366.402-.08.805-.164 1.206-.239.689-.13 1.372-.251 2.053-.371.302-.053.607-.111.907-.162.969-.164 1.932-.317 2.886-.46.287-.043.567-.079.852-.12.676-.097 1.351-.194 2.018-.28.373-.049.741-.092 1.112-.137.568-.07 1.137-.14 1.697-.204.393-.044.78-.084 1.169-.125.532-.056 1.061-.111 1.585-.161.389-.037.774-.071 1.158-.105a145.961 145.961 0 0 1 2.661-.212 165.462 165.462 0 0 1 5.037-.285c.495-.021.98-.037 1.463-.053.307-.01.619-.022.922-.029a140.29 140.29 0 0 1 1.547-.032c.243-.004.493-.011.732-.014.743-.01 1.473-.015 2.181-.015 12.308 0 20.871 1.333 21.958 1.511l.116.019a8.093 8.093 0 0 0 8.411-3.923l20.621-35.743c11.555 2.886 37.847 8.904 64.867 11.319 2.149.192 4.409.378 6.759.571 27.226 2.243 64.513 5.316 81.452 29.116 9.002 12.65 11.438 30.563 7.28 53.358z"/></svg>