<svg xmlns="http://www.w3.org/2000/svg" viewBox="0 0 512 512"><path d="M511.8 289.381c-.988-9.286-5.534-17.632-12.798-23.5a35.582 35.582 0 0 0-1.263-.971c-.229-.169-.464-.329-.698-.493-.183-.128-.365-.257-.55-.382-.33-.222-.666-.435-1.002-.645l-.207-.13a34.583 34.583 0 0 0-17.822-5.138c-.137-.002-.276-.009-.413-.009l-.05.001c-.64.002-1.281.017-1.924.054-.08.004-.159.014-.239.019-.5.032-.999.07-1.5.122-.024.002-.046.006-.069.009-.335.036-.667.086-.999.131-.271.038-.542.071-.813.114-.339.055-.675.119-1.011.183-.269.051-.538.102-.805.159-.315.068-.628.143-.94.219a36.88 36.88 0 0 0-1.718.463c-.285.085-.569.174-.852.266l-97.801-28.052c-3.421-1.888-15.687-8.654-32.195-17.706l1.856-3.093a8.036 8.036 0 0 0-2.757-11.03 8.038 8.038 0 0 0-11.03 2.757l-2.182 3.635c-3.35-1.833-6.796-3.716-10.316-5.638l1.743-2.904a8.036 8.036 0 0 0-2.757-11.03 8.038 8.038 0 0 0-11.03 2.757l-2.085 3.474c-3.42-1.862-6.87-3.737-10.329-5.614l1.661-2.767a8.037 8.037 0 0 0-2.757-11.03 8.039 8.039 0 0 0-11.03 2.757l-2.024 3.374a6732.004 6732.004 0 0 0-10.35-5.583l1.619-2.698a8.041 8.041 0 0 0-2.758-11.031 8.04 8.04 0 0 0-11.03 2.758l-2.015 3.36c-3.57-1.908-7.037-3.754-10.382-5.529l1.642-2.738a8.04 8.04 0 0 0-2.757-11.03c-3.808-2.288-8.747-1.049-11.031 2.757l-2.104 3.508c-7.017-3.659-12.998-6.715-17.47-8.902-13.901-6.796-23.13-3.992-28.423-.444-11.913 7.986-14.143 26.534-14.415 36.876-3.869 1.171-7.69 2.948-11.301 5.555-1.225.885-2.579 1.892-4.052 2.987-20.874 15.52-59.727 44.405-96.067 4.499a9.934 9.934 0 0 0-.224-.236c-1.973-1.998-19.73-19.329-35.516-12.853C5.382 185.543 0 199.237 0 222.864v113.4c0 19.28 15.685 34.965 34.964 34.965H80.94a8.04 8.04 0 1 0 0-16.08H34.964c-10.412 0-18.883-8.471-18.883-18.884v-18.882h284.173c6.424.307 12.391.467 18.2.496-6.917 8.255-12.826 20.266-13.595 37.433a282.43 282.43 0 0 1-4.673-.154 8.006 8.006 0 0 0-.345-.007H105.954a8.04 8.04 0 1 0 0 16.08H299.67c1.966.083 6.549.243 13.167.292l.029.001.635.003.116.001 1.366.006c.547.002 1.104.003 1.676.003 14.453 0 36.772-.594 61.012-3.419 61.311-7.146 103.89-25.001 126.56-53.067 5.867-7.266 8.556-16.383 7.569-25.67zm-158.928 10.038a238.795 238.795 0 0 1 .152-3.372c.02-.383.042-.762.063-1.14.042-.721.087-1.437.136-2.145l.061-.861a180.805 180.805 0 0 1 .493-5.564l.014-.135c.934-8.809 2.459-16.476 4.569-22.925 2.938-8.983 6.305-13.313 8.286-15.237l82.629 23.704c-.12.141-.236.277-.359.413a30.97 30.97 0 0 1-.586.634c-.235.244-.481.487-.731.729-.213.207-.426.414-.649.619-.264.242-.542.482-.821.723-.234.2-.463.402-.706.601-.298.244-.613.486-.926.728-.248.191-.488.383-.745.571-.342.252-.702.501-1.06.75-.252.176-.495.353-.755.526-.423.283-.869.563-1.313.843-.215.136-.42.273-.64.408-.669.408-1.36.814-2.073 1.214-.228.128-.472.253-.704.38-.502.274-1.003.549-1.527.819-.315.163-.645.322-.968.483-.461.231-.919.461-1.395.688-.357.17-.728.338-1.093.506-.463.214-.925.428-1.402.639-.386.17-.784.339-1.179.508-.477.204-.954.407-1.444.609-.411.168-.832.336-1.251.502a114.584 114.584 0 0 1-2.817 1.079 125.69 125.69 0 0 1-2.927 1.045c-.536.184-1.078.368-1.625.549-.47.155-.942.311-1.42.465a195.861 195.861 0 0 1-3.157.981c-.589.177-1.187.349-1.786.523-.493.143-.984.285-1.484.426-.624.175-1.259.345-1.894.517-.494.133-.984.267-1.485.398-.668.175-1.35.344-2.031.516-.487.122-.968.247-1.461.367-.754.183-1.522.361-2.29.54-.435.101-.862.205-1.301.305-1.206.273-2.428.542-3.667.804-.205.043-.416.084-.622.127-1.05.219-2.105.436-3.178.646-.471.092-.953.181-1.428.271-.82.156-1.638.314-2.471.465-.544.099-1.097.194-1.645.29-.778.137-1.557.276-2.346.409-.589.1-1.187.195-1.782.292-.762.124-1.526.248-2.297.368-.621.096-1.248.19-1.875.283-.763.115-1.528.228-2.299.338-.645.092-1.295.181-1.946.271a350.812 350.812 0 0 1-8.709 1.089c-.79.09-1.586.177-2.383.262a328.022 328.022 0 0 1-4.514.458c-.706.068-1.412.136-2.123.201-.823.075-1.654.146-2.485.215-.711.06-1.418.122-2.134.179l-.524.04.03-.937zm-336.791 1.883V239.21c17.305 9.733 49.065 31.465 54.222 62.092H16.081zm51.707-40.945c-17.269-20.963-41.385-34.302-51.691-39.379.298-21.906 5.812-24.835 6.456-25.102 3.961-1.633 13.04 4.364 17.875 9.177 19.847 21.721 42.997 29.559 68.806 23.298 20.544-4.984 38.118-18.051 48.619-25.858 1.408-1.047 2.702-2.01 3.872-2.856 3.326-2.402 7.099-3.64 10.931-4.14.027-.003.055-.002.081-.006 8.185-1.034 16.56 1.277 21.47 3.044l.278.101a142.967 142.967 0 0 1 .801.299l.362.139a52.387 52.387 0 0 1 1.195.482l.249.104.265.113.217.093.165.073c.509.225.799.366.815.373l.013.005c.083.042.166.081.25.12l62.135 28.293a8.042 8.042 0 0 0 6.665-14.637l-62.029-28.243-.038-.018-.182-.087-.287-.135-.078-.036c-1.899-.882-7.173-3.154-14.131-4.745-.11-.026-.222-.05-.332-.075a75.947 75.947 0 0 0-1.489-.316c-.239-.048-.478-.096-.72-.143a71.326 71.326 0 0 0-1.901-.334c-.237-.039-.475-.075-.715-.112a59.453 59.453 0 0 0-1.324-.185c-.167-.021-.333-.044-.502-.064a61.15 61.15 0 0 0-1.714-.185c-.089-.009-.178-.015-.267-.023a66.52 66.52 0 0 0-1.761-.131c-.053-.003-.104-.008-.157-.01l-.211-.014c.525-8.779 2.698-18.701 7.208-21.717 2.594-1.731 6.766-1.217 12.399 1.538 4.161 2.034 9.713 4.868 16.243 8.271l-1.145 1.907a8.039 8.039 0 0 0 6.887 12.177 8.036 8.036 0 0 0 6.902-3.905l1.609-2.681c3.336 1.769 6.806 3.617 10.383 5.528l-1.236 2.06a8.04 8.04 0 1 0 13.788 8.272l1.634-2.723c3.408 1.834 6.867 3.7 10.35 5.582l-1.229 2.048a8.036 8.036 0 0 0 2.757 11.03 8.037 8.037 0 0 0 11.032-2.759l1.593-2.654c3.457 1.876 6.908 3.752 10.33 5.614l-1.169 1.948a8.037 8.037 0 0 0 2.757 11.03 8.036 8.036 0 0 0 11.032-2.759l1.512-2.519c3.517 1.92 6.966 3.804 10.317 5.637l-1.074 1.789a8.037 8.037 0 0 0 2.757 11.03 8.037 8.037 0 0 0 11.032-2.758l1.4-2.334c9.596 5.261 17.79 9.765 23.669 13.002-1.751 2.372-3.536 5.328-5.235 9.013l-54.332-24.738a8.04 8.04 0 1 0-6.663 14.637l29.746 13.543.008.004 26.035 11.854a125.187 125.187 0 0 0-1.76 8.398c-23.224.073-47.498-8.51-73.115-17.572-41.5-14.681-84.413-29.861-125.381-7.076-46.381 25.803-69.197 13.847-73.032 11.403zm234.363 40.988c-.406-.019-.812-.024-1.217-.029-.1-.005-.198-.015-.3-.017a9.514 9.514 0 0 0-.61.005H86.564v-.002c-.912-7.246-2.958-14.036-5.8-20.368 15.104 1.688 37.538-1.044 67.872-17.918 34.627-19.263 72.308-5.932 112.202 8.182 25.137 8.893 51.052 18.036 76.491 18.455a224.68 224.68 0 0 0-.41 6.472l-.015.301a243.994 243.994 0 0 0-.181 4.745c-.002.079-.006.154-.009.234-.925.045-1.843.08-2.762.118-10.831.366-21.568.313-31.801-.178zm189.569 3.6c-18.687 23.134-54.13 38.537-105.44 45.846a420.042 420.042 0 0 1-14.659 1.82c-.45.048-.896.092-1.345.138-.936.098-1.872.194-2.8.284-.523.051-1.041.099-1.561.148-.85.08-1.699.16-2.542.235-.539.048-1.075.093-1.611.139a468.882 468.882 0 0 1-7.983.618c-.795.055-1.586.107-2.371.159l-1.487.095c-.818.05-1.627.098-2.434.144l-1.318.075c-.881.048-1.75.092-2.615.135l-1.053.054a507.209 507.209 0 0 1-3.556.159c-1.193.049-2.367.093-3.521.133-.236.009-.462.015-.696.023-.887.03-1.767.058-2.629.083l-1.115.03c-.71.019-1.417.038-2.108.053l-1.189.025c-.635.013-1.266.026-1.884.036-.415.008-.822.013-1.229.019-.578.009-1.149.016-1.711.022l-1.209.013-.696.005c1.642-28.194 21.117-36.942 25.252-38.488l.179-.012.378-.025.986-.063.473-.032.962-.065.497-.035.982-.07.539-.04.998-.074.525-.041 1.083-.085c.154-.013.312-.026.467-.037.386-.031.773-.062 1.165-.095l.485-.041c.391-.033.785-.066 1.184-.102l.53-.047 1.175-.105.583-.054c.387-.035.774-.072 1.167-.109l.611-.059 1.185-.116.611-.061 1.232-.125.597-.062 1.259-.134.635-.07 1.269-.14.619-.071c.436-.049.874-.1 1.314-.152l.631-.075c.436-.051.875-.105 1.315-.159l.656-.081c.443-.055.887-.11 1.334-.167l.658-.085 1.339-.175.69-.092c.445-.06.891-.12 1.338-.182l.696-.096c.455-.063.91-.128 1.367-.193.227-.032.455-.065.682-.099l1.395-.205.681-.103c.463-.07.927-.14 1.393-.213.238-.036.476-.074.715-.112l1.395-.222.708-.115c.467-.076.935-.153 1.403-.233l.724-.122 1.397-.24.742-.131c.467-.083.935-.166 1.402-.251l.73-.133c.47-.087.94-.174 1.411-.263l.742-.14a251.645 251.645 0 0 0 2.145-.418c.474-.094.948-.19 1.423-.286l.741-.152c.472-.098.944-.196 1.416-.297l.735-.156c.475-.102.95-.206 1.425-.31l.728-.161c.481-.107.962-.217 1.442-.327.234-.054.469-.107.702-.162a306.695 306.695 0 0 0 2.151-.509c.48-.116.961-.234 1.441-.354l.706-.176c.476-.12.951-.241 1.426-.363l.711-.184c.475-.124.949-.251 1.422-.377.234-.063.469-.125.701-.19.473-.129.945-.259 1.415-.391l.696-.195c.473-.134.944-.271 1.415-.408l.683-.199c.466-.138.931-.278 1.395-.419.23-.07.462-.139.693-.211.462-.143.923-.287 1.383-.433l.68-.215c.461-.148.92-.299 1.378-.45l.666-.22c.46-.154.917-.311 1.372-.468l.649-.224c.457-.16.911-.323 1.365-.486l.634-.228a427.134 427.134 0 0 0 1.975-.739 405.077 405.077 0 0 0 1.947-.76c.441-.176.878-.355 1.313-.535.201-.083.402-.164.601-.248.437-.183.872-.369 1.304-.556.194-.084.388-.166.581-.251.431-.189.857-.381 1.282-.574l.573-.258c.424-.195.845-.393 1.264-.593.184-.087.37-.174.552-.262.42-.203.835-.408 1.249-.615.177-.088.355-.175.531-.264.412-.209.818-.421 1.223-.634.174-.091.348-.18.521-.272.403-.214.799-.433 1.195-.652.168-.093.339-.184.506-.279.397-.223.786-.449 1.176-.675.161-.093.324-.185.482-.28.392-.232.777-.469 1.161-.704.15-.092.302-.182.451-.276.386-.241.764-.487 1.143-.733.141-.092.285-.182.426-.274.38-.251.751-.507 1.122-.762.132-.091.266-.18.397-.271.375-.263.742-.531 1.107-.799.12-.088.242-.174.361-.263.372-.277.734-.559 1.096-.842.106-.083.215-.164.321-.247.366-.289.721-.584 1.075-.88.095-.079.194-.158.288-.237.365-.309.72-.623 1.072-.939.077-.069.158-.136.234-.206.374-.339.738-.683 1.096-1.029.05-.048.103-.095.152-.144.27-.264.531-.532.792-.8l.128-.129c.078-.08.16-.16.237-.24l.032-.032c.276-.289.54-.584.806-.879.075-.084.153-.165.227-.249.4-.451.789-.907 1.163-1.37.032-.04.07-.073.102-.113.418-.51.86-.992 1.322-1.449.119-.118.247-.225.368-.339.101-.095.208-.182.31-.274.311-.279.622-.559.951-.815.112-.088.226-.17.339-.256.125-.094.257-.179.385-.27a19.095 19.095 0 0 1 1.301-.859c.152-.09.311-.169.466-.255a18.494 18.494 0 0 1 2.481-1.156c.235-.088.468-.18.706-.258.393-.13.794-.237 1.196-.342.247-.063.489-.136.739-.191.449-.098.906-.165 1.364-.229.205-.029.405-.073.611-.095a19.537 19.537 0 0 1 3.715-.044c.159.014.313.042.471.06.429.048.857.102 1.28.179.173.031.341.074.512.11.408.087.815.18 1.216.295.163.046.324.099.486.149a19.179 19.179 0 0 1 1.66.604c.396.166.785.348 1.169.542.146.074.293.144.437.222.389.209.77.438 1.146.675.129.081.259.154.386.239.492.327.972.674 1.438 1.05a18.76 18.76 0 0 1 6.913 12.692 18.787 18.787 0 0 1-4.095 13.855z"/></svg>