<svg xmlns="http://www.w3.org/2000/svg" viewBox="0 0 512 512"><path d="M401.16 56.264h-69.204V39.576C331.956 17.753 314.203 0 292.38 0h-72.76c-21.822 0-39.576 17.753-39.576 39.576V56.264H110.84c-17.684 0-32.07 14.387-32.07 32.07v391.595c0 17.684 14.387 32.07 32.07 32.07h290.32c17.684 0 32.07-14.387 32.07-32.07V88.334c.001-17.684-14.386-32.07-32.07-32.07zm-81.921 94.473c.124.074.253.132.38.198.277.144.557.277.846.39.15.057.299.109.45.159.288.092.578.167.872.23.147.029.291.065.44.087a8.16 8.16 0 0 0 1.07.092c.073.002.146.02.218.02l.054-.002c.072-.001.143-.01.214-.013a8.28 8.28 0 0 0 .86-.069 8.648 8.648 0 0 0 1.102-.227c.108-.03.215-.057.323-.09a8.31 8.31 0 0 0 1.026-.395 8.437 8.437 0 0 0 4.86-7.643v-25.32h84.396v316.765c0 8.377-6.815 15.191-15.191 15.191H286.945V123.983l31.169 25.974c.355.296.734.55 1.125.78zm-4.162-86.034v60.749l-44.992-37.491 44.992-29.994v6.736zM219.62 16.879h72.76c11.894 0 21.681 9.196 22.621 20.85L256 77.066 196.997 37.73c.941-11.655 10.729-20.851 22.623-20.851zm50.446 93.04V450.11h-28.132V109.919L256 98.196l14.066 11.723zm-73.143-.205V57.967l44.991 29.994-44.991 37.491v-15.738zM95.648 88.334c0-8.375 6.816-15.191 15.191-15.191h69.204v28.132H95.648V88.334zm0 29.82h84.396v25.319a8.44 8.44 0 0 0 4.859 7.643c.338.158.681.284 1.031.395.105.033.209.06.314.088.253.071.506.127.763.173.115.02.228.041.342.055.287.039.575.062.863.071.071.003.143.012.213.013l.054.002c.072 0 .145-.018.218-.02a8.16 8.16 0 0 0 1.07-.092c.147-.023.293-.057.44-.087a8.737 8.737 0 0 0 1.322-.389 8.97 8.97 0 0 0 .846-.39c.127-.066.255-.124.38-.198.392-.231.77-.485 1.125-.781l31.17-25.974V450.11H110.84c-8.375 0-15.191-6.815-15.191-15.191V118.154zM401.16 495.121H110.84c-8.375 0-15.191-6.815-15.191-15.191v-16.772c.076.042.159.078.236.119.43.227.865.446 1.306.655.18.086.362.164.545.246.367.167.734.324 1.106.475.197.079.393.159.592.233.391.15.784.289 1.184.423.172.059.342.12.515.176.569.181 1.143.35 1.725.498.059.016.12.026.178.041a29.84 29.84 0 0 0 1.589.354c.194.039.392.072.586.106.412.073.825.14 1.242.197.214.029.429.059.646.083.424.048.853.088 1.282.12.196.015.389.032.584.045.62.034 1.245.059 1.874.059H401.16c.629 0 1.254-.025 1.874-.059.195-.013.388-.03.583-.045.43-.033.859-.073 1.283-.12a29.999 29.999 0 0 0 1.888-.28c.195-.034.392-.066.586-.106a32.284 32.284 0 0 0 1.588-.354c.06-.015.12-.026.179-.041.583-.15 1.156-.317 1.725-.498.173-.055.343-.117.515-.176.397-.134.793-.273 1.184-.423.199-.074.396-.154.592-.233.372-.151.74-.308 1.105-.475.182-.081.366-.161.546-.246.442-.209.877-.428 1.306-.655.078-.042.159-.078.236-.119v16.772h.002c0 8.376-6.815 15.191-15.192 15.191zm15.192-393.846h-84.396V73.143h69.204c8.377 0 15.191 6.816 15.191 15.191v12.941z"/><path d="M357.275 309.451c11.577 0 22.596-3.643 31.863-10.533 3.739-2.782 4.519-8.068 1.737-11.807a8.441 8.441 0 0 0-11.808-1.739c-6.336 4.71-13.871 7.2-21.793 7.2-20.165 0-36.571-16.407-36.571-36.571v-25.319h73.143V256c0 1.521-.093 3.049-.279 4.546a8.439 8.439 0 0 0 7.339 9.412 8.437 8.437 0 0 0 9.413-7.339c.269-2.181.406-4.408.406-6.619v-67.516a8.44 8.44 0 0 0-8.44-8.44h-90.022a8.44 8.44 0 0 0-8.44 8.44V256c.001 29.472 23.98 53.451 53.452 53.451zm-36.572-112.528h73.143v16.879h-73.143v-16.879z"/></svg>