<svg xmlns="http://www.w3.org/2000/svg" viewBox="0 0 511.999 511.999"><path d="M511.639 438.993c-.06-.595-.106-1.189-.182-1.784l-.512-3.969-31.017-240.39c-4.243-32.96-32.502-57.818-65.737-57.818h-48.466v-25.319C365.725 49.217 316.507 0 256.01 0S146.296 49.217 146.296 109.714v25.319H97.83c-33.234 0-61.493 24.857-65.737 57.817L.564 437.214a66.322 66.322 0 0 0 15.961 52.268 66.293 66.293 0 0 0 22.471 16.626 65.46 65.46 0 0 0 2.525 1.063c.233.093.459.2.692.291a66.253 66.253 0 0 0 24.092 4.536H445.716a66.29 66.29 0 0 0 49.78-22.518c12.189-13.862 18.007-32.172 16.143-50.487zM256.01 101.275c-17.064 0-30.945 13.881-30.945 30.945v2.813h-16.879v-25.319c0-26.372 21.454-47.824 47.824-47.824 26.372 0 47.824 21.452 47.824 47.824v25.319h-16.879v-2.813c0-17.064-13.881-30.945-30.945-30.945zm14.066 30.945v2.813h-28.132v-2.813c0-7.757 6.309-14.066 14.066-14.066 7.757 0 14.066 6.309 14.066 14.066zm33.759 75.956v14.066c0 17.064 13.88 30.945 30.945 30.945 17.064 0 30.945-13.881 30.945-30.945v-14.066h1.879c8.273 0 15 6.729 15 15v20.638c0 8.271-6.727 15-15 15h-65.649c-8.271 0-15-6.729-15-15v-20.638c0-8.271 6.729-15 15-15h1.88zm-140.66-8.44v-90.022c0-51.189 41.646-92.835 92.835-92.835 51.191 0 92.835 41.646 92.835 92.835v112.527c0 7.757-6.309 14.066-14.066 14.066s-14.066-6.309-14.066-14.066V109.714c0-35.678-29.026-64.703-64.703-64.703-35.677 0-64.703 29.025-64.703 64.703v112.527c0 7.757-6.309 14.066-14.066 14.066s-14.066-6.309-14.066-14.066v-22.505zm-16.879 8.44v14.066c0 17.064 13.88 30.945 30.945 30.945 17.064 0 30.945-13.881 30.945-30.945v-14.066h1.879c8.271 0 15 6.729 15 15v20.638c0 8.271-6.729 15-15 15h-65.648c-8.271 0-15-6.729-15-15v-20.638c0-8.271 6.729-15 15-15h1.879zm336.511 270.168a49.364 49.364 0 0 1-12.115 9.994c-.083.049-.171.092-.255.141-.668.387-1.34.763-2.024 1.115a49.413 49.413 0 0 1-22.708 5.527h-18.611a86.363 86.363 0 0 1-.06-3.177c0-19.542 6.826-38.597 19.22-53.655a8.44 8.44 0 0 0-1.153-11.88c-3.597-2.963-8.917-2.446-11.88 1.153-14.873 18.073-23.066 40.936-23.066 64.381 0 1.058.018 2.118.051 3.177H101.812c.033-1.059.051-2.119.051-3.177 0-23.304-8.105-46.063-22.819-64.083a8.441 8.441 0 0 0-13.074 10.678c12.261 15.015 19.015 33.982 19.015 53.407 0 1.058-.019 2.118-.06 3.177H66.31a49.424 49.424 0 0 1-17.963-3.38 49.424 49.424 0 0 1-19.136-13.396 49.461 49.461 0 0 1-11.908-38.972l3.796-29.385a83.639 83.639 0 0 1 20.647 8.204 8.44 8.44 0 0 0 8.253-14.723 100.326 100.326 0 0 0-26.732-10.299l25.567-198.163c3.163-24.569 24.226-43.096 48.996-43.096h48.466v39.385h-1.879c-17.578 0-31.879 14.301-31.879 31.879v20.638c0 17.578 14.301 31.879 31.879 31.879h65.649c17.578 0 31.879-14.301 31.879-31.879v-20.638c0-17.578-14.301-31.879-31.879-31.879h-1.879v-39.385h95.649v39.385h-1.879c-17.578 0-31.879 14.301-31.879 31.879v20.638c0 17.578 14.301 31.879 31.879 31.879h65.649c17.578 0 31.879-14.301 31.879-31.879v-20.638c0-17.578-14.301-31.879-31.879-31.879h-1.879v-39.385h48.466c24.77 0 45.832 18.526 48.996 43.098l25.57 198.161a100.38 100.38 0 0 0-27.08 10.492 8.44 8.44 0 0 0-3.191 11.501 8.44 8.44 0 0 0 11.501 3.191 83.633 83.633 0 0 1 20.936-8.369l2.677 20.731 1.116 8.657c.147 1.141.24 2.282.307 3.422.754 12.952-3.595 25.743-12.218 35.548z"/><path d="M389.637 324.448a23.163 23.163 0 0 0-23.044-20.624H145.427a23.16 23.16 0 0 0-23.042 20.624l-7.978 71.786a23.219 23.219 0 0 0 5.767 18.022 23.22 23.22 0 0 0 17.277 7.722h237.117a23.214 23.214 0 0 0 17.277-7.722 23.21 23.21 0 0 0 5.767-18.022l-7.975-71.786zm-10.371 78.55c-.701.784-2.246 2.1-4.699 2.1H137.451c-2.453 0-3.996-1.315-4.699-2.1-.701-.784-1.839-2.464-1.569-4.902l7.976-71.785a6.3 6.3 0 0 1 6.268-5.608h221.165a6.3 6.3 0 0 1 6.268 5.608l7.976 71.785c.27 2.438-.866 4.118-1.57 4.902z"/><path d="M357.274 348.835h-202.55c-4.662 0-8.44 3.779-8.44 8.44s3.778 8.44 8.44 8.44h171.604v14.066a8.44 8.44 0 0 0 8.44 8.44 8.44 8.44 0 0 0 8.44-8.44v-14.066h14.066c4.662 0 8.44-3.779 8.44-8.44s-3.778-8.44-8.44-8.44z"/></svg>