<svg xmlns="http://www.w3.org/2000/svg" viewBox="0 0 512 512"><path d="M419.165 225.055h-6.453c-5.369-22.424-16.555-43.144-32.781-60.191-17.634-18.529-28.531-42.371-30.686-67.134l-.001-.002v-.006a107.04 107.04 0 0 1-.406-9.308v-1.205C348.836 39.121 309.715 0 261.627 0H149.1c-.056 0-.11.007-.164.008-.165.001-.33-.009-.494-.008-47.725.358-86.55 39.926-86.55 88.199v335.422c0 48.571 38.986 88.218 86.912 88.379h112.825c48.087 0 87.209-39.121 87.209-87.209v-1.204c0-3.109.137-6.241.406-9.308v-.004l.001-.003c2.155-24.764 13.053-48.605 30.686-67.133 16.226-17.048 27.413-37.768 32.781-60.192h6.453c17.064 0 30.945-13.881 30.945-30.945s-13.881-30.947-30.945-30.947zm-77.294-88.025c-18.045-8.785-37.454-13.25-57.739-13.25-20.252 0-39.628 4.449-57.647 13.204a125.614 125.614 0 0 0 8.444-30.083h98.415c1.564 10.337 4.457 20.455 8.527 30.129zM261.627 16.877v.002c38.779 0 70.33 31.55 70.33 70.33v1.204c0 .536.003 1.072.01 1.609h-95.669c.007-.537.01-1.073.01-1.609v-1.204c0-1.273-.037-2.537-.091-3.798-.013-.295-.025-.591-.04-.886a91.351 91.351 0 0 0-.259-3.578c-.029-.314-.068-.627-.101-.938a87.655 87.655 0 0 0-.33-2.73c-.057-.407-.109-.818-.169-1.224a89.076 89.076 0 0 0-.87-4.791c-.099-.466-.204-.932-.309-1.395a84.899 84.899 0 0 0-.943-3.774c-.038-.145-.077-.29-.117-.434-3.904-13.984-11.264-26.846-21.685-37.485a88.932 88.932 0 0 0-10.701-9.297h60.934zm-67.162 49.418c.214-.69.437-1.376.672-2.058.122-.357.251-.712.38-1.067a74.026 74.026 0 0 1 1.15-2.968c.284-.68.582-1.354.886-2.024.128-.284.252-.57.383-.852.446-.948.91-1.888 1.398-2.818.025-.044.051-.088.073-.131.465-.879.951-1.749 1.455-2.607.167-.286.344-.567.515-.851.374-.618.753-1.233 1.148-1.841.207-.318.417-.635.63-.951.386-.577.781-1.148 1.186-1.712.218-.305.438-.611.659-.915.115-.155.237-.305.352-.457 6.78 9.02 11.442 19.716 13.246 31.347.024.147.042.295.063.445a66.144 66.144 0 0 1 .443 3.667c.076.812.137 1.629.187 2.451.02.312.042.623.056.936.052 1.101.084 2.208.084 3.32v1.204c0 1.609-.041 3.214-.113 4.815-.034.763-.099 1.517-.15 2.274-.053.818-.097 1.636-.17 2.451-.09 1.016-.213 2.031-.333 3.043-.062.539-.116 1.08-.187 1.618-.167 1.24-.361 2.477-.572 3.71-.046.27-.086.539-.132.81-.261 1.47-.549 2.932-.872 4.392l-.002.008c-3.886 17.578-12.182 34.226-24.085 48.301-.455.538-.896 1.081-1.36 1.61l-.156.171V87.209c0-1.071.028-2.138.077-3.203.016-.339.042-.677.062-1.016.043-.727.093-1.454.159-2.177.034-.389.075-.776.117-1.165.073-.684.155-1.367.248-2.046.053-.383.106-.765.162-1.148.111-.721.235-1.438.369-2.156.06-.32.113-.643.176-.962.205-1.031.429-2.055.679-3.074a72.057 72.057 0 0 1 .827-3.024c.09-.317.193-.63.29-.943zm-3.44 414.977c-.236.176-.479.342-.718.514-.643.466-1.286.926-1.943 1.371-.323.216-.65.425-.976.636-.585.383-1.174.76-1.768 1.121-.353.216-.711.425-1.068.635a71.19 71.19 0 0 1-2.864 1.59c-.604.317-1.214.621-1.827.919-.36.176-.719.353-1.083.523-.662.307-1.331.6-2.001.887-.318.137-.637.281-.96.413-.893.367-1.797.713-2.704 1.043-.102.037-.203.08-.305.117a69.034 69.034 0 0 1-3.064 1.012c-.318.097-.639.18-.956.271-.715.208-1.43.41-2.153.594-.403.104-.81.196-1.218.292-.643.154-1.291.302-1.94.437-.438.089-.877.172-1.317.255a71.025 71.025 0 0 1-3.243.532c-.648.09-1.299.167-1.95.24-.434.047-.868.099-1.303.138-.718.068-1.438.116-2.161.16-.371.023-.739.054-1.111.071-1.094.05-2.191.08-3.293.08h-.242c-38.649-.129-70.09-32.204-70.09-71.5V88.199c0-39.036 31.311-71.031 69.795-71.32l.494-.002.039.002c1.171 0 2.336.03 3.493.089.164.008.327.024.491.029a72.21 72.21 0 0 1 3.033.233c.136.013.27.028.406.044 13.943 1.468 26.684 7.031 36.998 15.456a87.69 87.69 0 0 0-2.347 3.068c-.219.3-.424.609-.639.91a87.724 87.724 0 0 0-1.635 2.359c-.271.408-.53.823-.792 1.236-.453.706-.9 1.416-1.331 2.134-.269.449-.531.902-.791 1.354a84.42 84.42 0 0 0-1.18 2.118 74.622 74.622 0 0 0-1.828 3.593c-.218.455-.441.909-.653 1.369a99.62 99.62 0 0 0-1.056 2.415c-.169.404-.349.805-.514 1.213a81.124 81.124 0 0 0-1.259 3.313c-.044.124-.097.248-.141.374a85.737 85.737 0 0 0-1.223 3.757c-.116.381-.214.77-.325 1.151-.253.883-.5 1.771-.727 2.664-.12.483-.23.968-.343 1.453a87.233 87.233 0 0 0-.537 2.423 94.073 94.073 0 0 0-.942 5.537 83.797 83.797 0 0 0-.298 2.46c-.055.51-.116 1.017-.163 1.529a90.324 90.324 0 0 0-.196 2.705c-.026.438-.064.87-.083 1.309a93.412 93.412 0 0 0-.094 4.037v94.857a131.418 131.418 0 0 0-19.326 44.995c-.028.125-.06.25-.086.375l-.005.024c-.207.943-.398 1.888-.585 2.837-.046.239-.101.474-.147.712-.051.263-.094.53-.143.796-.188 1.022-.36 2.046-.526 3.074-.024.158-.053.311-.076.468-.077.487-.158.973-.228 1.462-.005.042-.009.083-.017.125-.124.872-.232 1.752-.34 2.629-.046.371-.101.739-.144 1.111-.025.21-.045.42-.068.63a125.373 125.373 0 0 0-.297 3.086c-.03.365-.073.729-.1 1.096-.023.273-.049.548-.069.825l-.004.101c-.074 1.026-.12 2.057-.171 3.088-.016.347-.043.688-.057 1.035l-.007.205a133.327 133.327 0 0 0-.113 5.262 133.327 133.327 0 0 0 .12 5.468c.015.347.042.688.057 1.034.051 1.031.097 2.062.171 3.088l.004.102c.02.276.046.549.069.824.027.366.07.73.1 1.096.09 1.031.182 2.061.297 3.086.023.21.042.42.068.63.043.371.098.739.144 1.111.108.877.215 1.757.34 2.63.008.042.012.082.017.123.071.491.152.976.228 1.465.024.156.053.311.078.468.164 1.026.336 2.05.524 3.071.048.267.092.533.143.798.046.239.101.475.147.713.187.949.378 1.895.585 2.837l.004.024c.026.123.056.246.084.369a131.413 131.413 0 0 0 19.327 45.001v94.855c0 1.35.036 2.696.097 4.036.02.438.057.871.083 1.308.054.905.115 1.808.196 2.707.047.511.108 1.017.163 1.526.09.823.185 1.644.298 2.462a94.46 94.46 0 0 0 .942 5.534c.165.811.348 1.618.537 2.424.114.486.222.971.343 1.455.226.892.474 1.776.725 2.658.11.385.212.774.326 1.156a88.92 88.92 0 0 0 1.222 3.756c.047.132.102.261.149.393a89.134 89.134 0 0 0 1.251 3.295c.167.41.349.815.52 1.223.341.806.685 1.608 1.051 2.404.212.461.434.918.655 1.377a79.467 79.467 0 0 0 1.826 3.592c.383.708.774 1.409 1.176 2.107.262.456.527.913.798 1.365.429.713.871 1.418 1.321 2.119.268.416.528.835.802 1.248.522.787 1.066 1.56 1.616 2.33.221.311.433.63.662.94a85.743 85.743 0 0 0 2.37 3.098 78.36 78.36 0 0 1-2.521 1.962zm8.308-23.781a66.281 66.281 0 0 1-1.395-2.815c-.133-.282-.258-.569-.385-.854a61.48 61.48 0 0 1-1.305-3.066 68.37 68.37 0 0 1-.729-1.922c-.129-.356-.26-.712-.383-1.069a77.126 77.126 0 0 1-.671-2.057c-.097-.314-.2-.627-.293-.943a72.499 72.499 0 0 1-.827-3.026 67.505 67.505 0 0 1-.679-3.073c-.064-.32-.117-.643-.176-.963a67.83 67.83 0 0 1-.369-2.156 85.515 85.515 0 0 1-.41-3.193 55.422 55.422 0 0 1-.117-1.166 71.14 71.14 0 0 1-.159-2.176c-.019-.34-.046-.677-.062-1.017a68.2 68.2 0 0 1-.078-3.203v-74.409c.05.055.102.109.151.165.485.549.944 1.116 1.417 1.673 11.877 14.064 20.156 30.69 24.035 48.243l.002.008c.323 1.458.611 2.923.872 4.392.046.27.086.54.132.81.21 1.234.404 2.47.572 3.71.071.539.125 1.079.187 1.618.12 1.013.243 2.027.333 3.043.073.816.117 1.634.17 2.451.051.758.115 1.512.15 2.274.071 1.601.113 3.207.113 4.815v1.204a70.5 70.5 0 0 1-.079 3.224c-.016.354-.042.71-.064 1.063a71.404 71.404 0 0 1-.156 2.138 74.944 74.944 0 0 1-.365 3.193c-.06.431-.117.864-.183 1.293-.1.65-.216 1.294-.335 1.94-.074.405-.141.811-.222 1.214-.196.97-.411 1.935-.648 2.894-.114.46-.245.915-.367 1.374-.147.542-.293 1.086-.449 1.625a62.766 62.766 0 0 1-.483 1.544 65.964 65.964 0 0 1-1.029 2.989c-.162.44-.334.873-.504 1.309-.212.537-.421 1.072-.646 1.602-.17.403-.352.8-.531 1.198a69.382 69.382 0 0 1-1.477 3.106c-.173.343-.339.688-.518 1.027-.276.523-.568 1.037-.856 1.553-.221.395-.44.788-.668 1.177-.29.498-.593.992-.899 1.483a69.469 69.469 0 0 1-1.694 2.614c-.281.412-.574.818-.864 1.225-.316.442-.629.887-.956 1.322-.02.029-.044.056-.065.084-.122-.163-.249-.32-.368-.482a60.222 60.222 0 0 1-.668-.925 69.645 69.645 0 0 1-2.956-4.494c-.171-.286-.352-.568-.519-.857a67.109 67.109 0 0 1-1.447-2.593c-.025-.042-.054-.089-.08-.138zm132.624-33.904v1.204c0 38.779-31.55 70.33-70.33 70.33h-60.929c.044-.033.086-.068.129-.099.212-.156.415-.322.625-.479a87.3 87.3 0 0 0 2.46-1.92c.334-.271.665-.548.995-.824a80.189 80.189 0 0 0 2.104-1.815c.305-.27.611-.539.911-.815a89.08 89.08 0 0 0 2.839-2.702l.008-.008.002-.001v-.001h.002c.205-.206.404-.411.601-.616.006-.006.015-.011.019-.018.016-.015.026-.029.042-.043l.072-.074c.015-.013.024-.027.036-.042.277-.285.539-.582.812-.869.59-.625 1.186-1.245 1.755-1.881.361-.403.706-.818 1.058-1.228a88.99 88.99 0 0 0 1.744-2.057c.302-.372.587-.754.881-1.131.589-.752 1.179-1.503 1.743-2.272.24-.327.465-.662.699-.991a85.004 85.004 0 0 0 1.745-2.518c.18-.273.349-.554.525-.829a83.863 83.863 0 0 0 1.73-2.775c.132-.221.252-.447.38-.671a80.81 80.81 0 0 0 1.688-3.026c.088-.164.167-.334.253-.498a89.142 89.142 0 0 0 1.626-3.279c.054-.117.101-.234.155-.35a84.825 84.825 0 0 0 1.528-3.502c.035-.083.065-.17.099-.255a83.961 83.961 0 0 0 1.393-3.667c.025-.069.046-.138.069-.208a84.99 84.99 0 0 0 1.231-3.779c.02-.073.039-.148.063-.223a86.62 86.62 0 0 0 1.042-3.823c.028-.115.048-.231.077-.345a84.94 84.94 0 0 0 .83-3.758c.041-.206.069-.415.108-.622.221-1.173.431-2.35.603-3.534.054-.363.087-.731.135-1.097.137-1.035.277-2.072.378-3.115.062-.629.091-1.261.138-1.892.06-.789.134-1.574.172-2.368.069-1.431.105-2.868.105-4.311v-1.204c0-.536-.003-1.072-.01-1.609h95.669c-.007.538-.01 1.075-.01 1.61zm1.388-18.488H234.93a125.627 125.627 0 0 0-8.444-30.083c18.019 8.755 37.395 13.204 57.647 13.204 20.286 0 39.695-4.465 57.738-13.25-4.07 9.674-6.963 19.793-8.526 30.129zm66.012-143.994l-.009.277c-.009.169-.026.338-.034.509-.074 1.471-.17 2.937-.302 4.401-.011.142-.021.285-.035.427a114.733 114.733 0 0 1-.549 4.82c-.02.143-.036.286-.056.429a113.284 113.284 0 0 1-1.547 8.67c-.102.467-.214.931-.321 1.396-.162.703-.33 1.405-.504 2.105a113.76 113.76 0 0 1-.53 2.028c-.105.386-.214.77-.32 1.152-8.658 30.594-29.986 56.83-58.596 71.454-16.307 8.341-33.945 12.568-52.422 12.568-18.477 0-36.115-4.228-52.422-12.567a116.05 116.05 0 0 1-29.928-21.94c-.407-.443-.805-.896-1.222-1.333v-.001l-.034-.036a119.106 119.106 0 0 1-2.586-2.82c-.161-.182-.323-.363-.484-.547a116.219 116.219 0 0 1-5.189-6.336l-.005-.006c-.855-1.128-1.69-2.27-2.501-3.422l-.005-.006-.003-.004a115.563 115.563 0 0 1-8.92-14.935c-.078-.158-.159-.314-.235-.471a114.49 114.49 0 0 1-1.658-3.509c-.117-.261-.233-.526-.349-.789-.428-.965-.841-1.938-1.24-2.914-.115-.279-.235-.557-.347-.837a109.44 109.44 0 0 1-1.214-3.189 108.34 108.34 0 0 1-1.449-4.206c-.182-.562-.353-1.126-.527-1.69-.218-.711-.429-1.425-.631-2.138-.136-.482-.273-.962-.405-1.445-.028-.11-.059-.221-.088-.332-.252-.945-.495-1.895-.722-2.848-.115-.484-.225-.969-.335-1.456-.011-.052-.024-.104-.034-.156a99.3 99.3 0 0 1-.719-3.474 79.156 79.156 0 0 1-.154-.794 126.002 126.002 0 0 1-.697-4.209 93.43 93.43 0 0 1-.309-2.309c-.076-.603-.154-1.207-.221-1.813l-.019-.178c-.083-.771-.154-1.544-.222-2.318-.052-.599-.112-1.196-.156-1.797-.066-.915-.113-1.833-.156-2.751-.019-.392-.046-.782-.062-1.174l-.021-.62a119.27 119.27 0 0 1-.074-3.97c0-1.328.03-2.649.074-3.969.008-.207.016-.413.021-.62.016-.394.043-.784.062-1.177.044-.917.09-1.835.156-2.748.044-.602.104-1.197.156-1.797.069-.774.138-1.547.222-2.318l.019-.182c.068-.604.144-1.206.219-1.808.099-.771.197-1.541.311-2.309a128.973 128.973 0 0 1 .697-4.211c.048-.258.101-.517.15-.774.074-.389.15-.779.228-1.167a128.05 128.05 0 0 1 .521-2.435c.113-.502.224-1.005.344-1.503.227-.952.47-1.901.722-2.847.029-.111.06-.221.088-.331.132-.484.269-.964.405-1.448a139.596 139.596 0 0 1 1.16-3.84c.305-.937.62-1.871.945-2.8a128.039 128.039 0 0 1 1.714-4.577c.115-.286.234-.565.349-.848.398-.971.811-1.939 1.237-2.901.118-.266.233-.532.352-.798a112.893 112.893 0 0 1 1.654-3.504c.078-.16.159-.315.237-.475a115.567 115.567 0 0 1 8.919-14.934l.002-.002.006-.008a115.184 115.184 0 0 1 7.71-9.783l.448-.503c.866-.974 1.743-1.939 2.64-2.882.415-.435.81-.886 1.218-1.328a116.1 116.1 0 0 1 29.932-21.945c16.307-8.34 33.945-12.568 52.422-12.568 18.477 0 36.115 4.228 52.422 12.567 28.62 14.63 49.954 40.88 58.608 71.5.101.361.204.722.302 1.084a112.47 112.47 0 0 1 1.037 4.147c.109.468.221.938.323 1.409a111.781 111.781 0 0 1 1.545 8.658c.022.156.041.313.063.468.147 1.095.258 2.198.376 3.299.052.496.123.989.169 1.488.013.147.024.297.036.446.144 1.627.259 3.259.334 4.896.005.092.006.185.009.277.074 1.699.117 3.399.117 5.105.003 1.7-.038 3.401-.113 5.1zm19.808 8.961h-3.555c.019-.173.032-.349.048-.522l.027-.287c.074-.761.145-1.524.208-2.285l.07-.825c.006-.072.009-.147.015-.221.054-.734.101-1.47.143-2.204.02-.32.042-.639.057-.959.003-.051.003-.1.007-.15.037-.755.065-1.512.089-2.27.012-.322.026-.644.034-.966l.001-.071c.027-1.102.044-2.203.044-3.306s-.017-2.204-.044-3.306l-.001-.072c-.008-.323-.022-.645-.034-.967-.024-.758-.052-1.515-.089-2.27-.003-.048-.003-.098-.007-.147-.016-.314-.037-.628-.056-.942-.043-.744-.09-1.488-.145-2.23l-.013-.213c-.021-.26-.043-.519-.066-.779a142.221 142.221 0 0 0-.238-2.617c-.017-.172-.029-.349-.048-.522h3.555c7.757 0 14.066 6.309 14.066 14.066s-6.311 14.065-14.068 14.065z"/><path d="M373.776 244.148a8.439 8.439 0 0 0-8.12 8.747c.038 1.031.059 2.066.059 3.106 0 24.889-11.151 48.103-30.598 63.691-14.595 11.705-32.224 17.892-50.984 17.892-18.758 0-36.389-6.187-50.986-17.894-19.445-15.587-30.597-38.801-30.597-63.69 0-24.889 11.151-48.102 30.599-63.691 14.595-11.704 32.226-17.892 50.984-17.892 14.91 0 29.492 4.057 42.171 11.731a8.438 8.438 0 0 0 11.59-2.85 8.438 8.438 0 0 0-2.849-11.59c-15.315-9.268-32.921-14.169-50.912-14.169-22.316 0-44.174 7.672-61.541 21.602-23.463 18.807-36.92 46.822-36.92 76.86s13.457 58.053 36.918 76.857c17.37 13.932 39.227 21.604 61.544 21.604 22.318 0 44.174-7.672 61.541-21.603 23.464-18.806 36.92-46.82 36.92-76.859 0-1.25-.024-2.497-.071-3.734a8.42 8.42 0 0 0-8.748-8.118z"/><path d="M284.133 202.55a8.44 8.44 0 0 0-8.44 8.44v56.264a8.44 8.44 0 0 0 8.44 8.44h33.758a8.44 8.44 0 0 0 0-16.88h-25.319V210.99a8.439 8.439 0 0 0-8.439-8.44z"/></svg>