<svg xmlns="http://www.w3.org/2000/svg" viewBox="0 0 512 512"><path d="M454.926 256.2a1168.206 1168.206 0 0 1-40.715-9.812h-.001c-43.504-11.357-84.825-25.098-122.815-40.839-38.51-15.954-63.98-26.069-75.757-30.09l-32.731-21.821a8.411 8.411 0 0 0-10.616 1.052c-11.312 11.311-16.261 23.062-14.711 34.93 1.522 11.655 9.039 20.548 16.049 26.476-12.897 8.513-28.597 12.996-49.421 14.284h-.002c-4.157.25-8.623.377-13.277.377-20.297 0-35.955-4.961-44.092-13.971-5.01-5.545-7.118-12.614-6.26-21.006a13.714 13.714 0 0 0-6.826-13.291c-4.725-2.699-10.385-2.373-14.77.856-27.713 20.39-41.097 50.239-38.707 86.321v.013c1.598 24.15 9.749 43.863 12.491 49.901v22.522c0 9.744 7.925 17.67 17.67 17.67h439.496c23.198 0 42.07-18.872 42.07-42.07-.001-31.938-19.738-53.205-57.075-61.502zm-242.997-56.16c.462-.721.92-1.451 1.375-2.19.233-.378.467-.756.698-1.141.531-.882 1.055-1.779 1.571-2.688.117-.202.237-.396.352-.599 13.109 4.816 36.251 14.094 69.028 27.672 34.336 14.228 71.322 26.844 110.13 37.576-.039.016-.079.03-.119.045-.453.165-.917.319-1.388.459-.078.024-.162.045-.241.068a28.11 28.11 0 0 1-1.365.356l-.181.044c-.5.113-1.01.213-1.525.305-.095.017-.192.031-.287.048a38.83 38.83 0 0 1-3.494.418c-.553.042-1.112.072-1.674.094-.058.002-.117.002-.175.005-.567.021-1.136.033-1.709.033h-.043a58.1 58.1 0 0 1-1.767-.028l-.203-.007a67.061 67.061 0 0 1-3.599-.22c-.037-.003-.075-.008-.113-.01a78.87 78.87 0 0 1-1.819-.186l-.062-.007a85.767 85.767 0 0 1-3.656-.499c-.025-.003-.048-.009-.073-.011-11.04-1.753-20.696-5.311-21.92-5.775l-.015-.005c-.06-.022-.1-.039-.112-.044l-138.014-53.079c.136-.205.266-.423.4-.634zm-32.258-28.334l21.199 14.132c-.099.174-.197.347-.297.517-.517.891-1.039 1.768-1.568 2.63-.145.237-.288.478-.435.712a112.373 112.373 0 0 1-1.997 3.087c-.141.211-.285.414-.426.622a98.889 98.889 0 0 1-1.681 2.391c-.193.266-.386.534-.58.794a88.882 88.882 0 0 1-2.104 2.746l-.018.024-.003.004-.001.002a86.579 86.579 0 0 1-2.368 2.834c-.27.312-.551.607-.826.912-.537.6-1.075 1.2-1.625 1.779-.055.058-.113.112-.167.171-6.103-4.602-11.627-10.9-12.507-17.624-.644-4.92 1.171-10.194 5.404-15.733zM43.595 201.158c.387 10.278 4.041 19.478 10.752 26.908 10.207 11.301 26.707 17.886 48.03 19.254-.126.044-.259.085-.387.129-.427.146-.857.286-1.297.414-.219.064-.442.123-.665.183-.415.11-.837.213-1.264.307-.224.048-.448.099-.677.145-.491.099-.992.184-1.499.26-.164.024-.324.057-.491.079-.677.094-1.368.171-2.073.228-.162.015-.329.02-.491.03-.553.039-1.113.071-1.684.089-.249.008-.501.01-.754.015a50.44 50.44 0 0 1-1.555-.002 26.434 26.434 0 0 1-.793-.017 59.843 59.843 0 0 1-1.756-.084c-.213-.016-.423-.024-.638-.039a71.93 71.93 0 0 1-2.484-.229c-.15-.018-.305-.04-.457-.058a78.235 78.235 0 0 1-2.136-.283c-.292-.044-.589-.092-.884-.138a96.814 96.814 0 0 1-4.823-.894c-.285-.061-.563-.116-.85-.178a125.3 125.3 0 0 1-2.934-.678c-.127-.031-.263-.067-.393-.1a152.56 152.56 0 0 1-2.678-.691c-.344-.092-.696-.191-1.043-.287a158.929 158.929 0 0 1-3.348-.959c-.757-.225-1.527-.46-2.305-.701-.356-.111-.706-.216-1.065-.331a223.765 223.765 0 0 1-3.458-1.122c-.58-.193-1.16-.372-1.742-.541-.191-.055-.381-.101-.572-.154-.391-.108-.78-.214-1.17-.31-.23-.056-.458-.104-.688-.157a34.877 34.877 0 0 0-1.056-.232c-.246-.05-.492-.092-.738-.138a44.993 44.993 0 0 0-1.005-.175c-.255-.04-.509-.075-.763-.11-.329-.046-.655-.09-.982-.129a50.726 50.726 0 0 0-2.542-.21 36.801 36.801 0 0 0-.941-.037 36.03 36.03 0 0 0-.808-.018c-.125-.001-.25-.008-.375-.008-.184 0-.367.009-.55.011-.278.005-.558.009-.835.019-.305.009-.609.026-.913.044-.28.016-.561.03-.839.053-.304.024-.607.055-.91.085-.278.027-.558.053-.837.086-.302.037-.605.082-.908.126-.279.039-.558.076-.837.122-.301.048-.599.108-.899.164-.28.053-.561.101-.841.159-.303.064-.605.136-.908.208-.274.063-.547.121-.821.19-.329.083-.657.177-.986.267-.505.14-1.009.291-1.515.449-.299.094-.598.184-.897.287-.287.096-.573.204-.86.307-.285.102-.568.201-.85.31-.289.111-.577.23-.864.348-.281.113-.561.224-.84.346-.288.122-.576.255-.862.384-.278.126-.556.25-.835.381-.285.136-.57.278-.855.418-.276.138-.554.276-.832.421-.283.147-.565.301-.846.453a77.6 77.6 0 0 0-.835.459c-.278.159-.555.321-.832.486a55.937 55.937 0 0 0-1.663 1.018 68.708 68.708 0 0 0-1.646 1.088c-.13.09-.261.173-.392.263 2.542-19.241 11.237-35.312 25.99-47.983zm276.75 124.958H493.73c-3.472 9.794-12.83 16.828-23.801 16.828H30.432a.842.842 0 0 1-.841-.841v-15.987h248.87a8.413 8.413 0 0 0 8.414-8.414 8.413 8.413 0 0 0-8.414-8.414H26.653c-2.822-6.9-7.734-20.828-9.319-37.373.024-.025.047-.055.072-.082.215-.245.432-.466.647-.702.521-.572 1.04-1.144 1.562-1.679.28-.291.561-.554.841-.832.458-.456.915-.912 1.377-1.343.305-.285.613-.549.918-.822.436-.388.872-.779 1.308-1.144.32-.267.639-.515.958-.77.424-.338.849-.675 1.272-.988.329-.243.657-.471.986-.7.418-.291.835-.58 1.252-.849.334-.215.67-.418 1.005-.62.412-.249.826-.491 1.24-.719a33.982 33.982 0 0 1 2.25-1.131 29.034 29.034 0 0 1 2.257-.921c.342-.122.683-.243 1.025-.352a26.81 26.81 0 0 1 1.236-.357c.343-.091.684-.182 1.025-.259.415-.093.83-.167 1.243-.24.342-.059.681-.12 1.021-.166a25.7 25.7 0 0 1 1.258-.12c.335-.026.673-.062 1.01-.072.426-.017.855-.009 1.282-.002.329.004.657 0 .986.018.444.024.89.076 1.336.127.309.033.62.053.931.099.492.073.986.18 1.479.283.263.055.526.092.789.157.756.182 1.513.396 2.267.647.881.293 1.764.582 2.649.867l.763.241c.628.201 1.257.399 1.887.595.338.104.678.205 1.014.306.553.167 1.105.337 1.659.5.363.107.726.209 1.092.312.528.153 1.056.305 1.587.453.38.105.763.208 1.145.31.515.14 1.028.278 1.543.414a294.222 294.222 0 0 0 2.687.67c.407.1.818.192 1.226.287.488.112.976.223 1.465.332.416.091.832.177 1.25.264.479.099.958.2 1.437.294a186.653 186.653 0 0 0 2.69.494c.423.071.844.138 1.264.205.473.073.945.147 1.416.213.425.062.849.118 1.273.172.467.061.931.117 1.396.169.427.05.853.094 1.278.136a81.412 81.412 0 0 0 2.658.221c.458.03.912.055 1.368.076.425.022.85.039 1.271.052.454.015.908.021 1.359.027.421.006.844.009 1.262.006.45-.003.899-.015 1.345-.027.418-.011.837-.022 1.253-.042.444-.022.89-.053 1.333-.083.414-.028.828-.057 1.239-.094.444-.042.884-.092 1.325-.143.407-.048.816-.092 1.221-.149.441-.061.878-.134 1.316-.206.401-.066.802-.127 1.199-.202.44-.083.874-.182 1.31-.276.392-.083.782-.164 1.17-.257.443-.107.881-.231 1.319-.351.375-.103.753-.197 1.126-.309.449-.136.893-.291 1.338-.44.356-.12.715-.231 1.069-.358.478-.175.951-.371 1.426-.563.311-.127.627-.241.938-.375a42.27 42.27 0 0 0 2.709-1.295 42.701 42.701 0 0 0 1.874-1.019c.282-.164.556-.35.836-.522.463-.286.93-.567 1.388-.874.307-.205.609-.432.913-.648.422-.3.846-.591 1.262-.91.311-.239.617-.497.927-.747.399-.322.799-.639 1.193-.981.311-.268.616-.56.924-.841.38-.348.763-.691 1.138-1.059.306-.301.609-.62.912-.933.365-.377.729-.752 1.089-1.147.301-.331.596-.68.892-1.024.351-.407.703-.818 1.048-1.244.292-.359.577-.735.863-1.11.229-.3.464-.58.69-.886 27.18-2.287 47.584-10.211 63.963-24.782a93.755 93.755 0 0 0 2.695-2.503c.199-.191.397-.38.593-.573a99.3 99.3 0 0 0 2.575-2.611c.12-.126.237-.256.354-.383.439-.467.876-.933 1.308-1.411l142.519 54.808c.039.017.099.039.168.067l.038.016.192.074c.04.016.083.031.129.048.057.024.116.046.181.071l.188.072.243.09c.061.024.116.046.181.07.154.056.314.117.489.18.066.025.139.05.208.075l.374.134.269.096.401.14.276.096c.158.056.32.112.488.168.09.03.176.062.268.092.191.064.389.13.59.199.081.027.158.054.239.08.276.091.561.184.856.279.096.031.197.065.296.095.212.068.427.137.648.206.121.038.245.076.368.116l.646.2.39.119.719.214.362.108c.333.099.673.195 1.019.295.037.011.073.024.112.031.384.11.775.219 1.175.329.117.031.234.064.352.094.291.081.583.159.882.237.143.039.287.075.432.113a109.464 109.464 0 0 0 1.313.335c.321.081.647.162.976.24.12.029.239.059.36.087.456.108.918.217 1.387.323l.082.019a142.541 142.541 0 0 0 1.731.377c.348.073.699.147 1.053.219l.466.092c.352.071.707.138 1.064.206l.448.083a97.107 97.107 0 0 0 1.512.269c.525.09 1.052.176 1.585.259l.223.034c.444.07.892.136 1.343.197.149.022.301.042.451.063.386.053.772.104 1.161.153.164.021.325.04.49.062.403.048.808.094 1.215.138l.409.044c1.098.114 2.206.21 3.321.285.113.008.227.013.34.02a83.364 83.364 0 0 0 1.801.094c.403.018.808.03 1.212.043l.499.012c.435.009.872.013 1.308.016l.279.002h.063c.826 0 1.654-.018 2.478-.046l.312-.011a69.79 69.79 0 0 0 2.425-.142l.335-.026a58.528 58.528 0 0 0 5.352-.69 47.487 47.487 0 0 0 5.008-1.169c.046-.015.092-.025.138-.039.784-.232 1.558-.49 2.323-.768.09-.031.18-.062.268-.096.742-.273 1.473-.57 2.193-.89l.314-.138a36.17 36.17 0 0 0 2.101-1.034c.101-.053.2-.109.3-.164a33.021 33.021 0 0 0 2.043-1.204c.076-.052.153-.104.23-.154a32.74 32.74 0 0 0 2.017-1.421l.094-.076a31.952 31.952 0 0 0 1.941-1.63l.086-.075a31.688 31.688 0 0 0 1.786-1.787c.07-.075.141-.148.211-.224.393-.433.781-.874 1.156-1.335a1186.764 1186.764 0 0 0 35.486 8.452c25.881 5.753 40.108 17.783 43.234 36.663H320.34c-4.648 0-8.414 3.767-8.414 8.414s3.772 8.408 8.419 8.408z"/></svg>