<svg xmlns="http://www.w3.org/2000/svg" viewBox="0 0 512.002 512.002"><path d="M431.259 315.038s-2.245-13.914-5.707-35.013c-.002-.015-.008-.029-.01-.044-6.774-41.283-18.186-110.007-26.506-155.777-.801-4.405-5.025-7.336-9.426-6.527a8.107 8.107 0 0 0-6.527 9.427c7.814 42.99 18.371 106.327 25.225 147.997l-40.674 9.105-22.576-93.888c.066-.384.129-.77.195-1.155.177-1.031.36-2.058.541-3.086.424-2.413.855-4.818 1.295-7.217.146-.795.29-1.59.437-2.383.264-1.417.531-2.829.799-4.241l.453-2.374c.271-1.412.544-2.821.818-4.226l.442-2.247c.895-4.54 1.803-9.034 2.716-13.474l.681-3.312.641-3.09.844-4.055.499-2.391c.416-1.99.833-3.977 1.249-5.954l.043-.208.144-.683.896-4.271.534-2.553.497-2.383c.224-1.07.443-2.129.662-3.184l.324-1.565c.257-1.241.509-2.471.76-3.692l.146-.715c3.677-17.958 6.616-33.693 7.961-46.913 2.681 7.133 5.34 15.973 7.667 26.886a632.777 632.777 0 0 1 1.758 8.593 8.107 8.107 0 1 0 15.906-3.15 636.864 636.864 0 0 0-1.806-8.823c-9.366-43.946-24.358-59.256-29.425-63.329a20.22 20.22 0 0 0-6.134-5.046C321.811 1.44 311.776 0 301.348 0a8 8 0 0 0-.877.048c-.119.013-.235.04-.351.057-.169.026-.339.047-.507.083-.158.035-.312.085-.468.129-.122.035-.246.062-.366.102-.152.051-.299.117-.45.177-.118.048-.238.088-.353.139-.169.077-.329.169-.491.257-.09.049-.184.091-.272.143-.173.103-.338.221-.504.336-.071.05-.146.093-.216.145-.171.128-.332.27-.493.411-.057.05-.119.094-.175.146-.16.149-.309.312-.458.475-.048.053-.102.099-.148.154l-.002.003-.01.01c-.011.012-.017.026-.027.038-.236.277-.445.57-.639.871a8.024 8.024 0 0 0-.653 1.214c-.014.034-.024.068-.038.102a7.95 7.95 0 0 0-.323.971 8.203 8.203 0 0 0-.249 1.341c0 .008-.003.014-.003.022a7.161 7.161 0 0 1-.642.461c-.088.056-.186.114-.281.171-.195.117-.402.235-.629.355-.117.062-.243.124-.369.187-.239.119-.492.24-.761.361-.144.065-.294.13-.446.196a30.803 30.803 0 0 1-1.395.559c-.36.135-.739.27-1.135.405l-.419.143c-.45.148-.923.296-1.415.443l-.399.12c-.526.154-1.081.304-1.654.454-.144.038-.285.076-.431.112-.589.15-1.204.296-1.839.441l-.453.103c-.652.144-1.33.284-2.028.421l-.47.091a90.592 90.592 0 0 1-2.69.469c-.784.125-1.589.245-2.419.358-.155.022-.31.041-.466.062-.853.112-1.729.217-2.629.315l-.439.045c-.926.096-1.876.185-2.851.264-.13.011-.264.019-.395.029-1.005.078-2.032.147-3.087.203l-.32.015c-1.093.056-2.207.101-3.351.131l-.201.004a141.177 141.177 0 0 1-7.324 0l-.196-.004a134.99 134.99 0 0 1-3.366-.132l-.302-.014a122.82 122.82 0 0 1-3.106-.204l-.376-.028a123.23 123.23 0 0 1-2.874-.266l-.411-.042c-.912-.098-1.798-.205-2.661-.319l-.428-.057c-.844-.115-1.664-.237-2.46-.364-.143-.023-.285-.045-.427-.069a97.963 97.963 0 0 1-2.681-.482 85.017 85.017 0 0 1-2.473-.521 79.52 79.52 0 0 1-1.903-.456c-.123-.031-.243-.064-.364-.095a66.938 66.938 0 0 1-1.721-.472l-.323-.097a51.728 51.728 0 0 1-1.544-.484l-.29-.099c-.441-.15-.863-.3-1.26-.451l-.343-.132a31.827 31.827 0 0 1-1.029-.422l-.347-.151a21.29 21.29 0 0 1-.842-.4c-.098-.05-.201-.099-.294-.148a14.49 14.49 0 0 1-.69-.389c-.085-.051-.173-.103-.252-.152a7.465 7.465 0 0 1-.516-.361c-.047-.036-.093-.071-.135-.106l-.005-.032a8.198 8.198 0 0 0-.256-1.335 8 8 0 0 0-.328-.965c-.014-.034-.024-.068-.038-.102a8.473 8.473 0 0 0-.657-1.214 8.242 8.242 0 0 0-.639-.868c-.011-.012-.018-.027-.028-.039l-.01-.01-.002-.003c-.05-.058-.107-.108-.159-.164-.146-.159-.291-.318-.448-.463-.092-.085-.192-.16-.289-.24-.127-.107-.249-.218-.382-.317-.121-.09-.251-.168-.377-.251-.116-.077-.227-.159-.346-.229-.149-.089-.307-.162-.462-.241-.103-.052-.202-.112-.307-.16-.158-.071-.321-.128-.482-.189-.109-.041-.215-.091-.326-.128-.154-.051-.311-.086-.467-.129-.124-.034-.246-.075-.372-.102-.186-.041-.376-.065-.565-.092-.099-.014-.197-.037-.296-.049a6.922 6.922 0 0 0-.878-.053c-10.379 0-20.414 1.44-55.2 20.075a20.232 20.232 0 0 0-6.132 5.044c-5.065 4.07-20.06 19.378-29.427 63.333-7.441 34.908-24.448 137.082-33.382 191.516-.003.019-.01.039-.013.058-3.461 21.099-5.707 35.013-5.707 35.013a8.11 8.11 0 0 0 6.233 9.204l53.362 11.947a8.112 8.112 0 0 0 3.133.084 8.111 8.111 0 0 0 6.521-6.099l22.956-95.468c2.676 28.803 2.429 56.768-3.656 80.832-26.546 104.972-.966 187.361.136 190.818a8.107 8.107 0 0 0 7.725 5.645h26.689a8.107 8.107 0 0 0 8.108-8.108 8.107 8.107 0 0 0-8.108-8.108h-20.517c-5.106-20.063-19.833-91.174 1.687-176.272 9.771-38.643 5.745-85.361-1.783-130.143-.006-.045-.009-.091-.016-.136-.061-.36-.125-.716-.186-1.075a884.167 884.167 0 0 0-.931-5.375c-.127-.718-.251-1.438-.378-2.153a975.367 975.367 0 0 0-1.159-6.367c-.197-1.065-.398-2.124-.597-3.185a1302.535 1302.535 0 0 0-1.38-7.222 904.463 904.463 0 0 0-.729-3.712c-.211-1.066-.419-2.134-.631-3.195a1640.475 1640.475 0 0 0-1.802-8.899c-.31-1.516-.621-3.028-.931-4.531l-.534-2.579c-.344-1.655-.686-3.299-1.028-4.936l-.376-1.803c-.455-2.176-.909-4.338-1.358-6.479a28.896 28.896 0 0 1-.027-.13l-.503-2.397-.29-1.382c-4.719-22.516-9.363-45.139-10.994-62.164-.004-.042-.009-.085-.012-.128-.05-.519-.09-1.02-.133-1.53-1.026-12.594.023-19.069 1.38-22.385.32-.744.676-1.419 1.089-1.988.012-.016.021-.034.032-.051.486-.643.953-1.005 1.325-1.204 23.329-12.499 34.033-16.389 40.544-17.602 2.98 17.498 13.709 60.255 48.825 77.47a8.107 8.107 0 0 0 7.14 0c35.118-17.215 45.847-59.977 48.826-77.473 6.495 1.21 17.196 5.097 40.543 17.605.371.198.836.558 1.321 1.199.013.018.024.038.037.055.413.569.769 1.243 1.089 1.988 1.359 3.315 2.406 9.791 1.38 22.385-.044.508-.083 1.01-.133 1.53-.003.042-.009.085-.012.128-1.632 17.025-6.275 39.65-10.994 62.164l-.29 1.382-.503 2.397-.027.13c-.45 2.14-.903 4.302-1.358 6.479l-.376 1.803c-.342 1.637-.684 3.281-1.028 4.936-.178.859-.357 1.718-.534 2.579-.31 1.503-.62 3.015-.931 4.531l-.526 2.571c-.427 2.098-.852 4.208-1.276 6.328-.212 1.062-.421 2.13-.631 3.195a1287.03 1287.03 0 0 0-2.109 10.934c-.2 1.06-.4 2.12-.597 3.185-.392 2.117-.778 4.239-1.159 6.367-.128.716-.252 1.436-.378 2.153a884.167 884.167 0 0 0-.931 5.375c-.061.36-.125.715-.186 1.075-.008.045-.009.091-.016.136-7.527 44.782-11.554 91.5-1.783 130.143 21.521 85.104 6.79 156.219 1.688 176.272h-96.73a8.107 8.107 0 0 0-8.108 8.108 8.107 8.107 0 0 0 8.108 8.108h102.903a8.106 8.106 0 0 0 7.725-5.645c1.103-3.456 26.682-85.845.136-190.818-6.085-24.065-6.331-52.029-3.656-80.832l14.678 61.041.002.011 8.276 34.417a8.11 8.11 0 0 0 7.875 6.214c.587 0 1.183-.065 1.779-.199l53.362-11.947a8.112 8.112 0 0 0 6.234-9.205zm-295.165 3.584l-38.12-8.535c.744-4.575 1.801-11.068 3.093-18.961l39.511 8.846-4.484 18.65zm23.138-168.806c.922 4.488 1.84 9.031 2.746 13.622l.431 2.188a997.046 997.046 0 0 1 1.271 6.605c.268 1.413.536 2.828.8 4.247.147.789.291 1.583.436 2.375.44 2.4.872 4.808 1.296 7.222.181 1.028.362 2.055.54 3.086.066.384.129.77.195 1.155l-22.578 93.889-40.673-9.105c9.165-55.71 24.957-150.186 32.008-183.267 2.326-10.913 4.986-19.756 7.667-26.888 1.348 13.251 4.297 29.03 7.985 47.039l.086.424c.271 1.323.546 2.658.825 4.005l.219 1.058.777 3.736.222 1.06c.592 2.834 1.193 5.705 1.809 8.637l.536 2.559.707 3.372.599 2.867.769 3.69.679 3.274.648 3.15zm96.769-72.063c-19.885-11.731-29.354-34.826-33.741-51.345 1.448.419 2.926.795 4.417 1.134 8.641 2.007 18.568 2.923 27.989 3.002a113.792 113.792 0 0 0 2.67 0c9.402-.079 19.307-.991 27.936-2.99a78.57 78.57 0 0 0 4.47-1.146c-4.386 16.519-13.856 39.614-33.741 51.345zm119.907 240.87l-4.484-18.651 39.512-8.846c1.292 7.896 2.349 14.386 3.092 18.961l-38.12 8.536z"/></svg>