<svg xmlns="http://www.w3.org/2000/svg" viewBox="0 0 512 512"><path d="M397.284 503.097c-10.189-98.996-30.467-183.81-57.459-241.013h33.483a8.075 8.075 0 0 0 8.076-8.076V72.13c0-1.491-.729-36.478-63.474-53.033l-28.268-17.85a8.165 8.165 0 0 0-.898-.481c-.084-.04-.169-.075-.254-.112a7.626 7.626 0 0 0-.782-.286c-.062-.019-.124-.043-.187-.06a7.687 7.687 0 0 0-.997-.213c-.064-.01-.127-.014-.191-.022a7.843 7.843 0 0 0-.867-.061c-.045-.003-.09-.012-.136-.012h-58.661c-.046 0-.091.009-.138.01-.29.005-.578.025-.866.061-.064.008-.128.012-.192.023a8.23 8.23 0 0 0-.995.213c-.066.018-.129.043-.194.062-.263.081-.52.177-.774.284-.087.037-.173.073-.258.113a8.138 8.138 0 0 0-.896.481l-28.265 17.849c-62.746 16.553-63.475 51.541-63.475 53.033v181.879a8.075 8.075 0 0 0 8.076 8.076h33.483c-26.992 57.206-47.27 142.02-57.459 241.013a8.078 8.078 0 0 0 8.033 8.903h54.713a8.075 8.075 0 0 0 8.076-8.076 8.075 8.075 0 0 0-8.076-8.076H131.73c10.73-97.51 31.332-179.98 58.4-233.764h131.74c27.069 53.779 47.669 136.251 58.399 233.764H204.383a8.075 8.075 0 0 0-8.076 8.076 8.075 8.075 0 0 0 8.076 8.076H389.25a8.079 8.079 0 0 0 8.034-8.903zM288.035 19.335l12.682 8.009 3.094 1.953-24.603 42.992-13.318-15.658 22.145-37.296zm-16.894-3.184L256 41.651l-15.143-25.5h30.284zm-56.33 8.966l9.154-5.781 22.147 37.296-13.317 15.658-24.603-42.993 6.619-4.18zm108.717 72.124a8.075 8.075 0 0 0-8.076 8.076v101.515h-15.238a8.075 8.075 0 0 0-8.076 8.076 8.075 8.075 0 0 0 8.076 8.076h15.238v22.95H197.189v-22.95h75.031a8.075 8.075 0 0 0 8.076-8.076 8.075 8.075 0 0 0-8.076-8.076h-75.672V105.317c0-4.461-3.615-8.076-8.076-8.076s-8.076 3.615-8.076 8.076v140.617H146.77V72.272c.087-1.074 2.492-23.125 46.679-36.22l31.038 54.239a8.072 8.072 0 0 0 13.159 1.22l10.279-12.084v51.617c0 4.461 3.615 8.076 8.076 8.076s8.076-3.615 8.076-8.076V79.427l10.279 12.084a8.074 8.074 0 0 0 13.159-1.22l31.038-54.239c44.187 13.096 46.592 35.146 46.679 36.22v173.661h-33.627V105.317a8.077 8.077 0 0 0-8.077-8.076z"/></svg>