<svg xmlns="http://www.w3.org/2000/svg" viewBox="0 0 512.002 512.002"><path d="M480.451 473.852a1021.451 1021.451 0 0 0 2.214-67.15c0-97.59-14.169-192.201-39.843-271.192a7.81 7.81 0 0 0-.251-.973c-6.259-19.098-13.18-37.212-20.67-54.155l-.272-.614a513.23 513.23 0 0 0-3.778-8.317c-.137-.294-.275-.584-.412-.877a470.937 470.937 0 0 0-3.842-8.022c-.11-.223-.221-.442-.33-.664a449.301 449.301 0 0 0-3.569-7.08V21.297C409.698 9.554 400.143 0 388.399 0h-28.374a8.066 8.066 0 0 0-8.067 8.067 8.066 8.066 0 0 0 8.067 8.067h28.374a5.17 5.17 0 0 1 5.164 5.163v28.145H118.442V21.297a5.17 5.17 0 0 1 5.163-5.163h208.813a8.066 8.066 0 0 0 8.067-8.067A8.066 8.066 0 0 0 332.418 0H123.605c-11.744 0-21.297 9.554-21.297 21.297v33.511a455.603 455.603 0 0 0-3.595 7.13l-.295.593a470.24 470.24 0 0 0-3.884 8.111c-.12.257-.242.512-.361.77a495.262 495.262 0 0 0-3.828 8.428l-.216.487c-7.499 16.956-14.428 35.09-20.696 54.212a8.374 8.374 0 0 0-.253.985c-25.671 78.99-39.84 173.594-39.84 271.18 0 22.441.748 45.019 2.214 67.149-3.565 3.798-5.766 8.89-5.766 14.498v2.428c0 11.703 9.52 21.223 21.222 21.223h417.983c11.703 0 21.222-9.521 21.222-21.223v-2.428c.002-5.609-2.2-10.701-5.764-14.499zM397.083 65.577a444.367 444.367 0 0 1 3.841 7.821c.428.893.848 1.804 1.274 2.704.835 1.767 1.666 3.54 2.486 5.333.481 1.052.954 2.118 1.43 3.18a487.925 487.925 0 0 1 2.275 5.142c.459 1.057.915 2.123 1.37 3.19a571.696 571.696 0 0 1 3.482 8.359 565.763 565.763 0 0 1 2.635 6.614c.24.613.482 1.223.721 1.839a582.894 582.894 0 0 1 6.826 18.59c-18.538-1.975-33.147-8.529-43.524-19.553-13.395-14.229-16.884-32.931-17.759-43.219h34.943zm-301.647 44.11c.212-.546.427-1.087.64-1.632a486.95 486.95 0 0 1 3.829-9.531 535.61 535.61 0 0 1 3.709-8.761 489.44 489.44 0 0 1 2.278-5.15c.477-1.063.95-2.13 1.431-3.182a467.025 467.025 0 0 1 2.479-5.319c.427-.905.85-1.822 1.28-2.719a454.718 454.718 0 0 1 3.84-7.818h34.97v.001c-.84 10.231-4.282 28.8-17.685 43.111-10.384 11.089-25.026 17.677-43.623 19.659a583.888 583.888 0 0 1 6.852-18.659zm369.559 386.179H47.012a5.094 5.094 0 0 1-5.088-5.089v-2.428a5.095 5.095 0 0 1 5.088-5.089h67.412a8.066 8.066 0 0 0 8.067-8.067 8.066 8.066 0 0 0-8.067-8.067h-67.13a1006.917 1006.917 0 0 1-1.817-60.423c0-94.157 13.358-185.332 37.604-261.761 25.93-1.278 46.404-9.743 60.903-25.225 17.237-18.405 21.238-41.772 22.088-54.14h179.862c.85 12.368 4.851 35.736 22.088 54.141 14.498 15.482 34.973 23.947 60.903 25.225 24.247 76.43 37.605 167.603 37.605 261.76 0 20.164-.613 40.451-1.817 60.423h-323.4a8.066 8.066 0 0 0-8.067 8.067 8.066 8.066 0 0 0 8.067 8.067h323.68a5.095 5.095 0 0 1 5.088 5.089v2.427h.001a5.094 5.094 0 0 1-5.087 5.09z"/></svg>