<svg xmlns="http://www.w3.org/2000/svg" viewBox="0 0 512 512"><path d="M336.816 231.121c2.651-3.661 4.234-8.146 4.234-13.001v-20.411a8.097 8.097 0 0 0-3.882-6.913L358.43 59.131a8.23 8.23 0 0 0 .104-1.293V8.112A8.11 8.11 0 0 0 350.422 0h-42.456a8.11 8.11 0 0 0-8.112 8.112v4.49l-.032.023c-.225.146-.486.297-.774.451-.037.019-.071.039-.109.058-.293.153-.62.308-.975.466l-.153.068a26.56 26.56 0 0 1-1.372.553 38.863 38.863 0 0 1-1.601.558 50.09 50.09 0 0 1-1.838.559c-.551.158-1.129.314-1.735.468l-.33.083c-.617.155-1.259.306-1.93.456l-.358.079a93.944 93.944 0 0 1-4.843.926c-.128.022-.257.042-.386.063-.824.134-1.673.264-2.554.387l-.375.051c-.901.123-1.826.242-2.783.353l-.355.039c-.979.11-1.983.214-3.018.309l-.326.028c-1.06.094-2.145.181-3.262.257-.09.007-.183.011-.274.017-1.147.076-2.319.143-3.525.197l-.202.008c-1.237.054-2.503.097-3.802.127l-.114.002c-1.334.029-2.696.045-4.094.045h-5.472c-1.397 0-2.76-.016-4.094-.045l-.114-.002a178.268 178.268 0 0 1-3.802-.127l-.202-.008a165.003 165.003 0 0 1-3.534-.197l-.261-.016a147.55 147.55 0 0 1-3.289-.26l-.292-.025c-1.047-.095-2.062-.2-3.05-.313-.107-.012-.216-.023-.322-.036-.97-.111-1.909-.231-2.822-.357l-.331-.045a119.125 119.125 0 0 1-2.932-.448 98.79 98.79 0 0 1-4.903-.939l-.296-.065a81.547 81.547 0 0 1-1.987-.471c-.092-.023-.184-.045-.274-.069-.624-.159-1.22-.32-1.786-.482l-.242-.069a53.073 53.073 0 0 1-1.59-.49l-.206-.068a38.07 38.07 0 0 1-1.39-.49l-.175-.067a28.53 28.53 0 0 1-1.191-.485l-.132-.058a17.67 17.67 0 0 1-.99-.474l-.101-.053a10.657 10.657 0 0 1-.78-.454l-.032-.022v-4.49a8.11 8.11 0 0 0-8.112-8.112h-42.456a8.11 8.11 0 0 0-8.112 8.112v49.726c0 .433.035.866.104 1.293l21.264 131.665a8.1 8.1 0 0 0-3.882 6.913v20.411c0 4.855 1.582 9.339 4.232 13-28.686 49.238-45.055 121.618-45.055 199.984 0 25.133 1.716 50.003 5.098 73.92a8.113 8.113 0 0 0 8.032 6.977h225.487a8.112 8.112 0 0 0 8.032-6.977c3.382-23.916 5.098-48.786 5.098-73.92 0-78.363-16.369-150.741-45.056-199.979zM212.146 30.236c.532.178 1.075.349 1.621.516l.528.158c.575.171 1.156.336 1.746.494l.294.079c.599.158 1.205.308 1.815.454l.53.127c.633.147 1.27.29 1.911.425.158.034.317.065.475.097a104.69 104.69 0 0 0 4.112.762l.532.087c.67.108 1.34.213 2.01.309l.237.034a140.478 140.478 0 0 0 4.331.552l.451.049c.604.066 1.204.129 1.8.187l.279.028c.659.064 1.31.121 1.956.176l.459.038c.641.053 1.277.103 1.904.147l.233.016c.582.041 1.156.079 1.722.112l.369.023c.599.036 1.188.067 1.766.096l.376.018c.547.026 1.086.051 1.611.073l.146.006c.56.023 1.102.041 1.633.057l.348.011a236.814 236.814 0 0 0 1.724.044c.451.01.887.018 1.308.024l.203.003c.449.006.876.011 1.286.014l.251.001c.403.002.794.004 1.155.004h5.469v.001c.361 0 .752-.001 1.155-.004l.251-.001a213.976 213.976 0 0 0 4.521-.085l.347-.011c.531-.017 1.073-.036 1.633-.057l.146-.006c.525-.022 1.063-.045 1.611-.072.125-.007.25-.012.376-.018.579-.029 1.167-.061 1.766-.096l.367-.023c.567-.035 1.14-.072 1.723-.112l.233-.016c.626-.044 1.262-.094 1.905-.147l.458-.038c.647-.055 1.298-.112 1.958-.176l.276-.028c.597-.058 1.198-.121 1.803-.187l.449-.049c.655-.074 1.313-.151 1.975-.235l.479-.062c.625-.081 1.251-.166 1.88-.255l.234-.032a127.067 127.067 0 0 0 4.526-.743l.409-.078a96.676 96.676 0 0 0 1.719-.339l.476-.097a88.646 88.646 0 0 0 4.256-1.005l.293-.079a77.8 77.8 0 0 0 1.747-.494c.176-.052.352-.104.527-.158a61.593 61.593 0 0 0 1.622-.516v2.05c0 22.673-18.446 41.119-41.118 41.119h-5.472c-22.672 0-41.118-18.446-41.118-41.119v-2.053zM169.69 57.187V16.224h26.232v16.062c0 31.618 25.723 57.344 57.343 57.344h5.472c31.618 0 57.343-25.724 57.343-57.344V16.224h26.232v40.962l-21.384 132.409h-16.232c-4.481 0-8.112 3.631-8.112 8.112s3.631 8.112 8.112 8.112h20.129v12.299a6.01 6.01 0 0 1-3.378 5.399c-.054.026-.107.053-.162.078a5.963 5.963 0 0 1-.726.278c-.028.009-.058.014-.086.023a5.873 5.873 0 0 1-.88.182 5.89 5.89 0 0 1-.787.057h-125.61a6.05 6.05 0 0 1-.787-.057c-.067-.009-.133-.02-.2-.03a6.244 6.244 0 0 1-.68-.151c-.029-.009-.06-.014-.088-.023a6.103 6.103 0 0 1-.892-.359 6.016 6.016 0 0 1-3.374-5.397V205.82H278.376c4.481 0 8.112-3.631 8.112-8.112s-3.631-8.112-8.112-8.112h-87.303L169.69 57.187zm191.955 438.589h-211.29c-2.658-21.014-4.003-42.733-4.003-64.672 0-74.104 15.798-144.872 42.47-191.173.392.078.791.12 1.187.177.318.045.63.109.952.142.74.075 1.485.112 2.235.112h125.611c.75 0 1.495-.039 2.234-.112.332-.034.654-.098.982-.147.385-.056.774-.096 1.155-.172 26.672 46.303 42.471 117.068 42.471 191.173-.001 21.94-1.347 43.659-4.004 64.672z"/></svg>