<svg xmlns="http://www.w3.org/2000/svg" viewBox="0 0 512 512"><path d="M317.349 201.285v-27.107l24.123-107.977.006-.042c.056-.26.1-.525.13-.793.003-.025.009-.05.012-.074.029-.28.045-.565.045-.854V22.943C341.667 10.293 331.373 0 318.722 0c-12.65 0-22.943 10.293-22.943 22.943v38.648c-.158.421-.286.86-.374 1.316-1.824 9.451-10.147 16.311-19.79 16.311h-39.229c-9.642 0-17.965-6.86-19.791-16.312a7.973 7.973 0 0 0-.371-1.307V22.943C216.223 10.293 205.929 0 193.278 0c-12.652 0-22.945 10.293-22.945 22.943V64.438c0 .287.016.569.045.848.004.039.013.077.017.115.03.254.07.506.124.752.003.015.004.031.008.046l24.122 107.976v27.109c-53.102 35.883-87.231 115.009-87.231 202.992 0 35.551 5.699 70.915 16.481 102.267a8.084 8.084 0 0 0 7.644 5.455h248.911a8.085 8.085 0 0 0 7.645-5.456c4.689-13.635 8.441-28.039 11.152-42.81a8.085 8.085 0 0 0-15.903-2.918c-2.205 12.02-5.137 23.772-8.73 35.014H137.38c-9.035-28.304-13.794-59.823-13.794-91.554 0-83.179 31.665-157.438 80.854-190.099h103.117c49.19 32.661 80.856 106.92 80.856 190.099 0 9.981-.466 20.013-1.382 29.819a8.085 8.085 0 0 0 7.296 8.802c4.441.412 8.386-2.85 8.802-7.297a337.668 337.668 0 0 0 1.452-31.325c.002-87.979-34.128-167.105-87.232-202.988zm-5.403-178.342a6.782 6.782 0 0 1 6.775-6.775c3.737 0 6.777 3.039 6.777 6.775v33.41h-13.551v-33.41zm-125.445 0c0-3.736 3.04-6.775 6.777-6.775s6.777 3.039 6.777 6.775v33.41h-13.553v-33.41zM301.18 198.01h-90.363v-16.64h90.363v16.64zm1.606-32.809H209.21l-20.704-92.68h14.132c5.415 13.572 18.689 22.863 33.747 22.863h39.229c15.06 0 28.333-9.29 33.748-22.863h14.131l-20.707 92.68z"/></svg>