<svg xmlns="http://www.w3.org/2000/svg" viewBox="0 0 512 512"><path d="M507.919 177.208c-3.671-4.698-9.194-7.393-15.157-7.393H380.121v-32.544c0-68.437-55.679-124.117-124.119-124.117-68.438 0-124.117 55.678-124.117 124.117v32.544H19.241c-5.963 0-11.486 2.695-15.159 7.397C.41 181.916-.864 187.93.584 193.71l53.394 213.573.006.036 6.494 25.964 12.749 50.998a19.2 19.2 0 0 0 18.657 14.565h328.234c8.843 0 16.515-5.99 18.656-14.564l8.577-34.309.005-.016 10.659-42.639c.001-.005.001-.011.003-.015l53.398-213.594c1.447-5.784.173-11.795-3.497-16.501zm-367.18 45.398c6.767 0 12.272 5.506 12.272 12.273 0 6.767-5.505 12.273-12.272 12.273s-12.273-5.506-12.273-12.273 5.506-12.273 12.273-12.273zm292.414 217.273h-61.702a8.11 8.11 0 0 0-8.112 8.112 8.11 8.11 0 0 0 8.112 8.112h57.646l-6.062 24.248a2.998 2.998 0 0 1-2.916 2.272H91.884a3 3 0 0 1-2.917-2.276l-6.061-24.245h260.433a8.11 8.11 0 0 0 8.112-8.112 8.11 8.11 0 0 0-8.112-8.112H78.851l-2.277-9.104-4.328-17.311h367.511l-6.604 26.416zM147.49 397.24v-87.617c0-5.337 4.341-9.679 9.678-9.679h197.667c5.337 0 9.678 4.342 9.678 9.679v87.617H147.49zm348.189-207.466l-51.866 207.465h-63.076v-87.617c0-14.283-11.619-25.902-25.901-25.902H157.168c-14.282 0-25.901 11.619-25.901 25.902v87.617H68.19l-51.867-207.47a2.983 2.983 0 0 1 .546-2.574 2.987 2.987 0 0 1 2.372-1.157h112.644v20.304c0 .482.05.952.131 1.411-11.458 3.693-19.773 14.455-19.773 27.125 0 15.713 12.783 28.497 28.497 28.497 15.712 0 28.496-12.783 28.496-28.497 0-13.19-9.008-24.31-21.193-27.544a8.13 8.13 0 0 0 .067-.993v-20.304h142.229a8.11 8.11 0 0 0 8.112-8.112 8.11 8.11 0 0 0-8.112-8.112h-142.23v-32.544c0-59.493 48.401-107.894 107.894-107.894 59.494 0 107.896 48.401 107.896 107.894v32.544h-44.353a8.11 8.11 0 0 0-8.112 8.112 8.11 8.11 0 0 0 8.112 8.112h44.353v20.304c0 .407.04.804.097 1.195-11.822 3.471-20.482 14.411-20.482 27.342 0 15.713 12.783 28.497 28.497 28.497s28.497-12.783 28.497-28.497c0-12.931-8.66-23.87-20.482-27.342.057-.391.097-.788.097-1.195v-20.304h112.642a3.003 3.003 0 0 1 2.914 3.737zm-123.67 32.832c6.767 0 12.273 5.506 12.273 12.273 0 6.767-5.506 12.273-12.273 12.273s-12.273-5.506-12.273-12.273 5.506-12.273 12.273-12.273z"/><path d="M332.104 326.22H211.74c-4.481 0-8.112 3.631-8.112 8.112s3.631 8.112 8.112 8.112h120.364c4.481 0 8.112-3.631 8.112-8.112s-3.631-8.112-8.112-8.112zM185.428 326.22h-3.057c-4.481 0-8.112 3.631-8.112 8.112s3.631 8.112 8.112 8.112h3.057c4.481 0 8.112-3.631 8.112-8.112s-3.631-8.112-8.112-8.112z"/></svg>