<svg xmlns="http://www.w3.org/2000/svg" viewBox="0 0 512 512"><path d="M481.659 214.35l-2.823-9.202-37.88-123.46-.022-.067c-5.236-17.019-19.189-26.531-23.342-29.042l-.157-.093-76.062-43.663c-2.284-1.511-12.41-7.516-29.914-8.629-.361-.024-.723-.05-1.083-.069a82.242 82.242 0 0 0-1.352-.058A84.297 84.297 0 0 0 305.838 0h-99.676a84.35 84.35 0 0 0-3.187.067c-.456.016-.905.036-1.352.058-.36.019-.722.044-1.082.069-17.505 1.112-27.632 7.117-29.915 8.629L94.565 52.487c-.052.03-.105.06-.156.092-4.154 2.51-18.108 12.019-23.345 29.046l-.017.056-36.893 120.242-3.813 12.427a8.11 8.11 0 0 0-.357 2.316 8.104 8.104 0 0 0 2.646 6.038 8.07 8.07 0 0 0 2.648 1.604l68.195 25.084v254.523a8.083 8.083 0 0 0 8.084 8.084h288.884a8.084 8.084 0 0 0 8.084-8.084V345.744a8.084 8.084 0 0 0-8.084-8.084 8.084 8.084 0 0 0-8.084 8.084v150.087H119.641V168.575a8.084 8.084 0 0 0-16.168 0v27.164l-45.267-17.088L86.495 86.45l.016-.052c3.521-11.474 13.182-18.109 16.186-19.937l76.238-43.765c.218-.125.359-.211.565-.357.06-.041 4.141-2.708 11.861-4.523C200.255 45.541 226.28 64.948 256 64.948s55.745-19.408 64.639-47.133c7.712 1.811 11.776 4.467 11.789 4.474.206.146.419.281.637.406l76.237 43.764c3.005 1.829 12.667 8.468 16.187 19.938l.016.052 28.287 92.201-45.267 17.088v-27.164a8.084 8.084 0 0 0-16.168 0V318.797c0 4.466 3.619 8.084 8.084 8.084s8.084-3.618 8.084-8.084v-69.404l68.195-25.084a8.067 8.067 0 0 0 2.648-1.604 8.104 8.104 0 0 0 2.646-6.038 8.039 8.039 0 0 0-.355-2.317zm-378.186-1.33v19.146l-55.431-20.388 5.412-17.638 50.019 18.88zM255.999 48.781c-21.451 0-40.385-13.262-48.078-32.613h96.158c-7.694 19.351-26.627 32.613-48.08 32.613zm152.527 183.383v-19.146l50.019-18.88 5.412 17.638-55.431 20.388z"/><path d="M279.039 176.658a8.084 8.084 0 0 0 8.084-8.084 8.083 8.083 0 0 0-8.084-8.084H177.865a8.084 8.084 0 0 0-8.084 8.084v32.944a8.083 8.083 0 0 0 8.084 8.084h156.268a8.084 8.084 0 0 0 8.084-8.084v-32.944a8.084 8.084 0 0 0-8.084-8.084h-27.188a8.084 8.084 0 0 0-8.084 8.084 8.084 8.084 0 0 0 8.084 8.084h19.104v16.775h-140.1v-16.775h93.09z"/></svg>