<svg xmlns="http://www.w3.org/2000/svg" viewBox="0 0 511.999 511.999"><path d="M307.862 207.776a8.084 8.084 0 0 0-3.119 10.999c6.312 11.309 9.649 24.181 9.649 37.223 0 42.182-34.317 76.499-76.498 76.499s-76.498-34.317-76.498-76.499c0-42.18 34.317-76.497 76.498-76.497 19.434 0 37.961 7.296 52.166 20.545a8.085 8.085 0 0 0 11.028-11.824c-17.207-16.051-39.65-24.89-63.192-24.89-51.096 0-92.666 41.569-92.666 92.665-.001 51.097 41.569 92.668 92.665 92.668 51.096 0 92.666-41.57 92.666-92.667 0-15.794-4.046-31.39-11.699-45.103a8.089 8.089 0 0 0-11-3.119z"/><path d="M378.888 233.235h-15.484c-4.091-22.609-14.162-43.159-28.509-59.955l-12.64-97.3a8.085 8.085 0 0 0-8.017-7.043h-16.193V22.728C298.045 10.196 287.849 0 275.317 0h-74.846c-12.533 0-22.728 10.196-22.728 22.728v46.208H161.55a8.085 8.085 0 0 0-8.017 7.043l-12.639 97.299c-19.034 22.288-30.546 51.183-30.546 82.719 0 31.538 11.512 60.434 30.545 82.722l12.639 97.298a8.085 8.085 0 0 0 8.017 7.043h16.192v46.211c0 12.533 10.196 22.728 22.728 22.728h74.847c12.532 0 22.727-10.196 22.727-22.728V443.06h16.193a8.084 8.084 0 0 0 8.017-7.043l12.639-97.298c14.346-16.797 24.417-37.347 28.508-59.955h15.485c12.553 0 22.765-10.213 22.765-22.766.003-12.552-10.21-22.763-22.762-22.763zM193.912 49.351h45.799c4.466 0 8.084-3.618 8.084-8.084s-3.618-8.084-8.084-8.084h-45.799V22.728a6.567 6.567 0 0 1 6.559-6.56h74.846a6.567 6.567 0 0 1 6.559 6.56v10.454h-13.062c-4.466 0-8.084 3.618-8.084 8.084s3.618 8.084 8.084 8.084h13.062v15.09h-87.964V49.351zm-.002 31.259h87.965v10.454a6.567 6.567 0 0 1-6.559 6.56H200.47a6.568 6.568 0 0 1-6.56-6.56V80.61zm-25.257 4.495h9.091v5.96c0 12.533 10.196 22.728 22.728 22.728h74.847c12.532 0 22.727-10.196 22.727-22.728v-5.96h9.092l9.131 70.287a126.38 126.38 0 0 0-6.826-4.928l-.403-.276a128.009 128.009 0 0 0-5.211-3.334c-.483-.291-.969-.576-1.455-.861a123.34 123.34 0 0 0-3.682-2.094l-.041-.023a126.627 126.627 0 0 0-49.989-14.963l-.174-.015a131.602 131.602 0 0 0-4.933-.312c-.258-.012-.514-.019-.772-.029-1.622-.061-3.25-.102-4.886-.102-1.636 0-3.264.041-4.886.102-.258.01-.515.018-.773.029-1.652.072-3.297.176-4.934.312-.058.005-.115.011-.174.015a126.6 126.6 0 0 0-49.989 14.963l-.045.026c-1.24.675-2.462 1.376-3.676 2.091-.487.286-.974.57-1.458.862a125.99 125.99 0 0 0-5.213 3.335c-.132.088-.261.179-.391.267a127.676 127.676 0 0 0-6.835 4.935l9.13-70.287zm113.222 377.544h-10.906c-4.466 0-8.084 3.618-8.084 8.084s3.618 8.084 8.084 8.084h10.906v10.454a6.567 6.567 0 0 1-6.558 6.56h-74.846a6.568 6.568 0 0 1-6.56-6.56v-10.454h49.033c4.466 0 8.084-3.618 8.084-8.084s-3.618-8.084-8.084-8.084h-49.033v-15.09h87.964v15.09zm.002-31.259h-87.965v-10.454a6.568 6.568 0 0 1 6.56-6.56h74.847a6.567 6.567 0 0 1 6.559 6.56v10.454zm25.259-4.497h-9.092v-5.958c0-12.533-10.196-22.728-22.727-22.728H200.47c-12.533 0-22.728 10.196-22.728 22.728v5.958h-9.091l-9.131-70.285a126.598 126.598 0 0 0 6.873 4.96l.336.231a125.65 125.65 0 0 0 5.219 3.34c.492.296.986.586 1.482.877 1.2.706 2.408 1.399 3.633 2.066l.081.045a126.607 126.607 0 0 0 49.983 14.96c.058.005.115.011.174.015 1.635.135 3.279.238 4.931.312.259.012.517.019.776.029 1.621.061 3.248.102 4.884.102s3.263-.041 4.884-.102c.259-.01.517-.018.776-.029 1.652-.072 3.296-.176 4.931-.312l.174-.015a126.616 126.616 0 0 0 50.059-15.002 123.922 123.922 0 0 0 3.638-2.07c.495-.29.988-.579 1.479-.875a126.057 126.057 0 0 0 5.216-3.338l.349-.238a126.445 126.445 0 0 0 6.864-4.955l-9.126 70.284zm42.085-167.677c-.008.261-.021.521-.03.78-.03.832-.067 1.665-.115 2.499a108.596 108.596 0 0 1-.243 3.311c-.024.267-.046.536-.071.803-.081.86-.175 1.718-.276 2.574-4.222 35.626-25.32 66.154-55.06 83.333-.328.189-.659.373-.988.558-.42.237-.841.476-1.264.708a111.413 111.413 0 0 1-50.017 13.543c-.105.003-.208.01-.313.012a111.432 111.432 0 0 1-5.9 0c-.105-.002-.208-.009-.312-.012a111.38 111.38 0 0 1-50.016-13.542c-.431-.236-.858-.479-1.286-.719-.323-.181-.647-.361-.968-.546-33.352-19.264-55.847-55.314-55.847-96.521.002-40.299 21.518-75.669 53.665-95.225l.023-.014c.712-.433 1.431-.857 2.154-1.275.338-.194.679-.384 1.019-.574.411-.232.821-.465 1.235-.691a111.395 111.395 0 0 1 50.023-13.545c.103-.003.207-.01.312-.012a111.432 111.432 0 0 1 5.9 0c.105.002.208.009.313.012a111.395 111.395 0 0 1 50.025 13.546c.407.223.811.452 1.214.68.347.195.695.388 1.04.586.72.416 1.436.839 2.145 1.27l.029.017c28.58 17.387 48.75 47.276 52.874 82.013.102.869.197 1.739.28 2.611.025.26.046.521.07.783.073.831.137 1.664.191 2.496.018.273.037.547.052.82.049.838.085 1.674.115 2.51.01.258.023.515.029.773.031 1.076.05 2.149.05 3.219s-.021 2.145-.052 3.219zm29.667 3.381h-13.616a128.916 128.916 0 0 0 0-13.194h13.616a6.604 6.604 0 0 1 6.597 6.596c-.001 3.638-2.96 6.598-6.597 6.598z"/><path d="M237.894 195.127a8.082 8.082 0 0 0-8.084 8.084v33.19c-7.694 3.185-13.123 10.766-13.123 19.597 0 11.695 9.513 21.209 21.208 21.209 3.147 0 6.127-.708 8.815-1.943l17.301 16.124a8.05 8.05 0 0 0 5.509 2.171 8.056 8.056 0 0 0 5.915-2.573 8.085 8.085 0 0 0-.402-11.426l-17.303-16.126a21.052 21.052 0 0 0 1.371-7.435c0-8.831-5.429-16.412-13.123-19.597v-33.19a8.084 8.084 0 0 0-8.084-8.085zm0 65.912a5.045 5.045 0 0 1-5.039-5.04c0-2.778 2.26-5.038 5.039-5.038s5.039 2.26 5.039 5.038c0 2.779-2.26 5.04-5.039 5.04z"/></svg>