<svg xmlns="http://www.w3.org/2000/svg" viewBox="0 0 512 512"><path d="M512 231.179c0-21.602-14.561-52.03-83.926-74.312-10.575-3.398-22.081-6.49-34.196-9.194-4.377-.968-8.701 1.778-9.676 6.146a8.107 8.107 0 0 0 6.146 9.676c11.636 2.596 22.662 5.56 32.768 8.805 47.544 15.273 72.674 35.633 72.674 58.879 0 17.926-15.311 34.396-44.453 47.992-.078-1.036-.169-2.08-.269-3.127l-.031-.322a136.082 136.082 0 0 0-.327-3.04l-.004-.041c-.119-.997-.25-1.998-.392-3.002l-.086-.585c-.108-.738-.222-1.476-.343-2.215-.025-.15-.045-.304-.07-.453 21.863-10.88 33.809-23.263 33.809-35.207 0-16.945-23.41-34.183-64.228-47.295-43.559-13.994-101.586-21.7-163.396-21.7s-119.839 7.706-163.395 21.698c-40.817 13.112-64.228 30.35-64.228 47.295 0 11.943 11.945 24.326 33.809 35.207-.023.136-.042.278-.064.415-.128.775-.246 1.547-.359 2.32-.024.165-.05.33-.073.495a143.107 143.107 0 0 0-.731 6.139c-.009.083-.016.167-.024.251-.102 1.06-.193 2.115-.272 3.163-29.14-13.594-44.453-30.064-44.453-47.989 0-22.914 25.81-43.824 72.674-58.879 44.726-14.368 104.075-22.281 167.117-22.281 37.658 0 75.07 2.908 108.19 8.412a8.105 8.105 0 1 0 2.657-15.991c-34.469-5.727-71.764-8.631-110.848-8.631-64.68 0-125.79 8.189-172.074 23.058C14.561 179.149 0 209.577 0 231.179c0 18.342 10.612 44.33 60.211 65.535-.204 22.191 3.487 51.738 21.567 70.153 7.378 7.513 17.945 11.323 31.412 11.323 35.454 0 85.371-26.797 109.969-41.421 3.592 2.629 8.004 4.202 12.787 4.202h40.296c4.745 0 9.126-1.546 12.703-4.138 12.317 7.313 31.962 18.249 52.892 27.017a8.101 8.101 0 0 0 10.606-4.343A8.103 8.103 0 0 0 348.1 348.9c-19.849-8.316-38.581-18.717-50.485-25.77.06-.333.092-.672.137-1.008.036-.265.082-.525.108-.792.067-.69.106-1.386.106-2.086v-3.696l48.684 6.681a8.107 8.107 0 0 0 9.131-6.928 8.105 8.105 0 0 0-6.928-9.131l-50.887-6.983v-9.456l50.887-6.985a8.105 8.105 0 0 0 6.928-9.131c-.608-4.435-4.696-7.522-9.131-6.928l-48.684 6.683v-2.366c0-.7-.039-1.396-.106-2.089-.026-.266-.072-.525-.107-.788-.045-.338-.077-.68-.138-1.016 45.801-27.186 102.887-50.868 121.039-32.376 7.209 7.342 11.501 17.412 13.963 28.045.032.25.073.499.13.749 1.85 8.25 2.803 17.599 2.832 27.79 0 .054.01.107.011.16.002 1.187-.008 2.354-.028 3.496v.297c.352 19.265-2.294 45.354-16.908 60.237-9.808 9.989-30.874 6.563-46.821 1.924a8.104 8.104 0 0 0-10.046 5.52 8.107 8.107 0 0 0 5.52 10.046c11.838 3.442 22.344 5.161 31.479 5.161 13.525 0 24.044-3.769 31.434-11.294 18.077-18.412 21.771-47.959 21.57-70.153 49.599-21.204 60.21-47.194 60.21-65.534zm-348.854 51.568l50.885 6.985v9.456l-50.885 6.983a8.105 8.105 0 0 0 2.203 16.059l48.682-6.68v3.696c0 1.31.118 2.608.349 3.882-20.977 12.404-69.452 38.853-101.19 38.853-8.953 0-15.63-2.176-19.846-6.47-14.617-14.887-17.261-40.974-16.906-60.236v-.299c-.021-1.139-.03-2.305-.029-3.488.001-.056.011-.112.011-.169.027-10.187.979-19.536 2.83-27.789.056-.252.098-.505.131-.756 2.461-10.628 6.754-20.695 13.962-28.037 4.216-4.294 10.893-6.471 19.847-6.471 31.745 0 80.214 26.451 101.191 38.854a21.7 21.7 0 0 0-.35 3.885v2.365l-48.682-6.683a8.106 8.106 0 0 0-2.203 16.06zm118.612 36.499a5.583 5.583 0 0 1-.359 1.906c-.041.11-.076.224-.124.331a5.598 5.598 0 0 1-.428.788l-.037.064a5.513 5.513 0 0 1-4.566 2.427h-40.296v-.001a5.523 5.523 0 0 1-5.516-5.516v-48.241a5.522 5.522 0 0 1 5.516-5.516h40.296a5.514 5.514 0 0 1 5.039 3.295c.039.088.066.178.101.267a5.5 5.5 0 0 1 .274.961c.059.323.1.654.1.994v48.241zm148.462-95.867c-14.421-14.688-40.727-15.033-78.19-1.028-24.458 9.142-48.376 22.322-63.088 31.063-3.577-2.59-7.956-4.136-12.7-4.136h-40.296c-4.781 0-9.192 1.571-12.784 4.198-24.595-14.623-74.509-41.422-109.971-41.422-13.467 0-24.036 3.809-31.413 11.324-7.368 7.504-12.341 16.86-15.64 26.813-17.345-9.243-21.551-16.835-21.551-19.013 0-3.135 8.991-17.732 52.975-31.862 41.997-13.491 98.265-20.921 158.437-20.921s116.44 7.43 158.437 20.921c43.984 14.129 52.975 28.727 52.975 31.862 0 2.179-4.206 9.771-21.551 19.013-3.299-9.952-8.272-19.308-15.64-26.812z"/></svg>