<svg xmlns="http://www.w3.org/2000/svg" viewBox="0 0 512.001 512.001"><path d="M375.807 35.32L344.135 2.472c-.017-.018-.037-.033-.055-.052-.104-.107-.216-.205-.326-.305-.087-.08-.172-.164-.263-.239-.105-.087-.216-.166-.326-.248-.102-.078-.203-.158-.308-.231s-.219-.135-.328-.203c-.113-.069-.224-.143-.341-.207-.128-.07-.263-.129-.396-.193-.101-.049-.201-.102-.304-.147-.154-.066-.314-.12-.472-.176-.086-.03-.171-.067-.259-.095-.155-.049-.315-.086-.474-.126-.095-.024-.19-.053-.286-.073-.141-.03-.286-.049-.429-.071-.12-.018-.238-.041-.358-.055-.125-.014-.252-.018-.378-.026-.143-.01-.286-.02-.429-.022-.03 0-.06-.004-.091-.004H173.688c-.023 0-.045.005-.068.005a8.088 8.088 0 0 0-1.054.08c-.081.011-.16.026-.239.04a8.03 8.03 0 0 0-.968.223c-.028.009-.057.014-.085.023a8.196 8.196 0 0 0-1.19.486 8.012 8.012 0 0 0-.91.523l-.025.015a8.19 8.19 0 0 0-.839.663c-.065.058-.127.119-.191.179-.084.08-.171.152-.252.236l-31.674 32.849a8.085 8.085 0 0 0-1.42 9.21l46.924 94.433a8.089 8.089 0 0 0 7.239 4.487c1.7 0 3.376-.537 4.774-1.56l17.759-12.995 15.018 24.474-10.787 80.303-.003.017-6.089 45.33-16.071 119.625-4.373 32.536-.001.024-3.739 27.838a8.087 8.087 0 0 0 3.377 7.7l62.564 43.798a8.084 8.084 0 0 0 9.272 0l62.566-43.798a8.085 8.085 0 0 0 3.377-7.7l-31.243-232.546-4.719-35.134a.059.059 0 0 1-.002-.013l-5.103-37.981 15.018-24.474 17.759 12.995a8.086 8.086 0 0 0 12.013-2.927l46.924-94.433a8.082 8.082 0 0 0-1.42-9.21zm-166.81 75.336c-.058.043-.111.092-.168.136l-16.922 12.382-40.117-80.735 22.146-22.968 69.477 66.011-34.416 25.174zm100.902 345.66l-53.898 37.73-53.897-37.73 2.624-19.531 93.517-67.215 11.654 86.746zm-20.288-151.014l-23.248 16.712a8.084 8.084 0 1 0 9.438 13.128l16.248-11.68 3.358 24.981.399 2.97-88.116 63.334.921-6.852 3.639-27.076 42.503-30.55a8.082 8.082 0 0 0 1.846-11.282 8.081 8.081 0 0 0-11.282-1.846l-30.108 21.64 8.534-63.518 31.01-22.288a8.083 8.083 0 0 0 1.846-11.282c-2.606-3.627-7.661-4.453-11.282-1.846l-18.613 13.378 4.558-33.93 45.126-32.433 3.755 27.951-13.512 9.713a8.084 8.084 0 1 0 9.438 13.128l6.515-4.682 7.027 52.33zm-55.391-88.047l7.735-57.58h28.091l3.9 29.029-39.726 28.551zm38.373-73.747H239.41l-14.847-24.194 31.438-23.005 31.438 23.005-14.846 24.194zm47.501-20.334l-16.922-12.383c-.057-.044-.109-.093-.168-.136l-34.416-25.174 25.617-24.34a8.085 8.085 0 0 0-11.138-11.722L256 75.138l-62.067-58.97h124.135l-17.323 16.459a8.085 8.085 0 0 0 11.138 11.722l26.183-24.877 22.146 22.968-40.118 80.734z"/></svg>