<svg xmlns="http://www.w3.org/2000/svg" viewBox="0 0 512.001 512.001"><path d="M369.653 298.442a8.096 8.096 0 0 0 8.097 8.097c32.961 0 61.562-17.988 69.555-43.744a8.097 8.097 0 0 0-5.333-10.133 8.094 8.094 0 0 0-10.133 5.333c-5.816 18.743-28.564 32.349-54.088 32.349a8.1 8.1 0 0 0-8.098 8.098zM196.121 252.663c-4.269-1.323-8.808 1.062-10.132 5.333-5.815 18.745-28.563 32.349-54.087 32.349-4.472 0-8.097 3.624-8.097 8.097s3.625 8.097 8.097 8.097c32.962 0 61.564-17.988 69.554-43.744a8.099 8.099 0 0 0-5.335-10.132z"/><path d="M489.821 189.424h-9.801c-2.672-9.249-11.199-16.038-21.297-16.038h-23.092c-4.473 0-8.097 3.624-8.097 8.097s3.624 8.097 8.097 8.097h23.092a5.992 5.992 0 0 1 5.987 5.985V256.001c0 36.625-39.009 66.421-86.959 66.421-47.947 0-86.956-29.797-86.956-66.421v-60.438c0-3.3 2.684-5.985 5.984-5.985H408.1c4.473 0 8.097-3.624 8.097-8.097s-3.624-8.097-8.097-8.097H53.276c-10.098 0-18.624 6.79-21.295 16.038H22.18C9.95 189.424 0 199.374 0 211.604v21.514c0 12.23 9.95 22.18 22.18 22.18h8.918v.704c0 45.554 46.273 82.615 103.151 82.615 56.878 0 103.152-37.061 103.152-82.615v-16.163c.125-.367.232-.743.304-1.134 1.496-8.053 8.531-13.897 16.727-13.897h3.141c8.194 0 15.227 5.845 16.724 13.898.072.391.179.768.305 1.135v16.161c0 45.554 46.273 82.615 103.151 82.615 56.879 0 103.153-37.061 103.153-82.615v-.704h8.918c12.229 0 22.179-9.95 22.179-22.18v-21.514c-.003-12.23-9.953-22.18-22.182-22.18zM31.098 239.103H22.18a5.992 5.992 0 0 1-5.985-5.985v-21.514c0-3.3 2.685-5.985 5.985-5.985h8.918v33.484zm190.108-1.879v18.777c0 36.625-39.009 66.421-86.957 66.421s-86.956-29.797-86.956-66.421V195.565c0-3.3 2.684-5.985 5.984-5.985H215.22c3.3 0 5.985 2.685 5.985 5.985v41.659zm53.852-46.153c-.01.049-.016.098-.026.147a22.62 22.62 0 0 0-.332 2.329c-.06.666-.103 1.337-.103 2.018v17.747a33.09 33.09 0 0 0-17.027-4.7h-3.141a33.108 33.108 0 0 0-17.03 4.7v-17.747c0-.681-.042-1.352-.103-2.018a17.69 17.69 0 0 0-.053-.511 21.759 21.759 0 0 0-.279-1.818c-.01-.049-.015-.098-.026-.147a21.626 21.626 0 0 0-.362-1.492h38.841c-.136.49-.255.989-.359 1.492zm220.748 42.046c0 3.3-2.684 5.985-5.984 5.985h-8.918v-33.485h8.918c3.3 0 5.984 2.685 5.984 5.985v21.515z"/><path d="M106.978 285.747a8.195 8.195 0 0 0-5.733 2.363 8.186 8.186 0 0 0-2.364 5.734c0 2.127.864 4.209 2.364 5.722a8.153 8.153 0 0 0 5.733 2.375 8.147 8.147 0 0 0 5.722-2.375 8.147 8.147 0 0 0 2.375-5.722 8.159 8.159 0 0 0-2.375-5.734 8.18 8.18 0 0 0-5.722-2.363zM347.045 288.11a8.154 8.154 0 0 0-2.375 5.734 8.15 8.15 0 0 0 2.375 5.722 8.145 8.145 0 0 0 5.722 2.375 8.157 8.157 0 0 0 5.733-2.375 8.175 8.175 0 0 0 2.364-5.722 8.195 8.195 0 0 0-2.364-5.734 8.184 8.184 0 0 0-5.733-2.363 8.18 8.18 0 0 0-5.722 2.363z"/></svg>