<svg xmlns="http://www.w3.org/2000/svg" viewBox="0 0 512.001 512.001"><path d="M398.289 302.824c.003-.093.014-.184.014-.278 0-.26-.013-.516-.038-.769l-.653-29.255a8.233 8.233 0 0 0-.087-.975c-.012-.086-.029-.171-.044-.256a7.776 7.776 0 0 0-.166-.736c-.021-.074-.039-.15-.061-.223a8.026 8.026 0 0 0-.776-1.751c-.041-.069-.085-.137-.128-.205a8.497 8.497 0 0 0-.43-.612c-.047-.061-.093-.125-.142-.184a8.303 8.303 0 0 0-.635-.691c-.041-.04-.086-.075-.129-.114a8.275 8.275 0 0 0-.61-.51c-.069-.053-.139-.103-.21-.154a8.2 8.2 0 0 0-.761-.481l-.044-.028c-23.183-12.591-23.561-38.009-23.565-39.149v-96.894c0-.996-.184-1.983-.543-2.912-2.992-7.746-9.709-12.975-17.479-13.83v-33.31a8.082 8.082 0 0 0-8.083-8.083 8.082 8.082 0 0 0-8.083 8.083v33.168h-21.27V21.296a5.135 5.135 0 0 1 5.13-5.13h11.011a5.135 5.135 0 0 1 5.13 5.13V53.64a8.082 8.082 0 0 0 8.083 8.083 8.082 8.082 0 0 0 8.083-8.083V21.296C351.801 9.553 342.248 0 330.505 0h-11.011c-11.743 0-21.296 9.553-21.296 21.296v91.378h-84.397V21.296C213.801 9.553 204.249 0 192.506 0h-11.01C169.753 0 160.2 9.553 160.2 21.296v91.516c-7.771.856-14.489 6.085-17.481 13.831a8.077 8.077 0 0 0-.543 2.912v96.96c-.004 1.076-.383 26.494-23.565 39.085-.026.014-.047.032-.073.046a8.018 8.018 0 0 0-.945.621 7.88 7.88 0 0 0-.595.498c-.045.042-.095.081-.139.124a7.982 7.982 0 0 0-.622.678c-.057.07-.111.142-.166.214a8.09 8.09 0 0 0-.406.578 8.253 8.253 0 0 0-.585 1.07 7.87 7.87 0 0 0-.324.882c-.027.087-.05.176-.074.264a7.972 7.972 0 0 0-.156.692c-.017.095-.037.189-.051.283a7.84 7.84 0 0 0-.084.938v.018l-.001.017-.005.248-.789 29.56c-.013.486.025.968.097 1.442l-4.463 199.966a8.085 8.085 0 0 0 8.081 8.263h112.306a8.083 8.083 0 0 0 7.922-6.478l7.286-35.963a8.083 8.083 0 1 0-15.843-3.21l-5.974 29.485h-97.431l2.841-127.277c16.332-1.126 29.238-6.443 38.418-15.859 13.399-13.742 13.619-31.27 13.599-33.248v-8.824h67.485v66.563a8.048 8.048 0 0 0-1.557 3.368l-12.192 60.181a8.083 8.083 0 0 0 6.317 9.527 8.077 8.077 0 0 0 9.527-6.316l5.99-29.563 18.462 91.135a8.082 8.082 0 0 0 7.922 6.478h112.306a8.081 8.081 0 0 0 8.081-8.263l-4.487-200.914zM383.222 352.2c-10.87-1.162-19.316-4.723-25.165-10.637-9.19-9.294-9.156-21.79-9.155-21.859l.002-.206v-8.87h33.39l.928 41.572zm-68.856-223.361h21.27v5.718h-21.27v-5.718zM181.498 16.166h11.01a5.135 5.135 0 0 1 5.13 5.13v91.378h-21.269V21.296h-.001a5.135 5.135 0 0 1 5.13-5.13zm-5.13 112.673h21.269v5.718h-21.269v-5.718zm-21.254 212.724c-6.055 6.125-14.901 9.72-26.335 10.746l.93-41.681h34.559v8.87l.001.15c.003.125.035 12.621-9.155 21.915zm82.936-47.1H130.07l.305-13.677H238.05v13.677zm-93.424-29.844c13.126-16.404 13.706-35.291 13.719-38.033v-95.22a5.593 5.593 0 0 1 1.858-1.878v13.151a8.082 8.082 0 0 0 8.083 8.083h37.435a8.082 8.082 0 0 0 8.083-8.083v-13.801h84.397v13.801a8.082 8.082 0 0 0 8.083 8.083h37.436a8.082 8.082 0 0 0 8.083-8.083v-13.151a5.617 5.617 0 0 1 1.857 1.878v95.22c.012 2.741.594 21.629 13.719 38.033H144.626zm109.59 29.844v-13.677h127.412l.305 13.677H254.216zm34.78 201.372v-.001l-23.353-115.275a8.07 8.07 0 0 0-1.558-3.37v-66.562h68.654v8.824c-.02 1.975.199 19.505 13.598 33.248 8.959 9.189 21.471 14.468 37.249 15.765l2.843 127.371h-97.433z"/><path d="M295.268 164h-80.653a8.082 8.082 0 0 0-8.083 8.083v68.636a8.082 8.082 0 0 0 8.083 8.083h80.653a8.082 8.082 0 0 0 8.083-8.083V225.2a8.082 8.082 0 0 0-8.083-8.083 8.082 8.082 0 0 0-8.083 8.083v7.435h-64.487v-52.47h64.487v19.105a8.082 8.082 0 0 0 8.083 8.083 8.082 8.082 0 0 0 8.083-8.083v-27.188a8.081 8.081 0 0 0-8.083-8.082z"/></svg>