<svg xmlns="http://www.w3.org/2000/svg" viewBox="0 0 512 512"><path d="M511.971 478.944L498.93 326.088l-17.343-203.25a8.063 8.063 0 0 0-8.034-7.377h-2.876V46.955c0-12.488-10.159-22.648-22.647-22.648H63.971c-12.488 0-22.648 10.159-22.648 22.648v68.505h-2.875a8.063 8.063 0 0 0-8.034 7.377L13.071 326.088.029 478.944a8.067 8.067 0 0 0 2.094 6.14 8.069 8.069 0 0 0 5.939 2.609H154.3a8.062 8.062 0 0 0 8.063-8.063 8.062 8.062 0 0 0-8.063-8.063h-39.883c-1.993-57.62-25.088-95.304-44.611-117.049a167.237 167.237 0 0 0-7.792-8.107l18.331-214.824h351.311l10.265 120.315a8.063 8.063 0 0 0 8.719 7.348 8.061 8.061 0 0 0 7.348-8.719L447.84 131.586h18.307l16.251 190.462c-4.069 2.231-10.196 5.937-17.338 11.366l-4.623-54.18a8.064 8.064 0 0 0-8.719-7.348 8.061 8.061 0 0 0-7.348 8.719l5.615 65.805a166.322 166.322 0 0 0-7.792 8.107c-19.523 21.746-42.615 59.431-44.609 117.049h-98.635l-35.072-160.169a8.064 8.064 0 0 0-15.752 0L213.05 471.566h-30.798c-4.454 0-8.063 3.609-8.063 8.063s3.609 8.063 8.063 8.063h37.287a8.062 8.062 0 0 0 7.876-6.339l28.586-130.538 28.584 130.538a8.064 8.064 0 0 0 7.876 6.339H503.938a8.064 8.064 0 0 0 8.033-8.748zm-413.67-7.377H16.842l11.234-131.652c7.801 4.981 19.073 13.381 30.237 25.943 25.044 28.178 38.477 63.706 39.988 105.709zM46.939 333.414c-7.142-5.429-13.269-9.134-17.338-11.366l16.251-190.462h18.309L46.939 333.414zM454.55 115.46H57.448v-13.803H454.55v13.803zm.001-29.93H57.448V72.336h294.114c4.454 0 8.063-3.609 8.063-8.063s-3.609-8.063-8.063-8.063H57.448v-9.255a6.53 6.53 0 0 1 6.523-6.522H448.03a6.528 6.528 0 0 1 6.52 6.521v9.255h-76.111a8.062 8.062 0 0 0-8.063 8.063 8.062 8.062 0 0 0 8.063 8.063h76.112V85.53zm-40.853 386.037c1.512-42.002 14.945-77.53 39.988-105.709 11.165-12.561 22.438-20.964 30.237-25.943l11.234 131.652h-81.459z"/></svg>