<svg xmlns="http://www.w3.org/2000/svg" viewBox="0 0 512.001 512.001"><path d="M362.578 0H149.422c-12.683 0-23.001 10.319-23.001 23.001v30.363c0 .066.009.13.01.195.002.069-.003.138 0 .207l22.307 450.507a8.13 8.13 0 0 0 8.12 7.728h78.075a8.13 8.13 0 0 0 8.114-7.616L256 299.775l12.953 204.61a8.13 8.13 0 0 0 8.114 7.616h78.075a8.13 8.13 0 0 0 8.12-7.728l11.995-242.249a8.13 8.13 0 0 0-7.718-8.522c-4.507-.207-8.299 3.235-8.522 7.718l-11.612 234.522h-62.707l-20.569-324.906V148.87l24.631-12.552a8.13 8.13 0 0 0 4.439-7.244v-67.58h11.021c.511 9.57 3.303 25.834 15.299 39.136 10.801 11.976 26.4 18.777 46.446 20.276l-5.548 112.041a8.13 8.13 0 0 0 7.718 8.522c4.507.203 8.3-3.234 8.522-7.718l5.863-118.412a8.102 8.102 0 0 0 .321-2.244c0-.499-.052-.984-.138-1.458l2.866-57.869c.003-.069-.002-.138 0-.207.001-.066.01-.129.01-.195V23.001h.002C385.58 10.319 375.262 0 362.578 0zM199.069 16.26h40.128v28.974h-40.128V16.26zm-56.388 6.741a6.749 6.749 0 0 1 6.741-6.741h33.386v28.974H142.68V23.001zm.413 38.493h49.396c-.503 7.198-2.708 19.046-11.175 28.36-7.995 8.794-20.114 13.784-36.08 14.879l-2.141-43.239zm104.777 109.338L227.303 495.74h-62.707l-18.557-374.778c20.527-1.345 36.476-8.157 47.454-20.333 11.994-13.301 14.787-29.565 15.297-39.136h39.08v109.339zm29.069-46.741l-12.809 6.528V61.494h12.809v62.597zm35.993-78.857h-57.477V16.26h57.477v28.974zm53.837 59.413c-15.464-1.234-27.249-6.187-35.074-14.794-8.466-9.313-10.673-21.161-11.176-28.359h48.387l-2.137 43.153zm2.55-59.413h-40.128V16.26h33.386a6.749 6.749 0 0 1 6.741 6.741v22.233z"/><path d="M270.463 38.874a8.214 8.214 0 0 0 5.746-2.374 8.187 8.187 0 0 0 2.384-5.756 8.162 8.162 0 0 0-2.384-5.745 8.18 8.18 0 0 0-5.746-2.385 8.187 8.187 0 0 0-5.756 2.385 8.196 8.196 0 0 0-2.374 5.745c0 2.146.868 4.238 2.374 5.756a8.217 8.217 0 0 0 5.756 2.374z"/></svg>