<svg xmlns="http://www.w3.org/2000/svg" viewBox="0 0 512 512"><path d="M511.959 459.109l-3.994-39.712c-.442-4.392-4.364-7.599-8.75-7.152l-.758.077-16.776-158.162a7.992 7.992 0 1 0-15.894 1.686l16.765 158.076-194.437 19.551h-4.955l-19.422-76.067a7.992 7.992 0 0 0-15.486 0l-19.423 76.067h-4.744L29.445 413.9l32.904-310.235H208.867v37.854c-7.11 3.096-12.098 10.184-12.098 18.421 0 11.077 9.012 20.091 20.09 20.091s20.092-9.013 20.092-20.091c0-8.237-4.989-15.325-12.1-18.422v-37.853h62.301v37.854c-7.11 3.096-12.098 10.184-12.098 18.421 0 11.077 9.012 20.091 20.09 20.091s20.091-9.013 20.091-20.091c0-8.237-4.989-15.325-12.099-18.422v-37.853H449.65l13.141 123.891c.466 4.389 4.395 7.575 8.79 7.104a7.992 7.992 0 0 0 7.104-8.79l-13.86-130.68c2.913-3.727 4.666-8.402 4.666-13.489V43.279c0-12.11-9.853-21.962-21.964-21.962h-61.441a7.99 7.99 0 0 0-7.992 7.991 7.99 7.99 0 0 0 7.992 7.992h61.441a5.987 5.987 0 0 1 5.981 5.979v11.22H58.495v-11.22a5.987 5.987 0 0 1 5.981-5.979h294.968a7.991 7.991 0 0 0 7.992-7.992 7.99 7.99 0 0 0-7.992-7.991H64.476c-12.111 0-21.964 9.852-21.964 21.962v38.422c0 5.084 1.752 9.757 4.663 13.483L13.539 412.321l-.755-.076a7.993 7.993 0 0 0-8.75 7.152L.04 459.11a7.986 7.986 0 0 0 7.151 8.75l226.548 22.78a7.992 7.992 0 0 0 8.75-7.151l3.994-39.712a7.994 7.994 0 0 0-1.762-5.856 8.106 8.106 0 0 0-.411-.455l11.688-45.777 11.689 45.782c-.14.147-.279.294-.408.452a7.988 7.988 0 0 0-1.762 5.856l3.994 39.712a7.992 7.992 0 0 0 8.75 7.151l226.548-22.78a7.988 7.988 0 0 0 7.15-8.753zM303.133 70.483h150.371v11.218a5.988 5.988 0 0 1-5.981 5.981h-144.39V70.483zm-7.992 85.351a4.112 4.112 0 0 1 4.108 4.107 4.112 4.112 0 0 1-4.108 4.108 4.112 4.112 0 0 1-4.107-4.108 4.112 4.112 0 0 1 4.107-4.107zm-70.292-85.351h62.301v17.199h-62.301V70.483zm-7.991 85.351a4.113 4.113 0 0 1 4.109 4.107 4.113 4.113 0 0 1-4.109 4.108 4.112 4.112 0 0 1-4.107-4.108 4.112 4.112 0 0 1 4.107-4.107zM58.495 70.483h150.371v17.199H64.476a5.988 5.988 0 0 1-5.981-5.981V70.483zm168.892 403.454L16.742 452.756l2.394-23.809 210.645 21.181-2.394 23.809zm57.225 0l-2.394-23.809 6.912-.695c.124-.006.248-.006.372-.019l202.649-20.376c.127-.013.251-.038.377-.057l.336-.034 2.394 23.809-210.646 21.181z"/></svg>