<svg xmlns="http://www.w3.org/2000/svg" viewBox="0 0 512 512"><path d="M277.086 46.937h5.862c4.466 0 8.084-3.619 8.084-8.084s-3.618-8.084-8.084-8.084h-5.862c-4.466 0-8.084 3.619-8.084 8.084s3.618 8.084 8.084 8.084z"/><path d="M458.2 0H53.8C41.586 0 31.648 9.937 31.648 22.152V71.382c0 .142.003.285.011.427l20.602 389.838a8.076 8.076 0 0 0-3.635 6.747v35.523a8.084 8.084 0 0 0 8.084 8.084h180.518a8.083 8.083 0 0 0 8.084-8.084v-35.524a8.06 8.06 0 0 0-2.786-6.097L256 344.59l13.596 118.774a8.048 8.048 0 0 0-1.759 5.027v35.524a8.082 8.082 0 0 0 8.084 8.084h180.518a8.082 8.082 0 0 0 8.084-8.084v-35.524a8.08 8.08 0 0 0-4.751-7.36l10.059-190.346a8.084 8.084 0 0 0-7.647-8.499c-4.445-.25-8.264 3.187-8.499 7.647l-10.066 190.475h-158.1l-21.435-187.266v-37.619l35.373-17.694a8.085 8.085 0 0 0 4.468-7.231V77.708h76.202c.144 15.136 3.161 46.475 23.72 68.993 13.492 14.778 31.99 23.035 55.042 24.643l-3.735 70.662a8.084 8.084 0 0 0 7.647 8.499c4.439.254 8.264-3.187 8.499-7.647l9.04-171.05c.008-.142.012-.285.012-.427V22.152C480.352 9.937 470.415 0 458.2 0zM284.004 476.476h164.35v19.356h-164.35v-19.356zM148.018 16.168h91.677v45.371h-91.677V16.168zM47.817 22.152a5.99 5.99 0 0 1 5.983-5.983h78.049V61.54H47.817V22.152zm.345 55.556h68.496c-.177 12.863-2.714 39.81-19.517 58.157-10.703 11.688-25.79 18.185-44.88 19.396l-4.099-77.553zm180.983 418.124H64.795v-19.356h164.35v19.356zm18.771-222.79l-21.435 187.266H68.382L53.114 171.403c23.51-1.438 42.344-9.714 56.029-24.702 20.559-22.518 23.576-53.857 23.72-68.993h115.053v195.334zm39.841-67.539l-23.673 11.842V77.708h23.673v127.795zm75.022-143.964H255.863V16.168h106.916v45.371zm96.964 93.664c-18.628-1.369-33.374-7.851-43.894-19.339-16.803-18.347-19.341-45.294-19.519-58.157h67.508l-4.095 77.496zm4.441-93.664H378.949V16.168H458.2a5.99 5.99 0 0 1 5.983 5.983v39.388z"/></svg>