<svg xmlns="http://www.w3.org/2000/svg" viewBox="0 0 512.001 512.001"><path d="M462.642 241.356a8.082 8.082 0 0 0 8.084-8.084V116.556c0-.582-.023-1.149-.06-1.707-1.021-24.428-23.408-46.406-66.54-65.32-25.844-11.333-51.149-18.037-59.131-20.018l-23.926-26.81a8.081 8.081 0 0 0-5.897-2.694c-.012 0-.023-.002-.034-.003h-.013c-.029 0-.057-.004-.086-.004H196.965c-.039 0-.078.005-.116.006-.043.001-.086-.003-.129-.002-.104.003-.206.018-.309.025-.138.01-.275.017-.412.033-.146.017-.288.044-.431.069-.13.023-.262.043-.391.072-.144.033-.286.075-.428.115-.124.036-.25.068-.372.109-.142.049-.28.107-.419.162-.117.047-.236.091-.351.143-.139.064-.274.138-.409.209-.11.057-.221.111-.328.174-.137.081-.267.172-.4.261-.098.066-.201.126-.295.197-.141.104-.274.219-.407.332-.079.067-.163.127-.239.197a8.351 8.351 0 0 0-.593.597l-23.979 26.868c-7.88 2.1-33.267 9.282-59.194 21.131-24.42 11.16-42.168 23.174-53.153 35.93a8.066 8.066 0 0 0-3.03 3.761c-6.431 8.588-9.859 17.497-10.244 26.699-.038.559-.06 1.124-.06 1.708v284.487a8.084 8.084 0 0 0 5.967 7.802l12.958 3.516v32.527a8.083 8.083 0 0 0 6.139 7.846l39.958 9.907c.016.03.037.057.054.087.258.46.53.912.821 1.35.115.174.238.341.359.51.244.344.494.682.756 1.011a21.003 21.003 0 0 0 1.272 1.446c.148.153.292.308.444.457.346.338.706.662 1.074.977.107.091.206.188.315.276.482.396.982.77 1.498 1.122.12.082.247.154.369.233.402.262.811.514 1.232.749.188.105.38.202.571.3a20.873 20.873 0 0 0 1.762.815c.401.163.808.309 1.221.448.196.066.388.136.586.195.082.025.159.057.242.081l.165 1.11 4.321 29.06a8.083 8.083 0 0 0 7.996 6.894h249.291a8.087 8.087 0 0 0 7.997-6.895l4.438-29.858c.445-.1.881-.227 1.315-.356.119-.035.241-.06.359-.097a20.574 20.574 0 0 0 1.815-.666c.155-.065.303-.143.456-.211.431-.193.859-.394 1.274-.615.203-.108.397-.225.595-.34a20.63 20.63 0 0 0 1.049-.638 22.82 22.82 0 0 0 2.123-1.588c.31-.264.609-.539.902-.82.165-.157.332-.31.492-.473.323-.33.631-.675.932-1.025.111-.129.23-.252.339-.384.401-.489.783-.996 1.138-1.522.064-.094.117-.194.18-.29.285-.434.558-.877.811-1.333l.005-.009 39.958-9.907a8.082 8.082 0 0 0 6.139-7.846v-32.842l11.794-3.2a8.084 8.084 0 0 0 5.967-7.802V259.661a8.082 8.082 0 0 0-8.084-8.084 8.083 8.083 0 0 0-8.084 8.084v137.438l-45.778 12.421a20.93 20.93 0 0 0-3.777-7.612c2.8-3.571 4.486-8.056 4.486-12.935v-39.895c0-4.879-1.686-9.364-4.486-12.935 2.8-3.571 4.486-8.056 4.486-12.935v-39.894c0-4.88-1.686-9.364-4.486-12.935 2.8-3.571 4.486-8.056 4.486-12.935v-39.895c0-4.88-1.686-9.364-4.486-12.935 2.8-3.571 4.486-8.056 4.486-12.935v-35.585c0-39.279 29.266-50.749 40.959-53.764 2.449 4.259 3.891 8.689 4.068 13.272.003.087.009.176.015.263.016.225.027.454.027.69v116.716a8.084 8.084 0 0 0 8.085 8.085zM409.487 426.08l27.307-7.409v22.131l-27.307 6.77V426.08zM329.361 36.436l-65.275 64.694V69.89l50.451-50.064 14.824 16.61zm-143.057-4.265l11.017-12.344 50.451 50.064v31.238l-65.275-64.694 3.807-4.264zm-82.626 415.401l-27.307-6.77v-21.815l26.143 7.094v12.423c0 1.531.426 2.962 1.164 4.182v4.886zm4.486-177.192c-2.8 3.571-4.486 8.055-4.486 12.935v39.895c0 4.88 1.686 9.365 4.486 12.935-2.8 3.571-4.486 8.055-4.486 12.935v39.895c0 4.879 1.686 9.364 4.486 12.935a20.92 20.92 0 0 0-3.852 7.907l-31.892-8.653a8.037 8.037 0 0 0-4.133-1.145c-.025 0-.049.003-.074.003l-10.768-2.921V118.796h-.001c0-.238.012-.468.028-.695.006-.086.011-.174.014-.26.207-5.344 2.141-10.514 5.375-15.473 11.789 3.072 40.817 14.612 40.817 53.729v35.585c0 4.879 1.686 9.364 4.486 12.935-2.8 3.571-4.486 8.055-4.486 12.935v39.895c0 4.877 1.686 9.362 4.486 12.933zm8.348-137.954c-5.471-17.932-16.742-28.951-26.64-35.476-5.256-3.464-10.509-5.928-15.113-7.671 24.718-21.173 69.848-36.973 94.176-43.521l78.983 78.28v6.728H124.697c-2.902 0-5.668.592-8.185 1.66zm8.185 195.634a4.858 4.858 0 0 1-4.851-4.852v-39.895a4.857 4.857 0 0 1 4.851-4.851h123.221v49.597H124.697zm123.22 16.168v49.595h-123.22a4.856 4.856 0 0 1-4.851-4.851v-39.895a4.856 4.856 0 0 1 4.851-4.849h123.22zm-123.22-81.933a4.857 4.857 0 0 1-4.851-4.851v-39.895a4.857 4.857 0 0 1 4.851-4.851h123.221v49.596H124.697zm0-65.765a4.857 4.857 0 0 1-4.851-4.851v-39.895a4.857 4.857 0 0 1 4.851-4.851h123.221v49.596H124.697zm39.368 299.302h-25.739l-2.985-20.076h28.724v20.076zm8.084-36.245h-47.453a4.857 4.857 0 0 1-4.851-4.851v-39.895a4.857 4.857 0 0 1 4.851-4.851h123.221v49.596h-75.768zm76.349 36.245h-68.265v-20.076h68.265v20.076zM216.589 16.168h78.68l-39.34 39.039-39.34-39.039zm116.343 479.664h-68.265v-20.076h68.265v20.076zm40.741 0H349.1v-20.076h27.557l-2.984 20.076zm19.647-75.936v34.84a4.857 4.857 0 0 1-4.851 4.851H264.667v-1.683c0-1.061-.21-2.071-.581-2.999V409.99H388.47a4.858 4.858 0 0 1 4.851 4.852v5.054zm0-30.923a4.857 4.857 0 0 1-4.851 4.851H264.086v-49.595H388.47a4.856 4.856 0 0 1 4.851 4.849v39.895zm0-65.764a4.858 4.858 0 0 1-4.851 4.852H264.086v-49.597H388.47a4.856 4.856 0 0 1 4.851 4.851v39.894zm0-65.765a4.857 4.857 0 0 1-4.851 4.851H264.086v-49.596H388.47a4.857 4.857 0 0 1 4.851 4.851v39.894zm0-65.764a4.857 4.857 0 0 1-4.851 4.851H264.086v-49.596H388.47a4.857 4.857 0 0 1 4.851 4.851v39.894zm29.974-94.73c-9.899 6.524-21.169 17.544-26.64 35.476a20.904 20.904 0 0 0-8.184-1.66H264.086v-6.873L343.02 45.66c24.879 6.201 71.837 21.768 96.115 43.344-4.773 1.758-10.307 4.299-15.841 7.946z"/></svg>