<svg xmlns="http://www.w3.org/2000/svg" viewBox="0 0 511.999 511.999"><path d="M481.29 232.802c-.234-1.387-5.846-34.382-17.281-70.568-15.84-50.125-34.685-80.509-56.008-90.307a17669.058 17669.058 0 0 1-80.895-37.419c-1.856-4.019-5.143-10.513-9.556-16.788-.196-.28-.399-.558-.6-.836-.127-.176-.25-.352-.379-.527-4.875-6.657-10.998-12.833-17.966-15.228l-.197-.07c-.12-.04-.236-.089-.357-.126-.096-.03-.193-.042-.29-.069C295.965.315 294.119 0 292.218 0H219.78c-1.901 0-3.749.315-5.544.863-.096.026-.193.039-.288.068-.12.038-.237.087-.357.126l-.197.07c-6.969 2.395-13.092 8.571-17.966 15.228-.128.175-.252.351-.379.527-.201.279-.403.557-.6.836-4.413 6.277-7.699 12.77-9.556 16.788-9.466 4.41-42.301 19.688-80.894 37.419-21.324 9.797-40.169 40.181-56.01 90.307-11.434 36.185-17.047 69.18-17.281 70.568a8.086 8.086 0 0 0 5.701 9.1l81.614 23.9v238.113a8.083 8.083 0 0 0 8.084 8.084h259.78a8.082 8.082 0 0 0 8.084-8.084V353.411a8.084 8.084 0 0 0-8.084-8.084 8.084 8.084 0 0 0-8.084 8.084V495.83H276.988V98.248a8.08 8.08 0 0 0 8.841.529c26.491-15.18 36.769-34.688 40.73-46.688 13.869 6.451 42.24 19.621 74.69 34.53 32.624 14.989 55.207 101.593 62.827 141.806l-70.102 20.53v-58.941a8.083 8.083 0 0 0-8.084-8.084 8.084 8.084 0 0 0-8.084 8.084v135.375a8.082 8.082 0 0 0 8.084 8.084 8.082 8.082 0 0 0 8.084-8.084V265.8l81.614-23.9a8.084 8.084 0 0 0 5.702-9.098zM235.01 495.83H134.195V292.426h-.001V190.013a8.084 8.084 0 0 0-16.168 0v58.941l-70.104-20.531c7.612-40.208 30.18-126.804 62.829-141.806 32.45-14.908 60.82-28.078 74.689-34.53 3.962 12 14.239 31.508 40.73 46.688a8.085 8.085 0 0 0 8.84-.527V495.83zm-5.801-414.147c-23.662-15.513-28.789-34.204-29.837-39.952 2.002-4.37 4.825-9.52 7.906-14.053 4.231 19.859 22.99 34.45 35.025 41.966l-13.094 12.039zM260.82 495.83h-9.643V85.101a8.09 8.09 0 0 0-.148-1.519l4.969-4.568 4.821 4.432V495.83zM256 58.919c-9.585-5.289-35.756-21.772-33.12-42.751h66.24c2.636 20.982-23.543 37.467-33.12 42.751zm26.791 22.764l-13.094-12.039c12.031-7.515 30.786-22.095 35.022-41.948 3.076 4.527 5.899 9.67 7.905 14.033-1.066 5.832-6.224 24.475-29.833 39.954z"/><path d="M265.576 22.479h-21.648a8.084 8.084 0 0 0-8.084 8.084 8.082 8.082 0 0 0 8.084 8.084h21.648a8.084 8.084 0 0 0 8.084-8.084 8.084 8.084 0 0 0-8.084-8.084zM302.501 173.147a8.084 8.084 0 0 0-8.084 8.084 8.083 8.083 0 0 0 8.084 8.084h47.427a8.084 8.084 0 0 0 8.084-8.084 8.083 8.083 0 0 0-8.084-8.084h-47.427z"/></svg>