<svg xmlns="http://www.w3.org/2000/svg" viewBox="0 0 512.003 512.003"><path d="M462.642 241.357a8.082 8.082 0 0 0 8.084-8.084V116.557c0-.582-.022-1.149-.059-1.706-1.021-24.428-23.408-46.407-66.54-65.321-26.707-11.711-52.841-18.482-59.873-20.201l-34.99-27.593c-.004-.003-.01-.005-.014-.01a8.171 8.171 0 0 0-1.022-.676c-.05-.028-.097-.058-.147-.085a7.97 7.97 0 0 0-1.26-.542 8.06 8.06 0 0 0-1.146-.293c-.057-.011-.114-.017-.172-.026a8.223 8.223 0 0 0-1.201-.101c-.015 0-.029-.003-.044-.003h-96.514c-.017 0-.033.004-.05.004a8.158 8.158 0 0 0-1.187.099c-.063.01-.124.017-.186.028a8.104 8.104 0 0 0-1.137.291c-.06.021-.12.041-.179.063-.37.134-.732.291-1.084.481-.049.026-.095.056-.143.083a8.149 8.149 0 0 0-1.039.687l-35.048 27.637c-6.909 1.817-33.13 9.079-59.93 21.326-25.24 11.538-43.354 23.989-54.236 37.226-.136.15-.266.305-.391.467-7.435 9.201-11.383 18.78-11.798 28.698a25.07 25.07 0 0 0-.059 1.708v303.889a8.084 8.084 0 0 0 5.967 7.802l55.269 14.996V454.355l.001 13.321a8.084 8.084 0 0 0 8.084 8.084h7.283v28.16a8.083 8.083 0 0 0 8.084 8.084h260.069a8.082 8.082 0 0 0 8.084-8.084v-28.16h7.284a8.082 8.082 0 0 0 8.084-8.084v-22.189l55.269-14.996a8.084 8.084 0 0 0 5.967-7.802V259.662a8.082 8.082 0 0 0-8.084-8.084 8.083 8.083 0 0 0-8.084 8.084v114.066l-45.07 11.774V171.04c0-.133-.005-.293-.012-.427-.095-1.926-1.718-45.641 41.557-67.203 2.087 3.928 3.321 7.997 3.483 12.194.003.087.009.176.015.263.016.225.026.454.026.69v116.716a8.09 8.09 0 0 0 8.089 8.084zm-53.154 160.856l45.07-11.774v26.064l-45.07 12.229v-26.519zM305.358 19.248l23.1 18.215-62.321 61.661c6.886-36.719 29.299-67.627 39.221-79.876zm-18.164-3.078c-9.458 12.635-22.753 33.175-31.192 58.031-8.44-24.855-21.735-45.396-31.193-58.031h62.385zm-80.55 3.079c9.926 12.252 32.336 43.159 39.22 79.875l-62.318-61.661 23.098-18.214zM103.647 429.038l-46.201-12.535V390.39l46.201 11.845v26.803zm.013-258.454a7.679 7.679 0 0 0-.013.455v214.504l-46.201-11.845V118.797c0-.237.011-.466.027-.692.005-.087.011-.175.014-.262.192-4.958 1.872-9.765 4.695-14.394 43.193 21.576 41.572 65.237 41.478 67.135zm50.975 324.573h-20.583v-18.725h20.583v18.725zm186.4.676H170.803v-20.076h12.098c4.466 0 8.084-3.619 8.084-8.084s-3.619-8.084-8.084-8.084h-63.085v-4.413c.012-.177.03-.351.03-.53V395.97c0-.123-.025-.24-.03-.362v-224.39c.087-2.204.365-16.399-5.877-33.222-5.435-14.646-16.901-33.889-40.968-47.138 24.272-21.966 71.043-38.391 95.968-45.1l78.977 78.142v335.689h-39.742c-4.466 0-8.084 3.619-8.084 8.084s3.618 8.084 8.084 8.084h132.859v20.076zm36.752-.676h-20.583v-18.725h20.583v18.725zm21.41-357.162c-6.244 16.827-5.964 31.025-5.877 33.224v288.368H264.086V123.899L343.13 45.69c25.487 6.365 73.954 22.501 97.657 44.83-24.489 13.259-36.109 32.705-41.59 47.475z"/><path d="M286.17 144.649h-1.546a8.083 8.083 0 0 0-8.084 8.084 8.083 8.083 0 0 0 8.084 8.084h1.546a8.082 8.082 0 0 0 8.084-8.084 8.083 8.083 0 0 0-8.084-8.084zM286.17 203.697h-1.546a8.082 8.082 0 0 0-8.084 8.084 8.083 8.083 0 0 0 8.084 8.084h1.546a8.083 8.083 0 0 0 8.084-8.084 8.083 8.083 0 0 0-8.084-8.084zM286.17 262.744h-1.546c-4.466 0-8.084 3.619-8.084 8.084s3.619 8.084 8.084 8.084h1.546a8.083 8.083 0 0 0 8.084-8.084 8.083 8.083 0 0 0-8.084-8.084zM286.17 380.837h-1.546c-4.466 0-8.084 3.619-8.084 8.084s3.619 8.084 8.084 8.084h1.546c4.466 0 8.084-3.619 8.084-8.084s-3.618-8.084-8.084-8.084zM286.17 321.79h-1.546a8.082 8.082 0 0 0-8.084 8.084 8.083 8.083 0 0 0 8.084 8.084h1.546a8.082 8.082 0 0 0 8.084-8.084 8.083 8.083 0 0 0-8.084-8.084zM320.593 340.187a8.084 8.084 0 0 0-2.167 11.225l36.457 53.895a8.073 8.073 0 0 0 6.703 3.556 8.084 8.084 0 0 0 6.689-12.614l-36.457-53.895a8.081 8.081 0 0 0-11.225-2.167zM191.411 340.187a8.08 8.08 0 0 0-11.225 2.167l-36.457 53.895a8.082 8.082 0 0 0 2.167 11.225 8.037 8.037 0 0 0 4.522 1.389 8.074 8.074 0 0 0 6.703-3.556l36.457-53.895a8.082 8.082 0 0 0-2.167-11.225z"/></svg>