<svg xmlns="http://www.w3.org/2000/svg" viewBox="0 0 512 512"><path d="M230.999 439.554V326.24a8.083 8.083 0 0 0-8.084-8.084H148.54a8.082 8.082 0 0 0-8.084 8.084v113.314a8.082 8.082 0 0 0 8.084 8.084h74.375a8.084 8.084 0 0 0 8.084-8.084zm-16.168-8.085h-58.206v-56.938c1.56.371 3.179.587 4.851.587h48.505c1.672 0 3.291-.217 4.851-.587v56.938zm0-77.368a4.857 4.857 0 0 1-4.851 4.851h-48.505a4.857 4.857 0 0 1-4.851-4.851v-19.778h58.206v19.778zM363.102 318.155h-74.375a8.082 8.082 0 0 0-8.084 8.084v113.314a8.082 8.082 0 0 0 8.084 8.084h74.375a8.082 8.082 0 0 0 8.084-8.084V326.239a8.084 8.084 0 0 0-8.084-8.084zm-8.084 113.314h-58.206v-56.938c1.56.371 3.179.587 4.851.587h48.505c1.672 0 3.291-.217 4.851-.587v56.938zm0-77.368a4.857 4.857 0 0 1-4.851 4.851h-48.505a4.857 4.857 0 0 1-4.851-4.851v-19.778h58.206v19.778z"/><path d="M454.933 251.45a8.082 8.082 0 0 0 8.084-8.084V134.238c0-10.934-3.696-20.719-9.644-29.4a8.03 8.03 0 0 0-1.12-1.586c-11.942-16.406-31.883-28.727-49.75-37.197C382.932 10.858 345.362.665 343.739.251c-.154-.04-.31-.056-.466-.086-.152-.029-.302-.064-.456-.085a7.476 7.476 0 0 0-.789-.058c-.097-.004-.191-.022-.29-.022H171.206c-.094 0-.184.017-.278.021-.267.01-.535.024-.803.059-.155.022-.306.056-.458.085-.155.03-.31.047-.466.087-1.61.412-38.928 10.55-58.555 65.261-27.98 13.073-61.664 35.673-61.664 68.724v291.476a8.084 8.084 0 0 0 5.967 7.802l52.985 14.377v21.131a8.082 8.082 0 0 0 8.084 8.084h6.712v26.808a8.082 8.082 0 0 0 8.084 8.084h250.367a8.082 8.082 0 0 0 8.084-8.084v-26.808h6.712a8.083 8.083 0 0 0 8.084-8.084v-21.131l52.986-14.377a8.084 8.084 0 0 0 5.967-7.802V270.847a8.083 8.083 0 0 0-8.084-8.084 8.083 8.083 0 0 0-8.084 8.084V419.53l-42.785 11.609V183.454c0-.133-.004-.293-.012-.427-.091-1.834-1.621-43.166 38.971-63.981 2.437 4.803 3.826 9.875 3.826 15.19v109.128a8.087 8.087 0 0 0 8.087 8.086zM343.875 17.497c7.683 3.475 24.533 13.654 37.394 39.696-8.745-3.196-15.02-4.963-16.462-5.357a8.065 8.065 0 0 0-1.674-.307 8.072 8.072 0 0 0-4.337.881L315.74 74.682c-1.119-3.124-4.096-5.361-7.604-5.361a8.083 8.083 0 0 0-8.084 8.084v5.393l-38.898 20.12 1.124-1.161 49.446-51.059.002-.002 18.303-18.9 13.846-14.299zm-30.347 174.168c0 2.974-2.419 5.393-5.393 5.393s-5.393-2.419-5.393-5.393c0-2.974 2.419-5.394 5.393-5.394s5.393 2.42 5.393 5.394zM256.471 84.511l-30.364-31.356h60.73l-30.366 31.356zm66.184-68.343l-10.996 11.354-9.165 9.464h-92.045l-11.428-11.801-8.733-9.018h132.367zm-153.593 1.324l76.154 78.641-1.369 1.414-1.131 1.167-28.403-14.692v-6.618a8.082 8.082 0 0 0-8.084-8.084 8.084 8.084 0 0 0-7.913 6.427L153.201 52.41a8.532 8.532 0 0 0-.808-.359c-.081-.031-.162-.057-.243-.085a7.844 7.844 0 0 0-.612-.188c-.088-.023-.176-.046-.264-.067a7.91 7.91 0 0 0-.695-.125c-.056-.008-.112-.019-.168-.026a8.012 8.012 0 0 0-.876-.052c-.015 0-.03-.003-.046-.003-.04 0-.08.008-.12.008a8.305 8.305 0 0 0-.803.053c-.08.01-.159.018-.237.029a8.05 8.05 0 0 0-.942.188c-.947.255-6.923 1.9-15.498 4.989 12.836-25.774 29.511-35.831 37.173-39.28zm42.562 174.173a5.399 5.399 0 0 1-5.393 5.393 5.399 5.399 0 0 1-5.393-5.393 5.4 5.4 0 0 1 5.393-5.394 5.4 5.4 0 0 1 5.393 5.394zM109.038 183a7.679 7.679 0 0 0-.013.455v247.98l-43.874-11.904V134.238c0-5.475 1.475-10.69 4.05-15.62 41.471 20.669 39.927 62.562 39.837 64.382zM138.9 495.832v-18.724h25.972c4.466 0 8.084-3.619 8.084-8.084s-3.618-8.084-8.084-8.084h-39.677V183.632c.084-2.161.344-15.868-5.677-32.093-5.316-14.328-16.609-33.208-40.459-46.017 10.789-10.902 26.32-19.881 40.961-26.536.141-.054.285-.092.424-.153 12.282-5.498 23.173-9.049 28.201-10.576l49.502 25.607v77.828c-7.892 3.206-13.477 10.945-13.477 19.974s5.585 16.768 13.477 19.974v16.674a8.082 8.082 0 0 0 8.084 8.084 8.082 8.082 0 0 0 8.084-8.084V211.64c7.892-3.206 13.477-10.945 13.477-19.974s-5.585-16.769-13.477-19.974v-69.466l33.599 17.38v341.333h-56.636a8.083 8.083 0 0 0-8.084 8.084 8.082 8.082 0 0 0 8.084 8.084h181.82v18.725H138.9zm254.672-344.293c-6.02 16.222-5.762 29.926-5.677 32.091v277.309H264.083V119.606L300.051 101v70.689c-7.892 3.206-13.477 10.945-13.477 19.974 0 9.028 5.585 16.768 13.477 19.974v16.674a8.082 8.082 0 0 0 8.084 8.084 8.082 8.082 0 0 0 8.084-8.084v-16.674c7.892-3.206 13.477-10.945 13.477-19.974 0-9.03-5.585-16.769-13.477-19.974V92.636l47.134-24.381c5.175 1.572 16.559 5.285 29.283 11.061.13.059.264.101.396.152 14.502 6.684 29.738 15.625 40.284 26.438-23.362 12.803-34.481 31.448-39.744 45.633z"/></svg>