<svg xmlns="http://www.w3.org/2000/svg" viewBox="0 0 512.002 512.002"><path d="M454.933 251.983a8.082 8.082 0 0 0-8.084 8.084v113.72l-42.785 11.61V183.454a8.082 8.082 0 0 0-8.084-8.084 8.082 8.082 0 0 0-8.084 8.084v42.078H264.083V119.605l99.271-51.35c5.175 1.572 16.559 5.285 29.283 11.061.134.06.269.103.404.156 25.74 11.864 53.807 30.84 53.807 54.764v4.686h-8.469c-12.298 0-22.303 10.005-22.303 22.304v26.859c0 12.298 10.005 22.303 22.303 22.303h8.469v23.271a8.082 8.082 0 0 0 8.084 8.084 8.082 8.082 0 0 0 8.084-8.084v-99.423c0-32.599-32.77-55.029-60.514-68.181C382.931 10.858 345.36.665 343.739.251c-.154-.039-.309-.056-.464-.086-.153-.03-.304-.065-.459-.085a8.367 8.367 0 0 0-.774-.057c-.102-.005-.201-.023-.303-.023H171.207c-.087 0-.171.016-.258.019a8.194 8.194 0 0 0-.826.061c-.153.02-.301.055-.451.084-.156.03-.314.047-.47.088-1.61.412-38.928 10.55-58.554 65.261-27.98 13.073-61.664 35.673-61.664 68.724v291.476a8.083 8.083 0 0 0 5.967 7.802l52.985 14.378V503.916A8.083 8.083 0 0 0 116.02 512H395.978a8.082 8.082 0 0 0 8.084-8.084V447.893l52.986-14.378a8.084 8.084 0 0 0 5.967-7.802V260.067a8.08 8.08 0 0 0-8.082-8.084zm-8.085-57.762h-8.469a6.14 6.14 0 0 1-6.134-6.134v-26.859a6.142 6.142 0 0 1 6.134-6.135h8.469v39.128zM322.656 16.168l-10.004 10.331-10.157 10.488H210.45l-9.082-9.379-11.079-11.44h132.367zm-153.592 1.324l76.154 78.641-1.637 1.692-.861.889-89.516-46.304a8.113 8.113 0 0 0-.805-.357c-.084-.032-.169-.059-.254-.089a8.086 8.086 0 0 0-1.561-.375c-.058-.008-.115-.02-.174-.027a8.03 8.03 0 0 0-.877-.052l-.044-.002c-.039 0-.077.008-.114.008a7.945 7.945 0 0 0-.814.054c-.077.009-.152.017-.229.028a8.102 8.102 0 0 0-.945.189c-.947.255-6.923 1.9-15.498 4.988 12.836-25.777 29.511-35.833 37.175-39.283zM65.153 155.091h9.474a6.142 6.142 0 0 1 6.134 6.135v26.859a6.14 6.14 0 0 1-6.134 6.134h-9.474v-39.128zm42.783 276.048l-42.784-11.61V390.54l42.784 11.61v28.989zm43.907 64.693h-26.618v-18.725h26.618v18.725zm96.072 0h-79.904v-18.725h79.904v18.725zm0-270.3h-36.697a8.082 8.082 0 0 0-8.084 8.084 8.082 8.082 0 0 0 8.084 8.084h36.697v219.238h-122.69V241.7h58.508a8.082 8.082 0 0 0 8.084-8.084 8.082 8.082 0 0 0-8.084-8.084h-59.628v-42.078c0-4.466-3.618-8.084-8.084-8.084s-8.084 3.618-8.084 8.084v201.943l-42.784-11.61V210.39h9.474c12.298 0 22.303-10.005 22.303-22.303v-26.859c0-12.299-10.005-22.304-22.303-22.304h-9.474v-4.686c0-24.256 28.847-43.424 54.869-55.252.14-.054.285-.091.424-.153 12.282-5.498 23.173-9.049 28.201-10.576l99.269 51.35v105.925zM226.107 53.155h60.73l-30.365 31.356-30.365-31.356zm117.769-35.658c7.683 3.474 24.532 13.654 37.393 39.694-8.769-3.205-15.054-4.972-16.472-5.359l-.182-.05c-.107-.029-.216-.046-.323-.071a8.068 8.068 0 0 0-4.644.324c-.289.109-.573.23-.85.373l-97.643 50.508 82.721-85.419zm1.231 478.335h-81.024v-18.725h81.024v18.725zm42.788 0h-26.619v-18.725h26.619v18.725zm0-99.865v64.971H264.084V241.7h123.811v154.267zm58.953 23.563l-42.785 11.61v-28.989l42.785-11.61v28.989z"/><path d="M351.706 417.061a8.073 8.073 0 0 0 6.645 3.472c1.592 0 3.2-.47 4.606-1.448a8.083 8.083 0 0 0 2.024-11.251l-45.027-64.777a8.083 8.083 0 0 0-13.275 9.227l45.027 64.777zM146.222 407.834a8.083 8.083 0 0 0 2.024 11.251 8.047 8.047 0 0 0 4.607 1.448 8.074 8.074 0 0 0 6.645-3.472l45.027-64.777a8.083 8.083 0 1 0-13.275-9.227l-45.028 64.777zM300.87 174.654c0 13.937 11.339 25.275 25.276 25.275 13.935 0 25.271-11.339 25.271-25.275 0-13.935-11.337-25.271-25.271-25.271-13.936 0-25.276 11.336-25.276 25.271zm34.38 0c0 5.022-4.083 9.107-9.103 9.107-5.022 0-9.107-4.085-9.107-9.107 0-5.02 4.085-9.103 9.107-9.103 5.02 0 9.103 4.083 9.103 9.103z"/></svg>