<svg xmlns="http://www.w3.org/2000/svg" viewBox="0 0 512 512"><path d="M454.932 262.763a8.084 8.084 0 0 0-8.084 8.084v102.94l-42.785 11.61V183.453a8.082 8.082 0 0 0-8.084-8.084 8.082 8.082 0 0 0-8.084 8.084v277.485H191.278a8.084 8.084 0 0 0-8.084 8.084 8.084 8.084 0 0 0 8.084 8.084h196.617v18.725H124.104v-18.724h40.767a8.084 8.084 0 0 0 0-16.168h-40.767V183.454a8.084 8.084 0 0 0-8.084-8.084 8.084 8.084 0 0 0-8.084 8.084v201.944l-42.784-11.61v-239.55c0-24.257 28.849-43.425 54.872-55.253.139-.054.282-.091.419-.152 12.283-5.498 23.174-9.049 28.201-10.576l49.502 25.606v128.695a8.084 8.084 0 0 0 8.084 8.084 8.083 8.083 0 0 0 8.084-8.084V102.225l37.969 19.64a8.08 8.08 0 0 0 7.429 0L300.051 101v121.557a8.083 8.083 0 0 0 8.084 8.084 8.084 8.084 0 0 0 8.084-8.084V92.636l47.134-24.381c5.175 1.572 16.559 5.285 29.283 11.061.132.059.266.102.4.154 25.741 11.864 53.812 30.841 53.812 54.767v109.128a8.082 8.082 0 0 0 8.084 8.084 8.082 8.082 0 0 0 8.084-8.084V134.238c0-32.599-32.77-55.03-60.514-68.182C382.931 10.859 345.36.666 343.738.252c-.155-.04-.312-.057-.467-.087-.151-.029-.3-.064-.454-.084a7.514 7.514 0 0 0-.791-.058c-.097-.005-.191-.023-.289-.023H171.206c-.087 0-.171.016-.259.019a8.114 8.114 0 0 0-.823.061c-.154.02-.304.055-.455.085-.155.03-.313.047-.467.087-1.61.412-38.927 10.55-58.554 65.261-27.98 13.073-61.664 35.673-61.664 68.723v291.477a8.083 8.083 0 0 0 5.967 7.802l52.985 14.377v56.022a8.084 8.084 0 0 0 8.084 8.084h279.959a8.082 8.082 0 0 0 8.084-8.084V447.89l52.986-14.377a8.084 8.084 0 0 0 5.967-7.802V270.847a8.082 8.082 0 0 0-8.084-8.084zM256.47 84.511l-30.364-31.356h60.73L256.47 84.511zm87.405-67.014c7.683 3.475 24.533 13.654 37.393 39.696-8.745-3.196-15.02-4.963-16.462-5.357a8.084 8.084 0 0 0-6.01.574L315.74 74.682c-1.119-3.124-4.096-5.361-7.604-5.361a8.083 8.083 0 0 0-8.084 8.084v5.393l-38.898 20.12 1.124-1.161 49.446-51.059.002-.002 18.303-18.9 13.846-14.299zm-21.221-1.329l-10.339 10.677-9.823 10.142h-92.045l-20.16-20.818h132.367zm-153.592 1.324l76.154 78.641-1.845 1.906-.654.675-28.401-14.692v-6.618a8.084 8.084 0 0 0-15.997-1.657L153.202 52.41a8.226 8.226 0 0 0-.805-.358c-.084-.032-.168-.059-.252-.088a8.013 8.013 0 0 0-1.543-.374c-.066-.009-.129-.023-.195-.03a8.042 8.042 0 0 0-.863-.052l-.054-.003c-.046 0-.093.009-.139.01a8.023 8.023 0 0 0-.774.051c-.085.01-.169.019-.254.031a7.973 7.973 0 0 0-.935.187c-.947.255-6.923 1.9-15.498 4.988 12.834-25.774 29.509-35.831 37.172-39.28zM107.936 431.14l-42.784-11.609v-28.99l42.784 11.611v28.988zm338.912-11.609l-42.785 11.609v-28.988l42.785-11.611v28.99z"/><path d="M314.46 299.973a8.082 8.082 0 0 0-8.084-8.084h-99.812a8.083 8.083 0 0 0-8.084 8.084c0 25.094-13.805 47.986-36.026 59.738a8.084 8.084 0 0 0-4.305 7.146v63.179a8.084 8.084 0 0 0 8.084 8.084h180.475a8.083 8.083 0 0 0 8.084-8.084v-63.177a8.084 8.084 0 0 0-4.305-7.146c-22.222-11.752-36.027-34.644-36.027-59.74zm24.164 121.979H174.318v-50.388c22.691-13.749 37.418-37.261 39.945-63.506h84.418c2.525 26.247 17.254 49.76 39.945 63.51v50.384z"/></svg>