<svg xmlns="http://www.w3.org/2000/svg" viewBox="0 0 512 512"><path d="M223.772 339.831h1.592a8.082 8.082 0 0 0 8.084-8.084 8.082 8.082 0 0 0-8.084-8.084h-1.592a8.082 8.082 0 0 0-8.084 8.084 8.082 8.082 0 0 0 8.084 8.084zM223.772 389.995h1.592a8.082 8.082 0 0 0 8.084-8.084 8.082 8.082 0 0 0-8.084-8.084h-1.592a8.082 8.082 0 0 0-8.084 8.084 8.082 8.082 0 0 0 8.084 8.084zM223.772 440.16h1.592a8.082 8.082 0 0 0 8.084-8.084 8.082 8.082 0 0 0-8.084-8.084h-1.592a8.082 8.082 0 0 0-8.084 8.084 8.082 8.082 0 0 0 8.084 8.084z"/><path d="M458.932 212.689a8.082 8.082 0 0 0 8.084-8.084v-18.56c0-81.176-48.991-111.989-51.077-113.262l-.005-.003-71.86-43.919L320.57 3.968a7.987 7.987 0 0 0-.664-.972A8.084 8.084 0 0 0 313.624 0H198.662c-.292 0-.581.017-.869.049-.096.011-.19.03-.285.044a17.01 17.01 0 0 0-.222.034c-.088.015-.176.023-.264.04-.029.005-.056.015-.084.022-.102.023-.203.053-.304.079a8.7 8.7 0 0 0-.537.153c-.092.031-.181.067-.273.101a8.42 8.42 0 0 0-.538.22c-.082.038-.162.079-.241.119a7.302 7.302 0 0 0-.523.285c-.076.045-.15.092-.224.139a7.942 7.942 0 0 0-.701.504c-.065.052-.132.102-.194.156-.049.041-.093.087-.14.13l-.122.113c-.063.058-.126.113-.186.174-.044.044-.087.087-.13.133-.013.014-.028.025-.041.039L167.925 28.86 96.066 72.78l-.005.003c-2.085 1.272-51.077 32.086-51.077 113.262V461.72a8.082 8.082 0 0 0 8.084 8.084H127.396c.15 0 .296-.014.444-.023l-3.393 33.316a8.083 8.083 0 0 0 8.042 8.904h48.71a8.082 8.082 0 0 0 8.084-8.084 8.083 8.083 0 0 0-8.084-8.084h-39.761l18.783-184.418a8.065 8.065 0 0 0-.155-2.592l-22.531-100.219c-.001-.01-.004-.018-.006-.028l-11.414-50.769a8.084 8.084 0 1 0-15.775 3.547l11.164 49.658-2.04 202.049H61.152V186.045c0-30.117 7.284-56 21.651-76.926 10.64-15.499 21.453-22.391 21.705-22.548l.003-.002 51.071-31.214-9.099 21.134a8.087 8.087 0 0 0 2.469 9.585l22.456 17.425-17.481 24.096a7.94 7.94 0 0 0-.676 1.13 8.044 8.044 0 0 0-.795 4.604c.089.722.275 1.429.554 2.105.023.054.044.108.068.162.152.346.323.683.525 1.007l.001.003 94.311 151.991v207.236h-38.689a8.083 8.083 0 0 0-8.084 8.084 8.082 8.082 0 0 0 8.084 8.084h170.285a8.077 8.077 0 0 0 5.998-2.666 8.09 8.09 0 0 0 2.044-6.238l-3.393-33.316c.148.009.294.023.444.023H458.932a8.082 8.082 0 0 0 8.084-8.084V231.545a8.083 8.083 0 0 0-8.084-8.084 8.082 8.082 0 0 0-8.084 8.084v181.514h-58.312l-2.04-202.062 11.161-49.646a8.084 8.084 0 0 0-6.115-9.66c-4.354-.984-8.68 1.758-9.66 6.115l-33.948 151.016a8.032 8.032 0 0 0-.155 2.591l18.783 184.418H264.083V288.593l94.309-151.991a8.083 8.083 0 0 0-.327-9.009l-17.481-24.095 22.458-17.426a8.085 8.085 0 0 0 2.469-9.585l-9.1-21.136 51.076 31.216.001.001c.109.068 10.996 6.947 21.708 22.551 14.366 20.926 21.651 46.809 21.651 76.926v18.561a8.084 8.084 0 0 0 8.085 8.083zM136.98 279.842l7.025 31.243-8.148 79.997 1.123-111.24zm-17.679 149.385l-.247 24.408H61.152v-24.408h58.149zm331.547 0v24.408h-57.902l-.247-24.408h58.149zm-82.853-118.142l7.025-31.247 1.123 111.244-8.148-79.997zM303.398 16.168l-6.592 31.712h-81.615L208.6 16.168h94.798zM163.809 77.134l16.113-37.428 13.958-14.781 7.671 37.224c-.31.307-.607.636-.872 1.002l-19.771 27.251-17.099-13.268zm6.396 55.559l18.888-26.035c.01-.013.016-.026.026-.039l16.818-23.182 32.971 159.979-68.703-110.723zm85.794 111.491L218.553 64.049h74.892l-37.446 180.135zm85.791-111.491l-68.701 110.719 32.957-159.908 29.464 40.612c.153.21.32.403.489.595l5.791 7.982zm-10.742-42.26l-20.582-28.37.964-4.674 6.851-32.295 13.793 14.608 16.115 37.432-17.141 13.299z"/></svg>