<svg xmlns="http://www.w3.org/2000/svg" viewBox="0 0 512 512"><path d="M456.417 226.69a8.082 8.082 0 0 0 8.084-8.084V112.348c0-1.341-.573-33.056-50.448-51.599-31.208-11.604-66.95-26.738-75.39-30.337L316.76 3.033A8.072 8.072 0 0 0 312.057.17c-.065-.013-.13-.022-.195-.033a8.094 8.094 0 0 0-1.151-.122c-.088-.003-.175-.015-.263-.015H200.392c-.091 0-.18.012-.269.015a8.208 8.208 0 0 0-1.078.111c-.109.018-.218.032-.324.056a8.32 8.32 0 0 0-.938.255l-.052.015c-.323.113-.637.25-.943.403-.093.046-.182.1-.273.151a8.358 8.358 0 0 0-.919.585 7.708 7.708 0 0 0-.555.452c-.083.073-.168.143-.249.221a8.157 8.157 0 0 0-.713.771l-21.908 27.386c-8.417 3.61-44.129 18.814-75.362 30.321-48.751 17.961-49.312 50.241-49.312 51.606v332.486a8.084 8.084 0 0 0 5.572 7.684l54.67 17.874v33.522a8.083 8.083 0 0 0 8.084 8.084h57.073a8.082 8.082 0 0 0 8.084-8.084 8.082 8.082 0 0 0-8.084-8.084h-48.989V167.955c0-4.466-3.619-8.084-8.084-8.084s-8.084 3.618-8.084 8.084v241.65l-44.073-14.972V112.442c.06-1.36 1.613-22.854 38.733-36.531 19.335-7.124 40.327-15.631 55.669-22.001l-16.795 28.886a8.084 8.084 0 0 0 1.693 10.172l30.338 26.296-12.233 29.361c-.015.037-.024.074-.038.111-.104.259-.193.52-.268.783-.025.087-.045.174-.067.261a7.636 7.636 0 0 0-.144.707c-.012.08-.026.158-.036.238a8.055 8.055 0 0 0-.066.888l-.002.046c-.003.322.016.641.051.959.008.064.019.126.028.19a7.786 7.786 0 0 0 .199.996c.064.238.138.472.222.704.023.064.042.128.067.191.113.288.245.569.391.843.032.06.07.119.103.178.126.222.262.438.409.647.026.037.044.075.071.112l91.718 126.468v212.884h-52.792a8.083 8.083 0 0 0-8.084 8.084 8.082 8.082 0 0 0 8.084 8.084h194.099a8.082 8.082 0 0 0 8.084-8.084v-33.146l55.827-18.252c.235-.077.451-.185.675-.282.166-.071.341-.127.499-.209.216-.111.412-.249.614-.377.155-.098.321-.182.469-.291.189-.138.355-.3.529-.453.141-.123.293-.234.425-.367.163-.164.302-.348.449-.526.12-.143.252-.276.362-.427.137-.189.247-.396.368-.596.095-.157.204-.305.288-.469.109-.212.188-.441.278-.663.068-.167.151-.326.208-.498.086-.262.138-.536.197-.807.031-.144.081-.282.105-.429a8.14 8.14 0 0 0 .103-1.292V245.012a8.082 8.082 0 0 0-8.084-8.084 8.082 8.082 0 0 0-8.084 8.084v149.623L403.099 410V167.955a8.082 8.082 0 0 0-8.084-8.084 8.082 8.082 0 0 0-8.084 8.084v327.876H269.876V280.418a7.997 7.997 0 0 0-.239-2.048l-2.184-9.683 81.141-111.883a8.08 8.08 0 0 0 1.141-8.227l-.679-1.599-11.546-27.713 30.339-26.296a8.082 8.082 0 0 0 1.693-10.173l-16.835-28.954c15.347 6.355 36.371 14.872 55.711 22.062 38.143 14.181 39.844 35.166 39.913 36.55v106.15a8.088 8.088 0 0 0 8.086 8.086zM107.738 426.682v26.697l-44.073-14.408v-27.262l44.073 14.973zm296.522 0l44.073-14.973v27.228l-44.073 14.137v-26.392zM300.312 16.168l-6.461 28.648h-76.887l-6.462-28.648h89.81zM158.613 85.136l25.296-43.508 12.293-15.368.11.486 5.727 25.392-21.923 51.634-21.503-18.636zm19.148 65.554l30.372-71.532 37.124 164.602-67.496-93.07zm42.848-89.705h69.595l-34.798 154.291-34.797-154.291zm44.949 182.774l37.128-164.62 30.376 71.54-67.504 93.08zm65.15-139.994l-21.922-51.627 5.828-25.874 12.291 15.364 25.296 43.508-21.493 18.629z"/><path d="M233.391 323.168h1.546a8.082 8.082 0 0 0 8.084-8.084 8.082 8.082 0 0 0-8.084-8.084h-1.546a8.084 8.084 0 0 0 0 16.168zM233.391 381.864h1.546a8.082 8.082 0 0 0 8.084-8.084 8.082 8.082 0 0 0-8.084-8.084h-1.546a8.084 8.084 0 0 0 0 16.168zM233.391 440.56h1.546a8.082 8.082 0 0 0 8.084-8.084 8.082 8.082 0 0 0-8.084-8.084h-1.546a8.083 8.083 0 0 0-8.084 8.084 8.084 8.084 0 0 0 8.084 8.084z"/></svg>