<svg xmlns="http://www.w3.org/2000/svg" viewBox="0 0 512 512"><path d="M382.514 36.015c-24.488-8.905-56.625-34.017-56.946-34.27A8.182 8.182 0 0 0 320.518 0H191.483c-.214 0-.422.036-.633.053-.206.016-.412.02-.617.051-.257.04-.505.111-.756.174-.196.05-.395.085-.588.15-.269.09-.524.214-.783.331-.164.074-.332.131-.493.217a8.086 8.086 0 0 0-1.18.768c-.181.142-10.403 8.13-23.669 16.681l-.082.052a304.842 304.842 0 0 1-4.165 2.635l-.821.507c-.375.231-.753.462-1.133.693-.353.216-.706.432-1.062.645l-.499.299a241.89 241.89 0 0 1-2.794 1.653l-.33.193c-.547.318-1.097.633-1.647.947-6.955 3.962-14.128 7.555-20.745 9.961-30.261 11.01-70.492 37.975-70.492 144.637v249.512a8.175 8.175 0 0 0 8.176 8.176h64.449c-5.373 36.472-12.392 62.815-12.538 63.354A8.174 8.174 0 0 0 126.972 512H179a8.174 8.174 0 0 0 8.176-8.175 8.175 8.175 0 0 0-8.176-8.176h-41.555c7.149-30.139 25.537-119.639 11.543-192.272-2.694-13.982-4.758-25.162-6.499-35.183-.022-.117-.044-.235-.069-.352-18.617-84.851-2.689-127.615-2.526-128.038a8.175 8.175 0 0 0-15.214-5.99c-.747 1.884-18.03 47.128 1.73 137.356 1.752 10.076 3.826 21.3 6.523 35.302 4.376 22.712 5.345 47.503 4.441 71.565H75.346v-197.39c0-95.32 31.919-119.153 59.727-129.265 5.781-2.102 11.845-4.945 17.817-8.121l63.657 61.936a8.156 8.156 0 0 0 10.561.704v94.849a8.174 8.174 0 0 0 8.176 8.175h41.433a8.174 8.174 0 0 0 8.176-8.175v-53.417c0-4.516-3.659-8.176-8.176-8.176s-8.175 3.659-8.175 8.176v11.306h-25.083v-69.36l12.385-12.716 12.697 13.036v31.577c0 4.516 3.659 8.175 8.175 8.175s8.176-3.659 8.176-8.175v-15.044a8.16 8.16 0 0 0 4.549 1.38c2.055 0 4.111-.77 5.7-2.316l63.767-62.043c6.038 3.22 12.172 6.103 18.018 8.229 27.809 10.112 59.728 33.945 59.728 129.265v197.39h-62.66c-.9-24.055.07-48.843 4.448-71.565 2.702-14.023 4.778-25.247 6.524-35.301 19.761-90.228 2.476-135.474 1.73-137.357-1.665-4.199-6.418-6.253-10.612-4.589a8.175 8.175 0 0 0-4.589 10.612c.165.415 16.226 42.489-2.539 128.006-.025.117-.048.235-.069.353-1.735 9.998-3.801 21.177-6.5 35.182-13.993 72.633 4.395 162.131 11.545 192.272h-168.77a8.175 8.175 0 0 0-8.176 8.176 8.174 8.174 0 0 0 8.176 8.175h179.242a8.175 8.175 0 0 0 7.891-10.312c-.146-.539-7.172-26.877-12.548-63.353h65.083a8.174 8.174 0 0 0 8.175-8.176V180.646c0-106.661-40.23-133.626-70.491-144.631zM136.479 394.388a566.65 566.65 0 0 1-2.664 27.568l-58.469-.451v-27.117h61.133zm106.98-219.398h25.083v17.584h-25.083V174.99zm-14.032-94.739l-.005.005-7.329 7.524-54.509-53.036c9.763-6.078 18.265-12.138 23.495-16.008l52.768 46.708-14.42 14.807zm-16.373-63.9h85.58l-42.79 37.876-42.79-37.876zm76.541 71.429l-7.019-7.206-.003-.004-14.732-15.125 52.771-46.711c5.228 3.863 13.735 9.924 23.5 16.004L289.595 87.78zm147.059 333.725l-59.104.456a565.335 565.335 0 0 1-2.664-27.572h61.768v27.116z"/></svg>