<svg xmlns="http://www.w3.org/2000/svg" viewBox="0 0 512 512"><path d="M265.458 22.481H243.81a8.082 8.082 0 0 0-8.084 8.084 8.084 8.084 0 0 0 8.084 8.084h21.648a8.082 8.082 0 0 0 8.084-8.084 8.082 8.082 0 0 0-8.084-8.084zM302.383 176.353a8.082 8.082 0 0 0-8.084 8.084 8.082 8.082 0 0 0 8.084 8.084h47.427a8.083 8.083 0 0 0 8.084-8.084 8.082 8.082 0 0 0-8.084-8.084h-47.427zM217.345 184.437a8.082 8.082 0 0 0-8.084-8.084h-47.427a8.082 8.082 0 0 0-8.084 8.084 8.082 8.082 0 0 0 8.084 8.084h47.427a8.082 8.082 0 0 0 8.084-8.084z"/><path d="M474.933 236.227c-.373-4.45-4.295-7.739-8.73-7.383a8.085 8.085 0 0 0-7.383 8.73c5.448 65.115 5.435 137.363 4.73 180.702l-69.693 10.477v-238.74c0-4.466-3.619-8.084-8.084-8.084s-8.084 3.618-8.084 8.084V495.831H276.872V98.249a8.084 8.084 0 0 0 8.841.53c26.351-15.099 36.656-34.478 40.664-46.493 18.182 8.929 60.182 29.587 94.529 46.713 9.036 4.506 25.654 25.165 35.427 112.899.495 4.438 4.507 7.628 8.929 7.14a8.085 8.085 0 0 0 7.14-8.929c-8.215-73.74-22.699-114.818-44.282-125.579-39.54-19.716-89.201-44.101-101.092-49.936-1.845-4.005-5.141-10.53-9.572-16.839-.171-.245-.348-.487-.523-.731-.151-.21-.3-.42-.453-.629-4.871-6.66-10.99-12.843-17.957-15.252l-.233-.083c-.12-.04-.237-.089-.358-.127-.095-.029-.191-.042-.287-.068C295.851.316 294.003 0 292.101 0H219.91c-1.664 0-3.29.235-4.873.66a8.156 8.156 0 0 0-1.206.272c-14.408 4.502-25.284 25.382-29.161 33.816-12.396 6.083-61.555 30.224-100.777 49.781-16.222 8.09-28.247 32.766-36.763 75.442-6.385 32.003-10.826 74.281-13.197 125.663-2.488 53.911-2.151 106.834-1.524 139.566 0 .07-.009.14-.008.21.322 16.536.723 27.984.857 31.584l.01.259v.004c.022.572.034.903.037.951.006.155.024.308.039.461.009.083.011.167.022.248.006.046.017.092.024.139a8.063 8.063 0 0 0 6.674 6.797l78.091 12.921v25.142a8.082 8.082 0 0 0 8.084 8.084h49.83a8.082 8.082 0 0 0 8.084-8.084 8.083 8.083 0 0 0-8.084-8.084h-41.746V190.014a8.082 8.082 0 0 0-8.084-8.084 8.082 8.082 0 0 0-8.084 8.084v238.74l-69.699-10.478c-.537-32.712-.679-81.873 1.629-131.897 7.117-154.209 31.06-182.413 41.023-187.382 34.216-17.061 76.025-37.625 94.317-46.609 4.032 12.023 14.351 31.332 40.628 46.389a8.08 8.08 0 0 0 8.839-.528v397.583h-31.875a8.083 8.083 0 0 0-8.084 8.084 8.083 8.083 0 0 0 8.084 8.084h182.756a8.082 8.082 0 0 0 8.084-8.084v-25.141l78.091-12.921a8.075 8.075 0 0 0 5.165-3.149c.086-.115.164-.237.244-.357.045-.069.096-.135.139-.205a8.03 8.03 0 0 0 1.126-3.088c.006-.046.018-.092.024-.139.011-.082.013-.166.022-.248.015-.153.032-.306.039-.461l.038-.995c.125-3.34.536-14.923.866-31.803.001-.098-.01-.195-.012-.293.809-42.701 1.12-119.725-4.666-188.889zM118.155 445.104v17.282l-68.924-11.404c-.125-3.899-.288-9.435-.45-16.307l69.374 10.429zm119.35-371.156l-.015.015-8.399 7.721c-23.174-15.194-28.568-33.426-29.764-39.571 2.188-4.881 4.982-9.881 7.894-14.175 4.337 19.727 22.981 34.223 34.964 41.707l-4.68 4.303zm23.198 421.884h-9.643V83.448l3.787-3.482 1.035-.952 4.821 4.432v412.386zM255.882 58.92c-9.585-5.289-35.754-21.772-33.119-42.751h66.24c2.635 20.983-23.545 37.468-33.121 42.751zm18.378 15.028l-4.679-4.302c12.031-7.515 30.785-22.096 35.022-41.947 3.076 4.526 5.899 9.67 7.905 14.033-1.068 5.83-6.226 24.474-29.834 39.952l-8.409-7.731-.005-.005zm188.52 377.033l-68.923 11.404v-17.282l69.369-10.429c-.16 6.872-.32 12.41-.446 16.307z"/></svg>