<svg xmlns="http://www.w3.org/2000/svg" viewBox="0 0 512 512"><path d="M481.659 214.35L440.952 81.674l-.025-.081c-5.244-17.002-19.182-26.505-23.334-29.015l-.157-.094-76.062-43.66C338.857 7.157 326.826 0 305.838 0h-99.676c-20.989 0-33.019 7.157-35.536 8.824l-11.332 6.505-2.058 1.181-.001.001-62.669 35.975a3.97 3.97 0 0 0-.155.093c-4.151 2.507-18.086 12.005-23.334 29.007l-.028.089L30.341 214.35a8.085 8.085 0 0 0 4.938 9.959l68.195 25.083V503.917a8.084 8.084 0 0 0 8.084 8.084h288.884a8.082 8.082 0 0 0 8.084-8.084V345.743c0-4.466-3.619-8.084-8.084-8.084s-8.084 3.619-8.084 8.084v118.091H201.519a8.083 8.083 0 0 0-8.084 8.084 8.084 8.084 0 0 0 8.084 8.084h190.839v15.829H119.642v-15.83h53.313a8.083 8.083 0 0 0 8.084-8.084 8.084 8.084 0 0 0-8.084-8.084h-53.313V168.575a8.084 8.084 0 0 0-16.168 0v27.162l-45.266-17.088 28.277-92.164.027-.086c3.521-11.477 13.184-18.113 16.187-19.939l56.027-32.161c6.998 9.899 39.615 55.914 50.162 68.439 3.263 3.875 7.633 5.923 12.634 5.924h.003c2.878 0 5.833-.743 8.774-1.989v94.239a8.084 8.084 0 0 0 8.084 8.084h31.998a8.082 8.082 0 0 0 8.084-8.084V106.672c2.942 1.246 5.897 1.99 8.776 1.99 5.003 0 9.371-2.048 12.637-5.924 11.144-13.237 46.937-63.868 51.095-69.759L409.3 66.461c3.004 1.828 12.667 8.467 16.187 19.94l.025.077 28.281 92.174-45.266 17.088v-27.162a8.082 8.082 0 0 0-8.084-8.084 8.082 8.082 0 0 0-8.084 8.084v150.219a8.082 8.082 0 0 0 8.084 8.084 8.082 8.082 0 0 0 8.084-8.084v-69.404l68.195-25.083a8.085 8.085 0 0 0 4.937-9.96zm-378.185-1.331v19.146l-55.431-20.387 5.412-17.64 50.019 18.881zM301.289 16.168l-46.906 46.929-46.906-46.929h93.812zm-66.267 67.704c-.206.191-.413.386-.618.572-.205.186-.413.369-.62.553-4.962 4.424-9.571 7.497-12.258 7.497l-.095-.002h-.015a1.648 1.648 0 0 1-.162-.169c-9.622-11.428-40.059-54.266-48.444-66.109l6.123-3.515a6.94 6.94 0 0 0 .496-.31l.069-.045.005-.003c.068-.045 2.76-1.796 7.859-3.422l56.115 56.143c-2.269 2.609-5.231 5.814-8.455 8.81zm27.276 108.956h-15.83v-16.253h15.83v16.253zm.001-32.422h-15.831V95.43c2.942-2.74 5.624-5.577 7.916-8.168 2.292 2.591 4.973 5.427 7.915 8.167v64.977zm25.212-68.084c-.078.093-.135.147-.147.165a1.173 1.173 0 0 1-.123.005c-2.728 0-7.436-3.163-12.483-7.694-.112-.101-.226-.201-.337-.302-.282-.257-.567-.524-.852-.788-3.156-2.95-6.053-6.086-8.283-8.649l56.131-56.16c5.098 1.628 7.776 3.393 7.778 3.393.205.144.418.28.636.405l6.122 3.514c-8.383 11.845-38.819 54.683-48.442 66.111zm121.015 139.841v-19.146l50.019-18.88 5.412 17.639-55.431 20.387z"/><path d="M309.207 160.491a8.083 8.083 0 0 0-8.084 8.084 8.083 8.083 0 0 0 8.084 8.084h46.349a8.082 8.082 0 0 0 8.084-8.084 8.083 8.083 0 0 0-8.084-8.084h-46.349z"/></svg>