<svg xmlns="http://www.w3.org/2000/svg" viewBox="0 0 511.998 511.998"><path d="M312.497 399.061c3.699 2.497 8.726 1.526 11.224-2.174 9.13-13.513 13.954-29.307 13.954-45.675 0-45.04-36.642-81.682-81.681-81.682-45.04 0-81.682 36.642-81.682 81.682s36.642 81.682 81.682 81.682c16.695 0 32.754-5.007 46.438-14.477a8.085 8.085 0 0 0-9.203-13.295c-10.968 7.591-23.843 11.604-37.236 11.604-36.125 0-65.513-29.39-65.513-65.513s29.39-65.513 65.513-65.513 65.512 29.39 65.512 65.513c0 13.13-3.867 25.794-11.184 36.625a8.086 8.086 0 0 0 2.176 11.223z"/><path d="M212.272 351.213c0 24.108 19.613 43.723 43.723 43.723 24.108 0 43.723-19.613 43.723-43.723s-19.613-43.723-43.723-43.723c-24.109.001-43.723 19.614-43.723 43.723zm71.277 0c0 15.193-12.361 27.554-27.554 27.554-15.194 0-27.554-12.361-27.554-27.554s12.361-27.554 27.554-27.554c15.193 0 27.554 12.361 27.554 27.554z"/><path d="M430.602 280.792a8.083 8.083 0 0 0-8.084 8.084v127.733a80.01 80.01 0 0 1-.103 4.083c-2.135 42.135-36.889 75.14-79.117 75.14H168.701c-42.23 0-76.982-33.005-79.117-75.142a81.068 81.068 0 0 1-.103-4.081V185.141a7.106 7.106 0 0 1 7.099-7.099h25.437v56.046a8.082 8.082 0 0 0 8.084 8.084h38.74a8.082 8.082 0 0 0 8.084-8.084v-56.046h14.587c1.756 0 3.938 0 4.067 3.475v2.99c0 12.83 10.438 23.27 23.271 23.27h74.302c12.829 0 23.267-10.439 23.267-23.27v-2.99c.129-3.475 2.312-3.475 4.067-3.475h14.587v56.046a8.082 8.082 0 0 0 8.084 8.084h38.74a8.082 8.082 0 0 0 8.084-8.084v-56.046h25.437a7.106 7.106 0 0 1 7.099 7.099v75.708a8.08 8.08 0 0 0 8.082 8.084 8.082 8.082 0 0 0 8.084-8.084v-75.708c0-12.829-10.438-23.267-23.267-23.267h-25.439V46.822c0-.106-.012-.209-.016-.314a8.017 8.017 0 0 0-.441-2.345l-.04-.11a8.037 8.037 0 0 0-1.043-1.964l-.098-.131a7.945 7.945 0 0 0-.77-.888L348.874 2.368A8.084 8.084 0 0 0 343.157 0H168.838a8.089 8.089 0 0 0-5.716 2.367l-38.741 38.737c-.016.016-.029.036-.045.053a7.83 7.83 0 0 0-.64.745c-.06.079-.121.157-.178.237-.196.275-.38.561-.541.859-.026.05-.047.101-.072.151a8.077 8.077 0 0 0-.36.818c-.033.087-.067.174-.096.262-.108.32-.203.646-.271.982-.012.057-.016.114-.026.171a8.073 8.073 0 0 0-.123 1.21c-.002.077-.012.15-.012.226V161.87H96.579c-12.829 0-23.267 10.438-23.267 23.267v231.467c0 1.638.042 3.289.124 4.902 2.572 50.742 44.417 90.489 95.265 90.489h174.596c50.849 0 92.694-39.747 95.265-90.487a97.21 97.21 0 0 0 .124-4.904V288.876a8.082 8.082 0 0 0-8.084-8.084zm-56.792-54.788h-22.569v-21.792h22.569v21.792zm0-37.959h-22.569V137.972a8.082 8.082 0 0 0-8.084-8.084 8.082 8.082 0 0 0-8.084 8.084v23.902h-14.587v-.001c-13.549 0-19.986 10.006-20.233 19.303a7.635 7.635 0 0 0-.003.214v3.116a7.108 7.108 0 0 1-7.102 7.101h-74.302c-3.915 0-7.099-3.185-7.099-7.101v-3.116c0-.071-.001-.143-.003-.214-.247-9.297-6.683-19.303-20.233-19.303H176.92V54.906h158.153v55.039a8.082 8.082 0 0 0 8.084 8.084 8.082 8.082 0 0 0 8.084-8.084V54.906h22.569v133.139zM172.186 16.168h167.623l22.568 22.569H149.616l22.57-22.569zm-34.002 153.79V54.906h22.569v133.138h-22.569v-18.086zm-.001 34.255h22.569v21.792h-22.569v-21.792z"/></svg>