<svg xmlns="http://www.w3.org/2000/svg" viewBox="0 0 512 512"><path d="M424.898 272.032h-1.241V167.658C423.657 75.21 348.446 0 255.999 0S88.342 75.21 88.342 167.658v104.375h-1.237c-14.74 0-26.733 11.992-26.733 26.732v38.849c0 14.74 11.993 26.732 26.733 26.732h1.237v123.679c0 13.221 10.756 23.977 23.976 23.977H173.6c4.466 0 8.084-3.618 8.084-8.084s-3.618-8.084-8.084-8.084h-61.283c-4.305 0-7.807-3.503-7.807-7.808v-75.514c11.539 13.577 28.303 22.566 47.16 23.833v8.359c0 12.491 10.161 22.652 22.651 22.652 12.491 0 22.652-10.161 22.652-22.652v-8.187h118.054v8.187c0 12.491 10.161 22.652 22.652 22.652 12.49 0 22.651-10.161 22.651-22.652v-8.359c18.857-1.268 35.621-10.256 47.16-23.833v75.513c0 4.305-3.502 7.808-7.807 7.808H200.547c-4.466 0-8.084 3.618-8.084 8.084s3.618 8.084 8.084 8.084H399.68c13.22 0 23.976-10.756 23.976-23.977V364.347h1.241c14.74 0 26.732-11.992 26.732-26.732v-38.849c0-14.742-11.991-26.734-26.731-26.734zM88.341 296.007v52.169h-1.237v.001c-5.825 0-10.564-4.738-10.564-10.563v-38.849c0-5.824 4.738-10.563 10.564-10.563h1.237v7.805zm16.169-128.349c0-83.531 67.957-151.489 151.489-151.489s151.489 67.958 151.489 151.489v104.375h-1.238c-1.067 0-2.16.095-3.261.234a24.063 24.063 0 0 0-3.308-.234H112.317c-1.122 0-2.225.083-3.307.234-1.099-.138-2.192-.234-3.26-.234h-1.241V167.658zm76.294 260.773v16.271c0 3.574-2.908 6.484-6.484 6.484s-6.482-2.908-6.482-6.484v-33.768c0-3.574 2.907-6.484 6.482-6.484s6.484 2.908 6.484 6.484v17.497zm163.356 0v16.271a6.49 6.49 0 0 1-6.482 6.484 6.491 6.491 0 0 1-6.484-6.484v-33.768a6.492 6.492 0 0 1 6.484-6.484 6.49 6.49 0 0 1 6.482 6.484v17.497zm63.332-97.991V368.594c-.003 26.987-20.77 49.219-47.163 51.551v-9.212c0-12.491-10.161-22.652-22.651-22.652-12.491 0-22.652 10.161-22.652 22.652v9.413H196.972v-9.413c0-12.491-10.161-22.652-22.652-22.652-12.49 0-22.651 10.161-22.651 22.652v9.212c-26.393-2.333-47.16-24.564-47.16-51.553v-72.584c0-.25.014-.497.038-.742.009-.094.025-.185.037-.279.019-.147.04-.293.067-.438.022-.113.048-.225.075-.337a6.834 6.834 0 0 1 .204-.71 8.868 8.868 0 0 1 .259-.666 7.04 7.04 0 0 1 .147-.303c.055-.109.108-.219.167-.326.065-.115.136-.227.206-.34.053-.084.102-.171.158-.253a8.24 8.24 0 0 1 .419-.56c.019-.025.042-.046.063-.07.136-.162.278-.319.427-.469.031-.032.065-.061.097-.093a7.4 7.4 0 0 1 .445-.404l.1-.081c.16-.129.324-.253.495-.37l.089-.06c.18-.12.364-.232.554-.336l.072-.04c.204-.11.412-.21.626-.302l.038-.017a7.778 7.778 0 0 1 3.025-.61h287.364c1.073 0 2.094.218 3.026.61l.037.016a7.867 7.867 0 0 1 1.253.679l.091.061c.17.116.334.24.494.37l.1.081a7.4 7.4 0 0 1 .445.404c.032.031.066.06.097.093.149.15.29.307.427.469.021.024.043.046.063.07.149.18.288.368.42.562.056.082.105.168.157.252.07.112.141.223.206.34.06.107.113.218.168.328.05.1.1.199.146.302.052.115.098.233.144.35a7.018 7.018 0 0 1 .228.671c.033.117.064.236.092.355.027.112.053.223.075.337.027.144.047.291.067.438.012.093.028.185.037.279.023.245.038.492.038.742v34.429zm27.969 7.173c0 5.824-4.738 10.563-10.563 10.563h-1.241V288.201h1.241c5.824 0 10.563 4.738 10.563 10.563v38.849z"/><path d="M337.678 318.821h-4.55c-4.466 0-8.084 3.619-8.084 8.084s3.618 8.084 8.084 8.084h4.55c4.466 0 8.084-3.618 8.084-8.084s-3.62-8.084-8.084-8.084zM306.541 318.821H174.32c-4.466 0-8.084 3.619-8.084 8.084s3.618 8.084 8.084 8.084h132.221c4.466 0 8.084-3.618 8.084-8.084s-3.619-8.084-8.084-8.084z"/></svg>