<svg xmlns="http://www.w3.org/2000/svg" viewBox="0 0 512 512"><path d="M349.65 153.353h-187.3c-4.466 0-8.084 3.618-8.084 8.084s3.618 8.084 8.084 8.084h187.3c4.466 0 8.084-3.619 8.084-8.084s-3.619-8.084-8.084-8.084z"/><path d="M489.369 87.888H357.734v-47.85c0-10.591-7.516-19.457-17.493-21.555-2.627-9.591-11.395-16.669-21.808-16.669H193.566c-10.413 0-19.183 7.079-21.809 16.669-9.977 2.099-17.492 10.963-17.492 21.555V87.89H22.631C10.153 87.888 0 98.041 0 110.52V487.552c0 12.479 10.153 22.631 22.631 22.631h58.063c4.466 0 8.084-3.618 8.084-8.084s-3.618-8.084-8.084-8.084H22.631a6.469 6.469 0 0 1-6.463-6.463V346.96a76.916 76.916 0 0 0 21.912 19.13v87.327c0 11.248 9.149 20.398 20.397 20.398h307.857c4.466 0 8.084-3.618 8.084-8.084s-3.618-8.084-8.084-8.084H58.478a4.234 4.234 0 0 1-4.229-4.23V373.17a74.96 74.96 0 0 0 6.701 1.688l.096.019a75.35 75.35 0 0 0 7.419 1.137c.122.013.246.022.368.033 1.041.101 2.086.18 3.136.239a77.994 77.994 0 0 0 4.4.136h130.33v1.615c0 12.479 10.153 22.631 22.631 22.631h53.34c12.479 0 22.631-10.153 22.631-22.631v-1.615h130.33c1.192 0 2.379-.037 3.561-.091.28-.013.56-.03.84-.045a77.229 77.229 0 0 0 3.131-.239l.372-.033a75.588 75.588 0 0 0 7.515-1.156 75.348 75.348 0 0 0 6.699-1.688v80.247a4.234 4.234 0 0 1-4.229 4.23h-58.084c-4.466 0-8.084 3.618-8.084 8.084s3.618 8.084 8.084 8.084h58.084c11.248 0 20.397-9.15 20.397-20.398V366.09a76.903 76.903 0 0 0 21.912-19.13v140.592a6.469 6.469 0 0 1-6.463 6.463H108.719c-4.466 0-8.084 3.618-8.084 8.084s3.618 8.084 8.084 8.084h380.649c12.479 0 22.631-10.153 22.631-22.631V110.52c.001-12.479-10.152-22.632-22.63-22.632zM187.102 26.093v-1.646a6.47 6.47 0 0 1 6.464-6.463h124.867a6.469 6.469 0 0 1 6.463 6.463v6.063a6.469 6.469 0 0 1-6.463 6.463H193.566a6.47 6.47 0 0 1-6.464-6.463v-4.417zm-16.668 13.946c0-1.376.477-2.644 1.275-3.646.045.167.106.327.155.492a22.815 22.815 0 0 0 .691 1.989c.091.227.179.456.277.68.197.451.414.889.639 1.325.087.169.167.343.259.51.327.593.676 1.172 1.053 1.731.064.094.136.181.201.275.32.46.654.911 1.008 1.346.144.178.297.346.446.518.293.34.593.674.904.995a22.214 22.214 0 0 0 1.5 1.406c.188.161.373.322.566.478.368.295.747.575 1.133.847.167.117.328.242.497.356.562.375 1.137.73 1.732 1.053.058.032.121.057.179.088.539.288 1.09.554 1.653.798.206.089.418.166.627.249.429.17.861.333 1.303.477.244.08.489.152.736.223.427.124.859.235 1.296.334.252.057.504.114.76.163.469.089.943.157 1.422.218.226.028.449.065.677.086a22.7 22.7 0 0 0 2.145.109h124.867a22.7 22.7 0 0 0 2.145-.109c.229-.022.452-.058.677-.086.477-.06.953-.128 1.421-.218.257-.049.508-.106.761-.164.435-.099.867-.209 1.292-.333.248-.072.496-.144.74-.225.439-.144.869-.305 1.295-.474.211-.084.426-.162.635-.252a22.239 22.239 0 0 0 1.638-.79c.064-.033.13-.061.194-.096a22.818 22.818 0 0 0 1.729-1.052c.172-.115.335-.241.504-.361.384-.272.761-.549 1.126-.843.193-.155.38-.318.568-.48a24.662 24.662 0 0 0 1.5-1.408c.312-.321.61-.653.902-.993.15-.174.303-.343.447-.521a22.51 22.51 0 0 0 1.009-1.348c.065-.093.136-.179.198-.272.377-.559.727-1.139 1.054-1.732.091-.165.169-.337.255-.504.226-.437.444-.877.641-1.33.098-.223.186-.452.277-.678a21.786 21.786 0 0 0 .692-1.992c.049-.165.11-.324.154-.49a5.83 5.83 0 0 1 1.276 3.647v47.851H170.434V40.039zM289.133 368.34v9.699a6.469 6.469 0 0 1-6.463 6.463h-53.34a6.469 6.469 0 0 1-6.463-6.463v-19.398a6.469 6.469 0 0 1 6.463-6.463h53.34a6.469 6.469 0 0 1 6.463 6.463v9.699zm206.699-68.288c0 23.795-13.877 44.407-33.961 54.175-.487.236-.98.454-1.471.676-.992.449-1.996.873-3.015 1.27-.379.148-.755.305-1.136.445-.626.229-1.262.435-1.897.643-.359.119-.717.241-1.078.352-.645.198-1.297.378-1.951.555-.361.098-.722.195-1.084.287a57.508 57.508 0 0 1-3.127.69c-.633.123-1.268.239-1.907.342-.454.072-.91.134-1.366.195-.583.08-1.166.161-1.755.223-.593.063-1.189.107-1.785.152-.467.036-.93.082-1.399.107a62.133 62.133 0 0 1-3.267.092H305.302v-1.615c0-12.479-10.153-22.631-22.631-22.631h-53.34c-12.479 0-22.631 10.153-22.631 22.631v1.615H76.369c-1.095 0-2.183-.034-3.267-.092-.471-.026-.936-.071-1.403-.107-.595-.045-1.19-.088-1.781-.152a63.028 63.028 0 0 1-1.759-.224 55.613 55.613 0 0 1-1.36-.195 57.363 57.363 0 0 1-1.911-.343 56.89 56.89 0 0 1-4.206-.977 61.397 61.397 0 0 1-1.953-.556c-.362-.111-.721-.235-1.081-.354-.634-.208-1.269-.414-1.893-.641-.4-.147-.795-.313-1.192-.468a60.02 60.02 0 0 1-2.907-1.223c-.512-.232-1.026-.458-1.534-.705-20.079-9.767-33.953-30.375-33.953-54.167V110.52a6.469 6.469 0 0 1 6.463-6.463h466.736a6.469 6.469 0 0 1 6.463 6.463v189.532z"/></svg>