<svg xmlns="http://www.w3.org/2000/svg" viewBox="0 0 512 512"><path d="M450.36 388.154l-10.39-76.556c-.602-4.425-4.678-7.525-9.097-6.923a8.082 8.082 0 0 0-6.923 9.097l10.314 76.006a107.458 107.458 0 0 1-2.166 20.952 106.406 106.406 0 0 1-3.433 12.699c-14.655 43.307-55.243 72.403-100.994 72.403H184.328c-45.75 0-86.337-29.097-100.993-72.408a106.555 106.555 0 0 1-3.432-12.695 107.4 107.4 0 0 1-2.166-20.952l27.47-202.437h22.236l-14.015 103.279c-.05.361-.073.724-.073 1.088 0 6.16.621 12.32 1.846 18.308a91.684 91.684 0 0 0 2.252 8.748c.22.696.445 1.393.68 2.09 12.497 36.93 47.103 61.741 86.113 61.741h14.612c.057 11.95 9.793 21.655 21.757 21.655h30.773c11.964 0 21.697-9.704 21.755-21.655h14.614c39.009 0 73.616-24.812 86.114-61.746a89.963 89.963 0 0 0 2.929-10.835 91.464 91.464 0 0 0 1.846-18.307c0-.363-.024-.727-.073-1.088L384.56 187.339h22.236l13.383 98.625a8.08 8.08 0 0 0 9.097 6.923 8.083 8.083 0 0 0 6.923-9.097l-11.534-84.995c8.985-8.408 14.131-20.206 14.131-32.529 0-19.202-11.973-35.908-29.977-42.112-6.63-31.849-23.094-60.917-47.404-83.188C332.573 14.549 295.137 0 255.999 0c-39.137 0-76.574 14.549-105.415 40.968-24.312 22.271-40.777 51.343-47.406 83.196-17.975 6.211-29.974 22.98-29.974 42.104 0 12.294 5.15 24.149 14.129 32.547L61.64 388.155c-.05.361-.073.724-.073 1.088 0 8.325.839 16.645 2.493 24.727a122.665 122.665 0 0 0 3.958 14.641C84.901 478.488 131.641 512 184.328 512h143.343c52.689 0 99.429-33.512 116.315-83.403a123.182 123.182 0 0 0 3.953-14.625 123.64 123.64 0 0 0 2.494-24.728c0-.365-.024-.729-.073-1.09zm-173.382-13.643v7.979a5.598 5.598 0 0 1-5.592 5.592h-30.773a5.6 5.6 0 0 1-5.594-5.592v-14.817a5.6 5.6 0 0 1 5.594-5.593h30.773a5.6 5.6 0 0 1 5.592 5.593v6.838zm103.979-67.735a73.984 73.984 0 0 1-2.405 8.895c-10.272 30.359-38.724 50.756-70.797 50.756h-14.642c-.01-.175-.041-.343-.055-.516a22.193 22.193 0 0 0-.28-2.134 19.493 19.493 0 0 0-.201-.973 20.748 20.748 0 0 0-.281-1.091 20.985 20.985 0 0 0-.673-1.984c-.12-.305-.244-.607-.376-.905-.15-.335-.312-.663-.478-.99-.148-.29-.297-.579-.458-.861-.18-.317-.372-.625-.567-.932-.175-.274-.348-.548-.535-.813a22.918 22.918 0 0 0-.651-.871c-.198-.255-.396-.511-.605-.757a20.66 20.66 0 0 0-.732-.805c-.221-.235-.439-.471-.669-.695-.261-.254-.535-.494-.807-.734-.241-.212-.479-.428-.729-.63-.285-.23-.582-.442-.878-.657-.259-.189-.513-.382-.78-.558-.309-.205-.633-.39-.953-.58-.273-.161-.539-.329-.819-.478-.335-.179-.683-.335-1.028-.497-.282-.132-.558-.273-.847-.392-.363-.151-.739-.276-1.112-.407-.286-.101-.565-.213-.856-.302-.4-.123-.811-.214-1.22-.315-.278-.068-.549-.15-.831-.207-.46-.093-.932-.152-1.403-.215-.241-.032-.476-.082-.72-.107a21.903 21.903 0 0 0-2.184-.111h-30.773c-.737 0-1.466.039-2.184.111-.242.025-.477.073-.718.106-.471.064-.943.122-1.404.214-.281.057-.553.139-.831.207-.409.099-.82.192-1.219.315-.291.089-.571.202-.857.303-.373.132-.748.257-1.111.407-.288.12-.565.261-.846.392-.346.162-.694.318-1.029.497-.279.149-.546.316-.818.478-.321.19-.643.375-.954.58-.267.177-.522.37-.78.558-.296.216-.594.428-.878.657-.25.203-.488.418-.73.631-.273.24-.547.48-.806.733-.231.225-.449.461-.67.696-.248.264-.496.528-.731.804-.209.247-.406.502-.606.758-.222.287-.443.573-.651.87-.185.265-.36.539-.535.813-.195.307-.387.615-.567.932-.161.282-.31.571-.458.862a23.05 23.05 0 0 0-.478.988c-.134.299-.257.602-.377.907-.135.344-.264.689-.382 1.04a21.98 21.98 0 0 0-.771 3.009 22.038 22.038 0 0 0-.28 2.134c-.014.172-.044.34-.054.513h-14.641c-32.073 0-60.524-20.397-70.796-50.751a93.148 93.148 0 0 1-.567-1.743 75.113 75.113 0 0 1-1.841-7.162 75.39 75.39 0 0 1-1.516-14.532l10.859-80.026a83.67 83.67 0 0 0 1.611 2.241c.158.213.321.422.482.633a83.205 83.205 0 0 0 1.954 2.48c.434.53.876 1.054 1.324 1.574.197.229.392.46.592.687a85.385 85.385 0 0 0 1.94 2.135c.072.077.147.149.218.224a87.958 87.958 0 0 0 1.815 1.849c.229.225.46.446.691.669.48.464.965.921 1.455 1.372.246.226.492.453.74.676.548.492 1.103.974 1.663 1.452.179.153.356.309.536.46a84.958 84.958 0 0 0 2.222 1.795c.212.166.429.326.643.489a86.1 86.1 0 0 0 2.518 1.854c.547.386 1.097.764 1.652 1.138.259.174.515.349.776.521a83.32 83.32 0 0 0 2.417 1.531c.084.051.17.099.255.15.743.447 1.494.883 2.251 1.307.28.157.564.309.845.463.583.318 1.171.631 1.761.935.3.154.6.308.902.46.654.328 1.315.645 1.979.955.218.101.433.208.652.308.871.398 1.75.78 2.637 1.149.24.1.484.193.727.291a88.87 88.87 0 0 0 2.009.785 85.1 85.1 0 0 0 2.883 1.019c.292.097.583.197.876.292a83.11 83.11 0 0 0 2.79.848c.047.014.096.025.144.039a85.03 85.03 0 0 0 2.702.708c.302.074.606.142.91.213a86.418 86.418 0 0 0 3.006.645c.744.144 1.491.278 2.241.403.234.039.467.083.702.12.974.154 1.954.29 2.937.41.24.029.482.052.722.079a81.95 81.95 0 0 0 5.423.431c.309.014.618.032.927.043 1.008.037 2.019.06 3.034.06h94.103a85.01 85.01 0 0 0 3.034-.06c.31-.011.619-.028.928-.043a80.073 80.073 0 0 0 3.139-.205 86.215 86.215 0 0 0 2.28-.226c.241-.027.484-.05.725-.079.984-.12 1.963-.255 2.937-.41.234-.037.467-.081.701-.12a83.948 83.948 0 0 0 3.217-.6 86.5 86.5 0 0 0 2.033-.448c.303-.071.606-.139.908-.213a81.882 81.882 0 0 0 2.704-.708c.047-.013.096-.025.143-.039.936-.265 1.864-.55 2.786-.847.296-.095.591-.196.886-.294a91.349 91.349 0 0 0 2.879-1.016 78.746 78.746 0 0 0 2.008-.785c.241-.098.485-.191.727-.291a83.16 83.16 0 0 0 2.634-1.148c.222-.101.441-.209.662-.313a81.255 81.255 0 0 0 2.873-1.411 82.15 82.15 0 0 0 1.76-.935c.283-.155.568-.307.849-.466a84.54 84.54 0 0 0 2.259-1.313c.081-.049.164-.095.244-.143a82.573 82.573 0 0 0 2.414-1.53c.263-.172.523-.35.784-.525a81.313 81.313 0 0 0 4.168-2.991c.213-.163.429-.322.64-.487a83.195 83.195 0 0 0 2.22-1.794c.184-.154.364-.315.546-.47a83.88 83.88 0 0 0 1.651-1.442 95.424 95.424 0 0 0 2.197-2.05c.231-.223.463-.445.692-.67a81.386 81.386 0 0 0 1.817-1.851c.072-.075.146-.148.218-.224a83.359 83.359 0 0 0 1.939-2.133c.201-.227.397-.46.595-.69a82.357 82.357 0 0 0 3.276-4.054c.16-.211.322-.418.481-.631a81.844 81.844 0 0 0 1.608-2.238l10.858 80.028a75.23 75.23 0 0 1-1.515 14.537zm25.422-148.998a22.161 22.161 0 0 0 5.135-13.985c6.817 5.286 11.113 13.551 11.113 22.474 0 3.199-.552 6.34-1.582 9.305a8.082 8.082 0 0 0-7.19-4.4h-36.933a8.082 8.082 0 0 0-7.935 6.543c-.031.16-.059.321-.086.482l-.016.093c-.037.181-.086.361-.125.541-1.902-3.848-2.906-8.115-2.906-12.565 0-4.621 1.122-9.091 3.197-13.082a22.191 22.191 0 0 0 20.121 12.672c.693 0 1.398-.032 2.095-.098 5.938-.554 11.303-3.389 15.112-7.98zm-289.703-14.827c3.225-34.55 19.147-66.534 44.831-90.062C187.357 29.21 220.916 16.168 256 16.168s68.643 13.041 94.493 36.721c25.684 23.528 41.606 55.513 44.831 90.063a6.168 6.168 0 0 1-5.562 6.708 6.136 6.136 0 0 1-6.708-5.563c-2.236-23.948-11.03-46.606-25.434-65.528a8.085 8.085 0 1 0-12.866 9.794c9.95 13.072 16.821 28.203 20.227 44.324-9.727 8.478-15.296 20.655-15.296 33.582 0 11.438 4.465 22.502 12.32 30.751a67.17 67.17 0 0 1-58.952 34.918H208.95a67.272 67.272 0 0 1-20.817-3.292 67.162 67.162 0 0 1-38.141-31.635c7.864-8.252 12.328-19.274 12.328-30.743 0-13.002-5.555-25.122-15.308-33.602 10.765-50.988 55.533-88.001 108.99-88.001 26.084 0 51.383 9.042 71.234 25.46a8.086 8.086 0 0 0 10.306-12.46c-22.744-18.81-51.701-29.17-81.538-29.17-66.279 0-120.899 49.697-127.051 115.603-.315 3.376-3.344 5.878-6.708 5.562-3.387-.316-5.885-3.326-5.569-6.709zm-16.195.785c.1 11.3 8.765 20.948 20.274 22.024 9.544.88 18.253-4.444 22.18-12.622a28.3 28.3 0 0 1 3.214 13.129 28.38 28.38 0 0 1-2.917 12.503c-.041-.192-.091-.373-.13-.567a18.27 18.27 0 0 0-.087-.487 8.083 8.083 0 0 0-7.935-6.543H98.147a8.08 8.08 0 0 0-7.208 4.437 28.486 28.486 0 0 1-1.565-9.342c0-9.06 4.236-17.278 11.107-22.532z"/><path d="M298.74 271.042h-85.48a8.082 8.082 0 0 0-8.084 8.084 8.082 8.082 0 0 0 8.084 8.084h85.48a8.082 8.082 0 0 0 8.084-8.084 8.083 8.083 0 0 0-8.084-8.084z"/></svg>