<svg xmlns="http://www.w3.org/2000/svg" viewBox="0 0 512 512"><path d="M141.725 289.667c-12.252 0-22.221 9.968-22.221 22.221V453.397c0 12.254 9.968 22.222 22.221 22.222h228.547c12.252 0 22.221-9.968 22.221-22.222V311.889c.001-12.254-9.967-22.222-22.22-22.222H141.725zm234.599 22.222v28.577H190.279a8.083 8.083 0 0 0-8.084 8.084 8.084 8.084 0 0 0 8.084 8.084h186.047v96.764a6.06 6.06 0 0 1-6.052 6.053H141.725a6.06 6.06 0 0 1-6.052-6.053v-96.764h26.94a8.083 8.083 0 0 0 8.084-8.084 8.084 8.084 0 0 0-8.084-8.084h-26.94v-28.577a6.058 6.058 0 0 1 6.052-6.052h228.547a6.058 6.058 0 0 1 6.052 6.052z"/><path d="M455.684 273.834h-25.491V173.824a121.85 121.85 0 0 0-3.534-29.173V22.221C426.658 9.968 416.689 0 404.437 0h-39.304c-12.252 0-22.221 9.968-22.221 22.221v34.652a121.45 121.45 0 0 0-31.815-5.001C309.365 22.979 285.32 0 255.999 0s-53.367 22.979-55.098 51.873a121.507 121.507 0 0 0-31.817 5.001V22.221C169.084 9.968 159.116 0 146.863 0h-39.302C95.309 0 85.34 9.968 85.34 22.221v122.428a121.863 121.863 0 0 0-3.534 29.173V273.832H56.315c-12.253 0-22.222 9.968-22.222 22.221v193.724c0 12.252 9.969 22.221 22.222 22.221h43.589c1.715 0 3.416-.222 5.089-.621a29.12 29.12 0 0 0 5.99.622h290.033c2.053 0 4.056-.216 5.991-.621 1.673.399 3.373.621 5.088.621h43.59c12.252 0 22.221-9.968 22.221-22.221v-86.647a8.082 8.082 0 0 0-8.084-8.084 8.083 8.083 0 0 0-8.084 8.084v86.647a6.058 6.058 0 0 1-6.052 6.052h-28.511a29.045 29.045 0 0 0 2.407-7.052l.036-.171c.077-.386.148-.774.209-1.165.028-.176.052-.352.077-.528.043-.312.086-.622.12-.937.031-.285.052-.571.074-.858.017-.23.04-.458.053-.689.029-.532.046-1.068.046-1.607V340.801h31.545v35.384a8.082 8.082 0 0 0 8.084 8.084 8.082 8.082 0 0 0 8.084-8.084v-80.13c-.005-12.253-9.973-22.221-22.226-22.221zM50.261 296.055a6.06 6.06 0 0 1 6.053-6.052h25.49v34.63H50.261v-28.578zm6.054 199.777a6.06 6.06 0 0 1-6.053-6.052V340.8h31.545v142.023c0 .539.017 1.075.046 1.607.013.232.035.46.053.691.023.286.043.571.074.855.033.317.077.631.121.944.025.172.047.346.076.517.063.396.134.788.211 1.179l.031.154a29.05 29.05 0 0 0 2.408 7.06H56.315zM359.08 22.221a6.058 6.058 0 0 1 6.052-6.052h39.304a6.058 6.058 0 0 1 6.052 6.052v85.151c-12.492-19.17-30.277-34.729-51.409-44.442V22.221zm-103.081-6.053c20.391 0 37.181 15.714 38.895 35.668h-77.789c1.713-19.954 18.503-35.668 38.894-35.668zm-148.438 0h39.302a6.059 6.059 0 0 1 6.052 6.052v40.71c-21.133 9.716-38.916 25.27-51.407 44.441v-85.15a6.06 6.06 0 0 1 6.053-6.053zm306.463 265.749v200.906c0 .402-.024.797-.059 1.189-.016.169-.041.336-.063.504a12.183 12.183 0 0 1-.232 1.276c-.028.117-.059.233-.089.349a13.185 13.185 0 0 1-4.863 7.143c-.081.059-.158.122-.24.179-.183.129-.373.249-.563.37a12.086 12.086 0 0 1-1.5.812c-.167.077-.333.154-.504.224-.203.083-.41.154-.617.226-.165.057-.326.122-.493.172a12.968 12.968 0 0 1-3.784.565H110.982c-1.317 0-2.587-.201-3.787-.566-.162-.049-.316-.111-.474-.166a12.224 12.224 0 0 1-.639-.235c-.164-.067-.324-.142-.484-.216a12.22 12.22 0 0 1-1.527-.827 13.927 13.927 0 0 1-.54-.354c-.095-.067-.184-.139-.277-.207a13.17 13.17 0 0 1-4.834-7.12c-.031-.116-.063-.233-.091-.351a12.667 12.667 0 0 1-.232-1.277c-.023-.167-.046-.334-.063-.503-.036-.392-.06-.787-.06-1.189V253.48H414.024v28.437zm-36.627-44.604H136.892v-66.049c0-37.164 30.234-67.398 67.395-67.398h105.714c37.163 0 67.395 30.235 67.395 67.398v66.049zm36.628 0h-20.457v-66.049c0-46.079-37.486-83.566-83.564-83.566H204.289c-46.078 0-83.564 37.487-83.564 83.566v66.049H97.974v-63.489c0-58.349 47.469-105.819 105.818-105.819h104.413c58.349 0 105.819 47.47 105.819 105.819v63.489zm47.711 87.319h-31.544v-34.629h25.491a6.058 6.058 0 0 1 6.052 6.052v28.577z"/><path d="M157.202 387.355a8.084 8.084 0 0 0 8.084 8.084h181.425a8.082 8.082 0 0 0 8.084-8.084 8.082 8.082 0 0 0-8.084-8.084H165.286a8.084 8.084 0 0 0-8.084 8.084zM346.711 152.098H165.286a8.083 8.083 0 0 0-8.084 8.084 8.084 8.084 0 0 0 8.084 8.084h181.425a8.082 8.082 0 0 0 8.084-8.084 8.083 8.083 0 0 0-8.084-8.084zM346.711 415.863H165.286a8.084 8.084 0 0 0 0 16.168h181.425c4.466 0 8.084-3.619 8.084-8.084s-3.618-8.084-8.084-8.084z"/></svg>