<svg xmlns="http://www.w3.org/2000/svg" viewBox="0 0 511.999 511.999"><path d="M476.061 377.576H216.178l259.034-200.395a8.096 8.096 0 0 0 2.547-9.452l-22.622-55.682c-.082-.202-.182-.394-.28-.587-.034-.067-.062-.137-.096-.203a8.107 8.107 0 0 0-.599-.945c-.059-.081-.125-.157-.188-.235a7.885 7.885 0 0 0-.553-.63c-.082-.083-.163-.166-.247-.246a8.354 8.354 0 0 0-.708-.593c-.052-.039-.1-.083-.153-.121a7.893 7.893 0 0 0-.947-.573c-.09-.046-.184-.085-.275-.128a7.815 7.815 0 0 0-1.11-.43c-.08-.025-.158-.057-.239-.08-.22-.059-.444-.098-.666-.138-.069-.013-.135-.031-.204-.042a8.148 8.148 0 0 0-1.133-.09c-.035 0-.068-.009-.104-.009H190.123c-4.784-25.466-27.033-44.45-53.698-44.45H54.664C24.522 62.547 0 87.07 0 117.212v51.444c0 30.144 24.522 54.669 54.664 54.669h81.762c26.663 0 48.918-18.984 53.704-44.45h161.83L92.925 379.269a8.096 8.096 0 0 0-2.547 9.452L113 444.403c.08.195.177.38.27.568.038.075.068.153.108.227.177.327.377.639.594.936.062.084.131.162.195.244a8.069 8.069 0 0 0 1.501 1.46c.053.04.103.084.157.123.3.213.618.402.946.572.091.048.185.086.278.13.25.119.506.225.77.317.112.04.225.078.339.113.08.025.158.057.239.08.177.048.356.071.534.107.132.026.261.059.395.079.392.057.784.093 1.177.093H476.06c19.816 0 35.939-16.122 35.939-35.937.001-19.816-16.122-35.939-35.938-35.939zM136.425 207.129H54.664c-21.212 0-38.469-17.259-38.469-38.474v-51.444c0-21.211 17.257-38.469 38.469-38.469h81.762a38.395 38.395 0 0 1 37.104 28.255h-11.373a27.627 27.627 0 0 0-25.73-17.458H54.664c-15.259 0-27.673 12.414-27.673 27.673v17.854c-3.564.849-6.217 4.046-6.217 7.869 0 3.824 2.653 7.02 6.217 7.869v17.851c0 15.261 12.414 27.677 27.673 27.677h81.762a27.623 27.623 0 0 0 25.728-17.458h11.374a38.395 38.395 0 0 1-37.103 28.255zM97.88 178.874h43.782a11.447 11.447 0 0 1-5.237 1.263H54.664c-6.329 0-11.478-5.151-11.478-11.482v-17.622h46.596v19.744a8.097 8.097 0 0 0 8.098 8.097zm26.761-44.036h-18.664v-11.646h35.359v39.488h-35.359v-11.646h18.664c4.473 0 8.097-3.624 8.097-8.097s-3.623-8.099-8.097-8.099zM97.88 106.997a8.096 8.096 0 0 0-8.097 8.097v19.744H43.186v-17.627c0-6.329 5.149-11.478 11.478-11.478h81.762c1.883 0 3.663.457 5.239 1.263l-43.785.001zm89.521 55.682h-29.87v-39.487H187.401v39.487zm16.195.002v-39.488h220.339l-19.308 14.937-31.736 24.552H203.596zm-95.901 225.637l272.91-211.131.01-.006 63.535-49.153 16.293 40.104-336.455 260.291-16.293-40.105zm368.366 44.941H144.203l51.042-39.488H476.06c10.887 0 19.744 8.858 19.744 19.746.001 10.885-8.855 19.742-19.743 19.742z"/><path d="M230.722 405.418h-.985a8.096 8.096 0 0 0-8.097 8.097 8.096 8.096 0 0 0 8.097 8.097h.985a8.096 8.096 0 0 0 8.097-8.097 8.095 8.095 0 0 0-8.097-8.097zM276.121 405.418h-.985a8.096 8.096 0 0 0-8.097 8.097 8.096 8.096 0 0 0 8.097 8.097h.985a8.096 8.096 0 0 0 8.097-8.097 8.095 8.095 0 0 0-8.097-8.097zM321.518 405.418h-.98a8.096 8.096 0 0 0-8.097 8.097 8.096 8.096 0 0 0 8.097 8.097h.98a8.096 8.096 0 0 0 8.097-8.097 8.096 8.096 0 0 0-8.097-8.097zM366.918 405.418h-.985a8.096 8.096 0 0 0-8.097 8.097 8.096 8.096 0 0 0 8.097 8.097h.985a8.096 8.096 0 0 0 8.097-8.097 8.096 8.096 0 0 0-8.097-8.097zM412.317 405.418h-.985a8.096 8.096 0 0 0-8.097 8.097 8.096 8.096 0 0 0 8.097 8.097h.985a8.096 8.096 0 0 0 8.097-8.097 8.096 8.096 0 0 0-8.097-8.097z"/></svg>