<svg xmlns="http://www.w3.org/2000/svg" viewBox="0 0 511.999 511.999"><path d="M511.856 449.751l-12.127-63.556v-69.211c0-1.869-.028-3.73-.07-5.576l-.035-1.392c-.052-1.85-.117-3.697-.211-5.536l-.011-.197a241.6 241.6 0 0 0-.338-5.335l-.104-1.367c-.143-1.811-.299-3.62-.486-5.476l-.042-.373a245.507 245.507 0 0 0-.577-5.057l-.174-1.378c-.23-1.769-.473-3.532-.743-5.308l-.099-.618a249.946 249.946 0 0 0-.783-4.723l-.258-1.457a245.411 245.411 0 0 0-.979-5.115l-.181-.856a236.805 236.805 0 0 0-.964-4.427 243.338 243.338 0 0 0-1.555-6.469l-.276-1.048a255.22 255.22 0 0 0-1.112-4.109l-.444-1.575c-.46-1.597-.93-3.191-1.416-4.757-.081-.266-.166-.53-.251-.795l-.146-.455a233.215 233.215 0 0 0-1.27-3.91c-.172-.514-.341-1.025-.514-1.527a229.504 229.504 0 0 0-1.617-4.589c-.116-.321-.237-.639-.355-.958l-.17-.453a230.48 230.48 0 0 0-1.333-3.509c-.221-.568-.442-1.137-.668-1.707a245.037 245.037 0 0 0-1.798-4.402l-.664-1.546a268.786 268.786 0 0 0-1.407-3.217l-.111-.247c-.227-.509-.454-1.015-.684-1.523a251.566 251.566 0 0 0-1.96-4.199l-.824-1.688c-.483-.986-.97-1.968-1.462-2.937l-.16-.318a234.561 234.561 0 0 0-2.882-5.516c-.254-.471-.513-.937-.771-1.406l-.21-.38a295.07 295.07 0 0 0-1.506-2.693l-.228-.403c-.279-.491-.558-.982-.866-1.514l-.127-.225c-.046-.079-.102-.168-.158-.258a244.897 244.897 0 0 0-23.318-33.3l-.428-.504a241.533 241.533 0 0 0-3.783-4.414l-.789-.891a250.057 250.057 0 0 0-3.595-3.967l-.869-.932a237.998 237.998 0 0 0-3.774-3.943 8.1 8.1 0 0 0-11.454-.121 8.099 8.099 0 0 0-.121 11.454 226.172 226.172 0 0 1 3.536 3.693l.801.86a228.722 228.722 0 0 1 3.348 3.693l.75.846a240.655 240.655 0 0 1 3.513 4.097l.413.487a228.757 228.757 0 0 1 21.877 31.269c.037.065.08.135.125.207l.073.13c.255.438.505.881.756 1.323l.232.409c.476.839.946 1.683 1.41 2.523l.212.383c.239.43.476.862.703 1.282.666 1.234 1.323 2.48 1.974 3.744.234.453.464.909.695 1.366l.167.333c.461.909.915 1.822 1.361 2.736l.773 1.583a220.23 220.23 0 0 1 2.456 5.315l.108.241c.445 1.001.885 2.002 1.315 3.007l.625 1.455a200.117 200.117 0 0 1 2.294 5.685 223.13 223.13 0 0 1 1.247 3.282l.489 1.311c.517 1.42 1.017 2.845 1.51 4.29.16.469.316.937.508 1.51.393 1.181.78 2.367 1.151 3.549l.368 1.159c.459 1.482.9 2.972 1.326 4.452l.414 1.47c.357 1.279.705 2.56 1.035 3.82l.262.997a222.556 222.556 0 0 1 1.45 6.028c.312 1.373.613 2.751.9 4.132l.167.791c.325 1.59.627 3.188.918 4.785l.241 1.355c.257 1.468.503 2.942.731 4.414l.095.594c.249 1.641.476 3.29.691 4.929l.165 1.315c.194 1.561.376 3.125.539 4.723l.041.369c.17 1.685.316 3.377.45 5.073l.097 1.282a234.066 234.066 0 0 1 .324 5.117l.002.054c.087 1.713.149 3.435.197 5.162l.032 1.296c.04 1.735.067 3.473.067 5.218v45.986c-.132-.087-.274-.173-.407-.26-.49-.323-.994-.643-1.505-.962-.284-.177-.566-.354-.856-.53a87.887 87.887 0 0 0-1.7-.999c-.271-.156-.537-.312-.813-.467a90.07 90.07 0 0 0-1.997-1.083c-.225-.119-.443-.24-.672-.359-.836-.435-1.697-.866-2.576-1.294l-.248-.124a131.862 131.862 0 0 0-6.35-2.86l-.011-.004a154.059 154.059 0 0 0-3.327-1.35c-.177-.07-.362-.138-.541-.208-.968-.377-1.95-.752-2.957-1.122-.261-.096-.53-.192-.794-.288-.943-.343-1.898-.685-2.875-1.023-.303-.106-.613-.21-.92-.314-.962-.328-1.936-.654-2.929-.978-.322-.105-.646-.208-.97-.313a245.139 245.139 0 0 0-3.067-.962c-.322-.098-.644-.198-.968-.295a301.655 301.655 0 0 0-3.277-.968c-.299-.086-.597-.174-.899-.259a326.364 326.364 0 0 0-3.626-1.009c-.229-.063-.454-.125-.685-.187a330.556 330.556 0 0 0-4.243-1.112l-.218-.056c-2.559-.651-5.2-1.289-7.907-1.917v-24.681c0-64.558-17.368-125.357-48.904-171.197-10.728-15.594-22.675-28.838-35.535-39.585 1.197.487 2.4.967 3.579 1.471l.132.057.175.076c1.756.755 3.53 1.544 5.258 2.337l.961.45c1.548.719 3.085 1.456 4.593 2.197l1.103.55c1.514.755 3.018 1.529 4.513 2.318l.949.503c1.634.872 3.257 1.764 4.866 2.674l.445.249a228.884 228.884 0 0 1 15.845 9.893l.501.349a216.759 216.759 0 0 1 4.477 3.155l.821.598a228.944 228.944 0 0 1 4.137 3.091l.824.632a222.939 222.939 0 0 1 4.162 3.292l.571.461a8.1 8.1 0 0 0 10.294-12.508l-.659-.534a241.554 241.554 0 0 0-4.471-3.534l-.889-.684a245.84 245.84 0 0 0-4.445-3.32l-.847-.617a238.942 238.942 0 0 0-4.799-3.382l-.517-.36a243.937 243.937 0 0 0-16.939-10.581l-.536-.301a243.146 243.146 0 0 0-5.213-2.864l-1.021-.541a252.369 252.369 0 0 0-4.813-2.471l-1.186-.591a239.875 239.875 0 0 0-4.946-2.366l-1.008-.472a259.841 259.841 0 0 0-5.685-2.526l-.285-.122h.001a239.993 239.993 0 0 0-12.571-4.962l-.462-.164a249.102 249.102 0 0 0-5.786-2.002l-1.306-.424a249.661 249.661 0 0 0-4.96-1.558 250.991 250.991 0 0 0-6.478-1.858l-1.632-.44a244.294 244.294 0 0 0-5.055-1.276l-.436-.108c-.328-.081-.656-.162-.973-.237-2.132-.501-4.237-.97-6.231-1.383l-.251-.054c-2.278-.47-4.574-.91-6.832-1.31l-.242-.038c-.042-.009-.084-.016-.126-.023a246.55 246.55 0 0 0-6.158-.996c-.382-.058-.767-.11-1.149-.162l-.652-.09c-.586-.083-1.174-.153-1.761-.232V64.795c0-12.585-10.238-22.825-22.824-22.825h-19.631c-12.585 0-22.824 10.239-22.824 22.825v10.672c-.59.08-1.179.15-1.769.233l-.651.09c-.382.052-.765.105-1.139.16-2.085.311-4.159.646-6.26 1.013l-.281.046a241.24 241.24 0 0 0-6.819 1.307l-.228.05c-2.021.42-4.125.888-6.244 1.386-.33.077-.658.158-.986.24l-.426.105c-1.694.41-3.386.834-5.06 1.278l-1.672.45c-1.61.441-3.217.894-4.819 1.366-.542.16-1.085.32-1.62.483a254.872 254.872 0 0 0-4.993 1.568l-1.288.419a253.228 253.228 0 0 0-5.861 2.029l-.309.109c-4.249 1.54-8.5 3.217-12.64 4.988h.001l-.338.146c-1.875.806-3.77 1.648-5.647 2.51l-1.005.47a250.34 250.34 0 0 0-4.956 2.372l-1.141.568c-1.622.81-3.233 1.639-4.836 2.484l-1.021.539a250.266 250.266 0 0 0-5.214 2.865l-.478.269a245.075 245.075 0 0 0-17.018 10.63l-.488.338a234.87 234.87 0 0 0-4.807 3.389l-.872.634a239.07 239.07 0 0 0-4.405 3.292l-.902.693a236.627 236.627 0 0 0-4.482 3.542l-.621.503a246.088 246.088 0 0 0-15.096 13.378 246.879 246.879 0 0 0-4.445 4.392l-.701.718a238.037 238.037 0 0 0-3.761 3.93l-.881.946a248.48 248.48 0 0 0-3.607 3.981l-.784.882a246.713 246.713 0 0 0-3.796 4.43l-.406.478a244.99 244.99 0 0 0-23.303 33.273c-.06.096-.119.192-.176.289l-.153.269c-.283.488-.563.978-.84 1.47l-.232.409c-.506.894-1.007 1.789-1.505 2.691l-.206.376c-.258.469-.517.935-.779 1.418a238.986 238.986 0 0 0-2.101 3.985c-.26.503-.517 1.012-.773 1.518l-.158.31c-.495.976-.982 1.959-1.465 2.947l-.828 1.699a246 246 0 0 0-1.956 4.187c-.23.506-.457 1.013-.684 1.522l-.112.251a241.551 241.551 0 0 0-1.404 3.211l-.224.517c-.151.348-.3.694-.448 1.048a237.39 237.39 0 0 0-1.794 4.391c-.226.566-.446 1.135-.667 1.702a249.997 249.997 0 0 0-1.329 3.501l-.173.461c-.119.319-.24.637-.352.949a227.39 227.39 0 0 0-1.616 4.587c-.176.513-.346 1.024-.55 1.635a237.847 237.847 0 0 0-1.242 3.824l-.141.444c-.084.265-.17.529-.246.776-.49 1.586-.963 3.182-1.42 4.777-.138.478-.272.959-.407 1.441l-.036.129a242.675 242.675 0 0 0-1.113 4.118l-.276 1.043a243.528 243.528 0 0 0-1.553 6.458 244.34 244.34 0 0 0-.968 4.44l-.176.833a240.768 240.768 0 0 0-.985 5.142l-.255 1.442c-.276 1.573-.539 3.15-.786 4.737l-.102.634a242.797 242.797 0 0 0-.739 5.281l-.179 1.411a256.928 256.928 0 0 0-.578 5.063l-.043.393a248.59 248.59 0 0 0-.481 5.422l-.104 1.373a236.716 236.716 0 0 0-.338 5.322l-.011.205h-.001a242.012 242.012 0 0 0-.211 5.531l-.035 1.382c-.042 1.86-.07 3.719-.07 5.59v69.212L.144 449.751A8.137 8.137 0 0 0 0 451.268a18.338 18.338 0 0 0 .211 2.705c.089.589.206 1.163.35 1.715.037.154.083.335.122.465a15.614 15.614 0 0 0 .995 2.531c.257.523.545 1.034.856 1.519.089.143.18.285.308.472.406.586.856 1.15 1.322 1.661.116.126.238.253.37.387.388.401.808.792 1.226 1.144.135.117.27.231.392.328.548.436 1.091.825 1.728 1.23.092.057.187.113.286.171.464.281.956.552 1.477.814l.431.213a27.124 27.124 0 0 0 3.757 1.44l.314.094.167.049c.55.157 1.116.307 1.657.433.116.028.232.056.351.081.625.14 1.278.27 1.984.394l.469.077c.559.092 1.133.177 1.734.256l.423.055c.698.085 1.418.161 2.109.22l.526.042c.606.048 1.224.091 1.801.121l.612.035c.743.034 1.502.065 2.334.083l.343.003c.672.014 1.357.022 2.057.022l.691-.002c.799-.004 1.609-.014 2.443-.034l.053-.002.165-.002c.782-.022 1.582-.05 2.418-.083l.789-.033c.698-.031 1.407-.069 2.22-.115l.518-.028c.86-.053 1.738-.111 2.628-.174l.122-.01.84-.065c.592-.043 1.191-.092 1.797-.142l1.174-.097c.882-.078 1.779-.16 2.691-.247l4.337-.44c.847-.091 1.704-.184 2.552-.281l6.26-.746c1.218-.151 2.453-.307 3.715-.47l3.524-.465c9.223-1.233 19.326-2.724 30.02-4.3 6.93-1.022 14.157-2.089 21.645-3.158a8.1 8.1 0 0 0-2.292-16.036c-7.512 1.073-14.763 2.143-21.716 3.169-10.64 1.569-20.689 3.051-29.801 4.269l-3.474.459c-1.224.158-2.43.31-3.651.462l-6.057.721c-.826.095-1.643.184-2.453.27l-4.141.42c-.872.083-1.73.161-2.569.235l-1.08.09c-.563.045-1.119.091-1.72.135l-.874.066c-.833.059-1.656.116-2.416.161l-.564.031c-.66.036-1.311.07-1.981.1l-.737.031c-.727.029-1.444.056-2.143.073l-.043.001-.154.002c-.73.018-1.438.025-2.173.029l-.566.002a78.97 78.97 0 0 1-1.752-.018l-.321-.003a79.895 79.895 0 0 1-1.891-.068l-.478-.027a51.97 51.97 0 0 1-1.344-.089l-.458-.037a45.38 45.38 0 0 1-1.597-.166l-.158-.022-.117-.016a37.439 37.439 0 0 1-1.16-.17l-.353-.058c-.43-.076-.849-.158-1.25-.248l-.014-.003a19.117 19.117 0 0 1-1.093-.284l-.204-.06a10.947 10.947 0 0 1-1.405-.522l-.213-.107a5.358 5.358 0 0 1-.389-.214l-.081-.048a5.7 5.7 0 0 1-.117-.086l-.028-.024 12.011-62.949.006-.035.017-.093c.022-.112.031-.226.049-.339.019-.131.043-.259.055-.391.026-.261.04-.525.04-.788 0-5.825 13.207-18.68 62.709-29.912 3.743-.849 7.6-1.663 11.547-2.447 36.796-7.293 82.34-11.727 130.85-12.774l.716-.014a938.47 938.47 0 0 1 4.778-.09c.58-.01 1.162-.016 1.743-.024 1.278-.018 2.555-.038 3.836-.052.994-.011 1.99-.017 2.986-.025.882-.008 1.764-.016 2.648-.022 1.039-.005 2.082-.006 3.123-.009.867-.002 1.732-.008 2.601-.008a973.85 973.85 0 0 1 9.808.05c.486.004.974.006 1.459.012a1038.184 1038.184 0 0 1 5.536.074c53.79.868 104.253 5.887 143.578 14.348l.027.004a426.7 426.7 0 0 1 4.406.973c49.503 11.233 62.709 24.088 62.709 29.912 0 .263.014.526.04.787.013.133.037.263.056.394.016.112.027.225.048.336l.017.093.006.035 12.011 62.949-.032.028c-.035.026-.067.051-.089.066-.045.026-.087.053-.118.07a5.718 5.718 0 0 1-.359.199l-.156.078c-.416.199-.915.386-1.456.552l-.248.073a19.74 19.74 0 0 1-.955.249l-.123.029-.011.002a27.64 27.64 0 0 1-1.212.243l-.353.058c-.389.064-.787.122-1.195.176l-.119.016-.178.024a41.844 41.844 0 0 1-1.705.174l-.238.019c-.469.037-.947.07-1.543.102l-.35.021c-.623.029-1.259.055-1.864.069l-.397.005c-.563.012-1.139.017-1.726.017l-.6-.002c-.699-.004-1.409-.012-2.138-.029-.065 0-.13-.002-.211-.004-.697-.018-1.408-.043-2.167-.075l-.729-.031c-.64-.027-1.289-.063-1.856-.093l-.613-.035c-.805-.049-1.629-.105-2.534-.169l-.852-.065c-.55-.041-1.106-.086-1.669-.132l-1.072-.09c-.847-.073-1.705-.152-2.574-.234l-4.147-.421a298.63 298.63 0 0 1-2.468-.272l-6.07-.722c-1.191-.149-2.397-.3-3.608-.458l-3.484-.459c-9.13-1.221-19.199-2.706-29.859-4.279-13.424-1.98-28.638-4.224-44.534-6.304l-29.92-3.571-.784-.086a1044.07 1044.07 0 0 0-8.117-.823l-2.365-.231c-2.69-.257-5.399-.502-8.133-.742l-2.373-.202a869.528 869.528 0 0 0-8.438-.674l-1.885-.135c-2.774-.2-5.558-.39-8.349-.564l-1.119-.072a802.353 802.353 0 0 0-9.149-.496l-1.852-.093c-2.992-.138-6-.257-9.023-.361l-1.944-.064a674.372 674.372 0 0 0-9.257-.229l-1.473-.022a626.43 626.43 0 0 0-9.959-.085c-2.966 0-6.195.027-9.861.085l-1.484.022a679.84 679.84 0 0 0-9.27.229l-1.942.064a746.68 746.68 0 0 0-9.024.362l-1.867.093c-3.053.15-6.097.311-9.145.496l-1.089.071c-2.799.174-5.583.364-8.351.564l-1.892.135c-2.828.212-5.639.437-8.426.673l-2.398.203c-2.723.239-5.43.483-8.127.741l-2.366.231c-2.718.266-5.426.54-8.144.827l-27.233 3.243a8.1 8.1 0 1 0 1.92 16.084l26.339-3.144.707-.078c2.643-.279 5.309-.549 7.98-.81l2.347-.229c2.648-.253 5.312-.494 7.978-.727l2.35-.2c2.75-.232 5.512-.454 8.289-.663l1.838-.131c2.723-.197 5.454-.382 8.209-.554l1.072-.07c2.964-.179 5.945-.338 8.997-.487l1.774-.089c2.928-.136 5.867-.253 8.806-.352l1.918-.064c3.001-.094 6.011-.171 9.032-.222l1.446-.022c3.592-.056 6.738-.083 9.706-.083 2.881 0 6.027.027 9.65.083l1.417.022c3.02.052 6.029.128 9.02.222l1.92.064c2.948.099 5.888.216 8.805.351l1.847.093c2.99.146 5.97.305 8.913.483l1.103.071c2.746.172 5.477.357 8.207.554l1.831.131c2.778.21 5.54.431 8.302.664l2.325.198c2.677.234 5.341.474 7.984.728l2.346.229c2.677.261 5.344.531 7.952.806l30.427 3.625c15.674 2.051 30.819 4.285 44.181 6.255 10.716 1.581 20.838 3.075 30.08 4.31l3.533.465c1.251.162 2.485.319 3.672.467l6.273.746a409.3 409.3 0 0 0 2.567.283l4.342.441c.909.085 1.806.167 2.696.246l1.166.097c.607.05 1.205.098 1.745.138l.892.068.122.01c.889.064 1.768.121 2.672.176l.568.031c.719.04 1.428.077 2.096.107l.843.037a159.381 159.381 0 0 0 2.612.086c.833.021 1.644.029 2.408.034l.725.002c.7 0 1.386-.008 2.03-.021l.422-.005c.782-.018 1.54-.049 2.306-.083l.537-.031a68.76 68.76 0 0 0 2.03-.137l.3-.024a62.671 62.671 0 0 0 2.139-.221l.455-.06a50.516 50.516 0 0 0 1.76-.26l.473-.078a41.904 41.904 0 0 0 2.243-.457 36.689 36.689 0 0 0 1.713-.446l.162-.048.341-.103a27.012 27.012 0 0 0 3.805-1.468l.374-.185c.513-.258 1.01-.532 1.468-.811.11-.065.254-.151.342-.206a18.655 18.655 0 0 0 1.644-1.175c.14-.11.275-.225.383-.32a15.99 15.99 0 0 0 1.242-1.156c.13-.13.257-.262.364-.38.481-.527.931-1.092 1.369-1.724.096-.14.186-.28.279-.43a15.826 15.826 0 0 0 1.087-2c.311-.69.561-1.36.792-2.147.035-.124.067-.251.096-.379a17.083 17.083 0 0 0 .428-2.291c.089-.765.13-1.436.13-2.116a7.688 7.688 0 0 0-.139-1.503zM246.184 58.162h19.631a6.632 6.632 0 0 1 6.624 6.625v9.029c-.719-.049-1.44-.084-2.16-.126-.204-.013-.408-.027-.612-.038-.049-.003-.098-.003-.148-.006a249.467 249.467 0 0 0-6.341-.269c-.116-.004-.225-.01-.342-.013a290.145 290.145 0 0 0-3.245-.07c-1.248-.019-2.444-.03-3.599-.03h-.002a232.224 232.224 0 0 0-4.817.053c-.658.013-1.329.029-2.027.048l-.287.011c-2.171.064-4.342.157-6.514.276h-.011l-.045.003c-.909.051-1.818.098-2.726.16v-9.028h-.002a6.63 6.63 0 0 1 6.623-6.625zM85.807 316.982v24.681a379.104 379.104 0 0 0-7.907 1.917l-.218.056c-1.437.367-2.852.738-4.243 1.112l-.684.187c-1.227.334-2.439.67-3.629 1.009-.3.085-.596.172-.894.258a281.491 281.491 0 0 0-4.244 1.263c-1.04.319-2.064.64-3.071.964-.323.104-.646.207-.965.312-.995.324-1.971.651-2.934.98-.306.105-.613.208-.916.313-.978.339-1.936.681-2.882 1.026-.261.095-.527.189-.785.284-1.009.372-1.994.747-2.964 1.125-.176.069-.359.136-.535.205a139.822 139.822 0 0 0-9.69 4.215l-.241.12c-.882.43-1.745.862-2.584 1.298-.227.118-.444.238-.667.356-.679.36-1.35.721-2.001 1.085-.276.154-.542.311-.813.467a84.87 84.87 0 0 0-1.699.998c-.292.176-.575.354-.86.532-.511.319-1.013.638-1.502.96-.133.087-.278.174-.409.261v-45.983h.001c0-1.745.026-3.484.067-5.232l.032-1.286c.048-1.724.109-3.445.197-5.158l.002-.05.009-.143c.085-1.664.195-3.324.315-4.974l.097-1.286c.134-1.692.28-3.385.444-5.015l.049-.448c.162-1.569.343-3.135.536-4.68l.167-1.331c.214-1.65.441-3.296.688-4.915l.097-.609c.229-1.476.474-2.949.734-4.428l.238-1.34c.292-1.602.594-3.201.922-4.811l.162-.768c.287-1.383.589-2.761.903-4.146l.318-1.382a222.06 222.06 0 0 1 1.131-4.635l.258-.975c.335-1.283.681-2.564 1.04-3.845l.038-.135a220.242 220.242 0 0 1 1.706-5.801l.359-1.13c.377-1.192.762-2.378 1.19-3.661.158-.47.313-.94.477-1.418.488-1.434.989-2.859 1.509-4.287l.489-1.311a234.416 234.416 0 0 1 3.537-8.952l.627-1.461c.43-1.003.867-2.003 1.31-2.995l.112-.251a208.606 208.606 0 0 1 2.452-5.302l.776-1.594c.448-.917.902-1.828 1.366-2.745l.164-.325c.231-.457.461-.914.702-1.38.645-1.249 1.3-2.495 1.959-3.716.234-.432.473-.864.711-1.294l.208-.38c.468-.844.936-1.688 1.409-2.521l.237-.416c.251-.442.501-.883.754-1.321l.062-.106c.048-.077.095-.154.14-.234a228.773 228.773 0 0 1 21.88-31.273l.391-.462a229.441 229.441 0 0 1 3.526-4.112l.743-.838a231.373 231.373 0 0 1 3.359-3.707l.814-.874a232.224 232.224 0 0 1 3.501-3.658l.699-.717a243.333 243.333 0 0 1 4.054-4.009l.221-.214a230.56 230.56 0 0 1 13.978-12.373l.563-.454a222.167 222.167 0 0 1 4.173-3.3l.836-.642a229.256 229.256 0 0 1 4.097-3.063l.844-.615a229.27 229.27 0 0 1 4.485-3.161l.472-.328a229.644 229.644 0 0 1 15.924-9.942l.388-.217c1.61-.91 3.233-1.802 4.867-2.675l.949-.501a223.535 223.535 0 0 1 4.535-2.329l1.058-.527a235.404 235.404 0 0 1 4.603-2.202l.959-.448c1.743-.8 3.517-1.59 5.282-2.348l.198-.086.102-.043c1.169-.5 2.365-.975 3.552-1.459-12.852 10.743-24.792 23.982-35.515 39.57-31.536 45.837-48.902 106.637-48.902 171.199zm324.185 21.254c-36.281-7.007-80.33-11.325-127.406-12.509l-.435-.011a963.954 963.954 0 0 0-4.541-.103l-1.252-.025c-1.316-.025-2.634-.049-3.955-.069-.661-.011-1.324-.018-1.986-.028-1.122-.015-2.243-.03-3.367-.042-.961-.01-1.924-.016-2.888-.024-.482-.003-.962-.009-1.444-.012-.259-.001-.516-.005-.775-.006l-.373-.001c-1.815-.01-3.633-.015-5.454-.015h-.127c-1.877 0-3.752.005-5.623.015-.726.004-1.449.011-2.175.016-1.121.009-2.241.016-3.359.028-.959.01-1.915.024-2.871.036-.85.011-1.701.022-2.55.036-1.142.017-2.28.039-3.418.06l-1.864.037c-1.312.027-2.622.057-3.929.089l-1.174.029c-1.516.039-3.029.08-4.538.125l-.228.006c-45.117 1.361-87.273 5.614-122.225 12.362l-.027.005v-21.251c0-124.989 68.569-226.75 153.053-227.501.646-.002 1.293-.001 1.939.001 84.452.806 152.992 102.546 152.992 227.5v21.252z"/><path d="M256 184.289c-27.334 0-49.57 22.237-49.57 49.57s22.237 49.57 49.57 49.57 49.57-22.237 49.57-49.57-22.238-49.57-49.57-49.57zm0 82.941c-18.4 0-33.37-14.97-33.37-33.37s14.97-33.37 33.37-33.37 33.37 14.97 33.37 33.37-14.97 33.37-33.37 33.37z"/></svg>