<svg xmlns="http://www.w3.org/2000/svg" viewBox="0 0 512.001 512.001"><path d="M510.165 333.683c-5.333-13.679-20.807-20.47-34.488-15.136-14.631 5.706-30.451 10.773-47.234 15.169-4.678-31.473-13.534-83.246-26.781-129.316-19.309-67.147-41.391-99.788-67.508-99.788-2.329 0-4.693.273-7.024.811-9.11 2.102-17.239 4.151-24.412 5.956-18.969 4.779-32.675 8.231-46.461 8.231h-.514c-13.788.001-27.49-3.451-46.457-8.23-7.174-1.807-15.303-3.855-24.415-5.958a31.287 31.287 0 0 0-7.024-.811c-26.12 0-48.202 32.639-67.51 99.787-13.244 46.062-22.101 97.841-26.779 129.317-16.785-4.395-32.605-9.464-47.236-15.17-13.686-5.334-29.155 1.46-34.486 15.136-2.585 6.626-2.435 13.863.424 20.378 2.858 6.514 8.082 11.525 14.712 14.11 30.102 11.74 64.504 21.066 102.252 27.721 4.393.783 8.591-2.162 9.366-6.559a8.083 8.083 0 0 0-6.559-9.366c-36.7-6.471-70.07-15.508-99.183-26.862a10.383 10.383 0 0 1-5.777-5.542 10.383 10.383 0 0 1-.165-8.006c2.093-5.371 8.174-8.04 13.544-5.945 17.726 6.914 37.124 12.912 57.805 17.95.037.01.072.023.109.032.247.06.5.115.748.175a559.79 559.79 0 0 0 8.287 1.94l.677.155c3.101.696 6.228 1.371 9.381 2.025l.33.067a604.37 604.37 0 0 0 9.316 1.848c.167.031.333.064.499.096 29.585 5.613 61.235 9.39 94.038 11.185l.426.023c3.442.187 6.895.353 10.363.496.168.006.336.015.505.022 3.498.141 7.007.262 10.526.359.424.012.849.019 1.273.03 2.907.075 5.821.134 8.74.179.838.013 1.674.026 2.513.037 3.331.041 6.668.068 10.015.068 3.347 0 6.684-.028 10.015-.068.839-.011 1.675-.024 2.513-.037 2.921-.044 5.834-.104 8.74-.179.425-.011.85-.019 1.273-.03a808.07 808.07 0 0 0 10.526-.359c.168-.006.336-.015.505-.022 3.466-.142 6.919-.309 10.362-.495l.427-.023c32.808-1.795 64.463-5.574 94.051-11.187l.468-.089a598.797 598.797 0 0 0 9.364-1.858l.288-.058a582.822 582.822 0 0 0 9.41-2.031l.627-.143a581.21 581.21 0 0 0 8.348-1.953c.239-.058.484-.111.723-.169.036-.009.069-.022.106-.031 20.681-5.038 40.08-11.036 57.806-17.95 5.371-2.094 11.453.57 13.547 5.946a10.387 10.387 0 0 1-.166 8.004 10.39 10.39 0 0 1-5.776 5.542c-63.023 24.578-145.825 38.114-233.156 38.114-36.762 0-72.918-2.393-107.462-7.113-4.421-.609-8.502 2.492-9.106 6.916a8.085 8.085 0 0 0 6.916 9.106c35.269 4.819 72.161 7.262 109.651 7.262 89.292 0 174.18-13.928 239.031-39.219 6.627-2.584 11.851-7.596 14.71-14.11 2.858-6.517 3.009-13.754.423-20.38zm-190.087 17.836c-2.15.177-4.307.342-6.467.5-5.008.368-10.038.695-15.096.966-7.031.377-14.106.665-21.217.854l-1.77.042c-2.559.063-5.123.111-7.69.149-.809.012-1.617.026-2.427.035-3.132.037-6.268.06-9.41.06-3.142 0-6.278-.024-9.41-.06-.81-.01-1.618-.023-2.427-.035a784.068 784.068 0 0 1-7.69-.149l-1.77-.042a773.148 773.148 0 0 1-36.735-1.85c-1.87-.138-3.739-.28-5.602-.432-32.684-2.662-64.102-7.361-93.032-13.986a1335.906 1335.906 0 0 1 5.978-36.893c46.093 9.728 97.984 14.853 150.686 14.853 28.752 0 57.252-1.504 84.711-4.47 4.44-.48 7.65-4.469 7.17-8.908s-4.458-7.649-8.908-7.17c-26.884 2.904-54.8 4.377-82.974 4.377-51.767 0-102.66-5.045-147.772-14.604 4.598-24.171 10.47-50.913 17.651-75.888 16.097-55.979 35.038-88.083 51.968-88.083 1.106 0 2.247.133 3.387.396 8.955 2.067 17.003 4.095 24.102 5.883 20.096 5.063 34.614 8.721 50.407 8.72h.514c15.792 0 30.314-3.658 50.411-8.721 7.099-1.789 15.146-3.815 24.099-5.882a15.112 15.112 0 0 1 3.387-.396c16.928 0 35.869 32.105 51.966 88.085 7.182 24.979 13.056 51.72 17.654 75.889a621.577 621.577 0 0 1-38.118 6.823 8.086 8.086 0 1 0 2.361 15.999c13.209-1.949 26.179-4.265 38.673-6.903a1338.847 1338.847 0 0 1 5.977 36.893c-28.797 6.594-60.062 11.28-92.587 13.948z"/></svg>