<svg xmlns="http://www.w3.org/2000/svg" viewBox="0 0 512 512"><path d="M458.01 381.428v-79.931c0-.534-.016-1.063-.021-1.595v-.006l-.001-.084a203.058 203.058 0 0 0-.416-11.43c-.019-.304-.037-.608-.058-.911a200.445 200.445 0 0 0-.377-4.658c-.085-.928-.171-1.856-.269-2.78-.092-.866-.195-1.729-.297-2.592-.096-.807-.192-1.616-.297-2.421a199.229 199.229 0 0 0-.543-3.873c-.055-.365-.115-.73-.172-1.094a199.276 199.276 0 0 0-.652-3.924l-.111-.626a200.073 200.073 0 0 0-7.388-28.752c-.08-.235-.179-.459-.278-.683-23.418-68.219-82.395-120.057-154.697-133.28 13.068-10.619 21.438-26.807 21.438-44.92C313.869 25.959 287.909 0 256.001 0c-31.909 0-57.869 25.959-57.869 57.867 0 18.112 8.37 34.301 21.438 44.92-72.283 13.219-131.248 65.034-154.679 133.228-.101.227-.203.456-.283.695a200.16 200.16 0 0 0-7.402 28.793c-.038.207-.073.414-.11.621-.231 1.31-.448 2.621-.654 3.935-.056.359-.115.718-.17 1.078a212.75 212.75 0 0 0-.551 3.924c-.105.798-.198 1.599-.294 2.398-.101.855-.204 1.708-.294 2.565-.098.925-.184 1.852-.269 2.78-.046.512-.094 1.024-.137 1.536a200.445 200.445 0 0 0-.24 3.125c-.021.302-.038.605-.057.906-.244 3.787-.385 7.6-.416 11.44l-.001.084v.006c-.004.532-.021 1.062-.021 1.595v79.931c-12.501 4.248-21.526 16.092-21.526 30.012v68.866c0 17.478 14.219 31.695 31.695 31.695h50.499a8.082 8.082 0 0 0 8.084-8.084 8.082 8.082 0 0 0-8.084-8.084H64.161c-8.561 0-15.526-6.965-15.526-15.526V411.44c0-8.016 6.108-14.632 13.915-15.442.081-.004.161-.003.241-.011l.189-.014c.391-.03.784-.06 1.182-.06H447.841c.399 0 .791.03 1.182.06l.188.014c.081.008.161.007.241.011 7.806.81 13.915 7.426 13.915 15.442v68.866c0 8.561-6.965 15.526-15.526 15.526H141.606a8.083 8.083 0 0 0-8.084 8.084 8.082 8.082 0 0 0 8.084 8.084H447.84c17.477 0 31.694-14.217 31.694-31.694V411.44c.002-13.92-9.022-25.764-21.524-30.012zM214.301 57.867c0-22.993 18.707-41.698 41.701-41.698s41.699 18.706 41.699 41.698c0 22.289-17.577 40.549-39.599 41.648-.701-.008-1.399-.027-2.102-.027-.703 0-1.401.019-2.102.027-22.019-1.099-39.597-19.358-39.597-41.648zM70.477 290.714l.001-.014c.097-1.697.221-3.389.363-5.078.025-.296.053-.593.079-.889.123-1.374.263-2.745.415-4.115.054-.483.108-.966.166-1.448.137-1.143.289-2.282.446-3.421.089-.647.176-1.295.272-1.939.129-.866.275-1.729.416-2.592 1.004-6.1 2.306-12.1 3.89-17.987l45.396 37.123a8.084 8.084 0 0 0 10.254-.015l59.434-48.892 59.243 48.886a8.081 8.081 0 0 0 10.271.015l59.638-48.913 19.081 15.697a8.084 8.084 0 0 0 11.379-1.107 8.084 8.084 0 0 0-1.107-11.379l-24.209-19.916a8.09 8.09 0 0 0-10.263-.008l-59.629 48.906-59.252-48.891a8.085 8.085 0 0 0-10.281-.008l-59.457 48.912-45.197-36.96c26.133-69.984 93.295-120.117 172.074-120.997.698.025 1.397.053 2.101.053s1.402-.028 2.101-.053c78.799.878 145.976 51.038 172.09 121.052l-44.844 36.891-15.071-12.398a8.084 8.084 0 1 0-10.272 12.486l20.207 16.623a8.085 8.085 0 0 0 10.271 0l45.009-37.028a184.292 184.292 0 0 1 3.876 17.959c.139.855.284 1.707.411 2.564.098.651.184 1.305.275 1.959.156 1.134.308 2.268.443 3.405a182.788 182.788 0 0 1 .581 5.575l.078.867c.295 3.504.497 7.024.595 10.557l-56.404 46.403-59.442-48.901a8.09 8.09 0 0 0-10.263-.008l-59.629 48.908-59.252-48.893a8.085 8.085 0 0 0-10.281-.008l-59.457 48.914-56.779-46.43c.051-1.826.129-3.649.233-5.467zm-.317 89.032v-17.279l21.131 17.279H70.16zm92.45 0l29.002-23.858 28.912 23.858H162.61zm129.051 0l29.104-23.871 29.017 23.871h-58.121zm150.181 0h-20.924l20.924-17.214v17.214zm0-38.151l-46.374 38.15h-20.236v.001l-49.323-40.575a8.09 8.09 0 0 0-10.263-.008l-49.48 40.583H245.93l-49.164-40.569a8.085 8.085 0 0 0-10.281-.008l-49.323 40.575h-20.328L70.16 341.581v-24.586l51.765 42.33a8.068 8.068 0 0 0 5.118 1.826 8.066 8.066 0 0 0 5.136-1.841l59.434-48.894 59.243 48.887a8.082 8.082 0 0 0 10.271.015l59.638-48.915 59.448 48.907a8.085 8.085 0 0 0 10.271 0l51.357-42.25v24.535z"/><path d="M71.639 424.181v43.476a8.084 8.084 0 0 0 8.084 8.084 8.082 8.082 0 0 0 8.084-8.084v-43.476a8.082 8.082 0 0 0-8.084-8.084 8.083 8.083 0 0 0-8.084 8.084zM118.896 416.096a8.082 8.082 0 0 0-8.084 8.084v43.476a8.082 8.082 0 0 0 8.084 8.084 8.082 8.082 0 0 0 8.084-8.084V424.18a8.084 8.084 0 0 0-8.084-8.084zM166.153 467.656V424.18a8.082 8.082 0 0 0-8.084-8.084 8.082 8.082 0 0 0-8.084 8.084v43.476c0 4.466 3.618 8.084 8.084 8.084s8.084-3.618 8.084-8.084zM205.326 467.656V424.18a8.082 8.082 0 0 0-8.084-8.084 8.082 8.082 0 0 0-8.084 8.084v43.476a8.083 8.083 0 0 0 8.084 8.084 8.082 8.082 0 0 0 8.084-8.084zM244.499 467.656V424.18c0-4.466-3.619-8.084-8.084-8.084s-8.084 3.618-8.084 8.084v43.476c0 4.466 3.619 8.084 8.084 8.084s8.084-3.618 8.084-8.084zM283.672 467.656V424.18a8.083 8.083 0 0 0-8.084-8.084 8.082 8.082 0 0 0-8.084 8.084v43.476a8.082 8.082 0 0 0 8.084 8.084 8.083 8.083 0 0 0 8.084-8.084zM322.845 467.656V424.18c0-4.466-3.619-8.084-8.084-8.084s-8.084 3.618-8.084 8.084v43.476a8.083 8.083 0 0 0 8.084 8.084 8.083 8.083 0 0 0 8.084-8.084zM362.016 467.656V424.18a8.082 8.082 0 0 0-8.084-8.084 8.082 8.082 0 0 0-8.084 8.084v43.476a8.082 8.082 0 0 0 8.084 8.084 8.082 8.082 0 0 0 8.084-8.084zM440.363 467.656V424.18a8.083 8.083 0 0 0-8.084-8.084 8.082 8.082 0 0 0-8.084 8.084v43.476a8.082 8.082 0 0 0 8.084 8.084 8.082 8.082 0 0 0 8.084-8.084zM401.19 467.656V424.18a8.082 8.082 0 0 0-8.084-8.084 8.082 8.082 0 0 0-8.084 8.084v43.476a8.082 8.082 0 0 0 8.084 8.084 8.082 8.082 0 0 0 8.084-8.084z"/></svg>