<svg xmlns="http://www.w3.org/2000/svg" viewBox="0 0 511.999 511.999"><path d="M445.08 345.122a79.97 79.97 0 0 0-7.323-9.142l-19.871-21.398-.001-.001-49.329-53.121a8.086 8.086 0 0 0-11.426-.424 8.087 8.087 0 0 0-.424 11.426l47.481 51.13c2.087 24.588-7.294 49.037-25.393 65.844-14.929 13.863-34.363 21.499-54.726 21.5-3.402 0-6.87-.238-10.347-.69L206.456 294.737c12.104-10.92 19.13-26.418 19.13-43.039 0-29.277-21.782-53.55-49.988-57.498V22.226a6.066 6.066 0 0 1 6.06-6.058h13.129v77.785c0 4.466 3.62 8.084 8.084 8.084s8.084-3.618 8.084-8.084V16.168h19.19v77.785a8.084 8.084 0 0 0 8.084 8.084 8.083 8.083 0 0 0 8.084-8.084V16.168h19.189v77.785a8.083 8.083 0 0 0 8.084 8.084 8.083 8.083 0 0 0 8.084-8.084V16.168h13.309c2.794 0 5.24 1.969 5.88 4.654v188.325c0 2.04.772 4.005 2.16 5.502l35.906 38.665a8.084 8.084 0 1 0 11.85-11.002l-33.746-36.339V20.076c0-.41-.031-.819-.094-1.224C315.262 7.928 306.029 0 294.98 0H181.66c-12.257 0-22.228 9.971-22.228 22.226v21.376H75.41c-12.257 0-22.228 9.972-22.228 22.227V280.52c0 19.956 7.48 38.998 21.059 53.619l141.786 152.683c14.857 16 35.905 25.176 57.749 25.177h.009c19.946-.001 38.982-7.479 53.603-21.057a78.467 78.467 0 0 0 20.004-29.667c9.9 4.505 20.716 6.974 31.761 7.098.292.003.582.023.875.023H380.038c19.946-.002 38.982-7.481 53.602-21.057a79.068 79.068 0 0 0 14.521-18.096c6.448-11.049 10.116-23.585 10.602-36.731.631-17.088-4.176-33.546-13.683-47.39zM175.601 210.579c19.251 3.778 33.819 20.78 33.819 41.122 0 12.062-5.117 23.318-13.949 31.207l-3.133-3.374c-10.793-11.622-16.738-26.757-16.738-42.617l.001-26.338zM89.222 326.51l-3.134-3.375c-10.793-11.62-16.738-26.754-16.738-42.616l.001-26.338c19.251 3.777 33.819 20.78 33.819 41.121 0 12.061-5.117 23.319-13.948 31.208zm128.582 128.031c-3.395 0-6.859-.237-10.328-.689L100.208 338.343c12.104-10.919 19.13-26.417 19.13-43.039 0-29.277-21.781-53.549-49.988-57.497V65.829a6.067 6.067 0 0 1 6.06-6.059h13.129v77.785a8.084 8.084 0 0 0 8.084 8.084 8.083 8.083 0 0 0 8.084-8.084V59.77h19.19v77.785c0 4.466 3.62 8.084 8.084 8.084s8.084-3.618 8.084-8.084V59.77h19.368V236.918c0 1.247.029 2.491.087 3.73.871 18.588 8.239 36.181 20.971 49.889l109.866 118.308c-4.345 9.108-10.312 17.236-17.809 24.198-14.929 13.862-34.363 21.498-54.744 21.498zm98.581 24.555c-10.168 9.441-23.022 15.174-36.696 16.459a63.303 63.303 0 0 1-5.905.277l-.006 7.002v-7.003c-17.364-.001-34.094-7.295-45.902-20.011l-4.873-5.248c22.557-1.199 43.89-10.212 60.547-25.682 7.434-6.904 13.628-14.759 18.5-23.452l20.228 21.78a78.303 78.303 0 0 0 2.763 2.823c.185.18.378.351.565.53a78.82 78.82 0 0 0 2.41 2.219c.136.119.275.233.411.351a81.413 81.413 0 0 0 2.796 2.319l.079.061c.628.495 1.251.996 1.894 1.471-3.302 9.949-9.046 18.892-16.811 26.104zm126.218-87.179a63.008 63.008 0 0 1-2.437 15.221c-3.119 10.768-9.104 20.529-17.532 28.354-8.714 8.094-19.403 13.46-30.89 15.638a62.758 62.758 0 0 1-11.71 1.098h-.006a62.692 62.692 0 0 1-38.132-12.968c-.32-.247-.645-.489-.96-.743a66.347 66.347 0 0 1-3.081-2.638c-.379-.345-.761-.688-1.132-1.042a64.354 64.354 0 0 1-2.521-2.544l-.076-.078-4.873-5.247c22.557-1.2 43.89-10.214 60.546-25.683 17.173-15.947 27.814-37.617 30.291-60.57l5.82 6.267c11.384 12.259 17.313 28.217 16.693 44.935z"/></svg>