<svg xmlns="http://www.w3.org/2000/svg" viewBox="0 0 512.001 512.001"><path d="M507.94 377.68c-1.575-2.397-3.094-3.947-3.462-4.308a9.234 9.234 0 0 0-.269-.25c-17.04-15.172-52.605-43.154-99.351-60.08a8.089 8.089 0 0 0-7.5 1.069c-.058.042-.122.074-.179.119-.203.155-.387.338-.576.514-.1.093-.209.173-.304.271-.284.292-28.939 29.211-78.907 29.214-11.764 0-23.929-1.623-36.156-4.823l-.055-.014a170.257 170.257 0 0 1-12.92-3.952c-.119-.042-.242-.074-.363-.11-7.767-2.733-15.599-6.096-23.488-10.077l-84.65-132.89c-2.402-3.77-7.407-4.88-11.173-2.478a8.093 8.093 0 0 0-2.478 11.173l67.161 105.433-.48-.337a296.763 296.763 0 0 1-5.251-3.757 45667.44 45667.44 0 0 1-36.436-26.751l-13.161-20.661-39.221-61.572-.008-.011-59.66-93.651c-2.812-4.417-1.507-10.299 2.906-13.111 4.42-2.814 10.301-1.509 13.114 2.907l57.542 90.333a8.093 8.093 0 0 0 13.651-8.695L88.724 80.851c-7.609-11.943-23.514-15.468-35.461-7.863-11.942 7.611-15.468 23.517-7.861 35.458l56.937 89.381-11.525 18.623c-44.412-32.86-66.946-49.751-67.312-50.027a8.099 8.099 0 0 0-7.07-1.31 8.098 8.098 0 0 0-5.323 4.835C10.657 171.109 0 198.707 0 230.358c0 .044.009.087.009.132.002.161.022.322.033.482.017.229.036.455.072.68.025.158.064.312.098.468.051.228.107.452.176.673.022.068.03.138.054.206.343.996 34.347 100.733 34.347 201.932a8.091 8.091 0 0 0 8.093 8.093h28.925a8.094 8.094 0 0 0 8.016-6.977l8.282-59.49a8.094 8.094 0 0 0-16.033-2.231l-7.31 52.513H50.908c-1.239-75.037-19.281-146.27-29.044-179.58 14.669 8.396 37.208 21.836 62.49 38.825l-8.734 62.745a8.095 8.095 0 0 0 16.033 2.231l7.62-54.743c23.933 16.753 49.317 36.223 72.204 57.264 35.205 32.366 77.128 65.257 130.428 80.574l.665.193c1.539.437 3.089.855 4.646 1.261.692.181 1.382.364 2.074.538a233.15 233.15 0 0 0 6.874 1.615c.497.109.998.211 1.498.317 1.803.382 3.609.745 5.42 1.081l1.172.214c1.923.347 3.85.67 5.783.968.401.062.803.125 1.205.185 1.865.276 3.734.528 5.608.758.496.062.99.127 1.487.185a239.045 239.045 0 0 0 9.164.874c1.233.094 2.472.178 3.716.253.598.036 1.195.073 1.794.105 1.745.091 3.503.161 5.269.214.418.012.835.022 1.253.031 1.913.046 3.834.079 5.772.079h.014c39.638 0 82.204-10.129 126.513-30.103l.104-.047c.378-.177.779-.356 1.202-.537l.176-.077c.929-.423 1.867-.861 2.805-1.298l.721-.336c.091-.042.181-.086.271-.133 2.706-1.387 5.049-2.915 7.025-4.581 4.346-3.664 6.914-7.992 7.657-12.929.1-.661.162-1.313.191-1.954.244-5.485-1.951-10.169-4.044-13.351zM111.995 212.985l.526.826 22.406 35.174-31.047-22.886 8.115-13.114zm78.974 136.408a706.047 706.047 0 0 1-8.539-7.727c-26.796-24.638-56.902-47.149-84.279-65.778-.174-.141-.341-.289-.529-.417-37.372-25.406-69.869-43.635-81.345-49.896.588-15.732 3.93-30.206 6.57-39.434 11.295 8.427 33.127 24.68 65.409 48.548l.013.011.485.357a34543.673 34543.673 0 0 0 109.212 80.395c1.448 1.062 2.895 2.1 4.341 3.125.316.223.632.442.948.665a321.774 321.774 0 0 0 4.309 2.975 286.448 286.448 0 0 0 14.153 9.015c-16.227 2.423-25.497 9.853-30.748 18.161zm304.815 41.199c-.259 1.613-2.472 3.639-5.932 5.432l-.585.273c-.859.401-1.717.802-2.569 1.189-.55.236-1.072.471-1.566.7-42.189 19.011-82.5 28.65-119.82 28.65h-.014c-2.092 0-4.165-.037-6.224-.095-.226-.006-.452-.01-.678-.017-1.902-.06-3.789-.15-5.663-.258-.409-.024-.818-.046-1.225-.072-1.732-.11-3.451-.242-5.158-.392-.575-.051-1.148-.106-1.721-.161-1.53-.147-3.052-.306-4.563-.484-.816-.097-1.626-.203-2.438-.309a211.133 211.133 0 0 1-7.657-1.138c-.181-.03-.363-.059-.543-.091-49.808-8.504-90.102-33.892-124.149-62.12l-1.089-.905-.78-.653c2.825-5.777 9.959-13.562 30.137-13.562 10.785 0 21.908 2.256 29.507 4.204 18.386 6.413 36.534 9.648 54.331 9.648 46.093 0 76.14-21.607 86.523-30.467a262.612 262.612 0 0 1 18.835 8.111c32.51 15.512 57.269 35.199 70.501 46.957.988 1.046 2.838 3.69 2.54 5.56z"/></svg>