<svg xmlns="http://www.w3.org/2000/svg" viewBox="0 0 512 512"><path d="M510.575 137.068c-.173-.252-17.532-25.479-37.682-50.368-37.931-46.854-53.048-52.863-61.98-52.863h-49.509c-.043 0-.086.006-.13.006a7.979 7.979 0 0 0-.601.032c-.067.006-.135.01-.202.017-.265.03-.526.071-.784.128l-.009.001a7.81 7.81 0 0 0-.777.213c-.076.025-.15.055-.225.082a7.191 7.191 0 0 0-.808.339 8.544 8.544 0 0 0-.711.388c-.102.063-.2.131-.299.199a8.261 8.261 0 0 0-.785.603c-.031.027-.066.052-.096.08-.105.095-.204.198-.305.298-.085.086-.172.172-.254.262-.039.042-.082.08-.12.123-.052.06-.095.124-.145.186a8.786 8.786 0 0 0-.467.622 8.439 8.439 0 0 0-.258.415c-.049.083-.102.164-.148.249a7.85 7.85 0 0 0-.337.697c-.027.065-.049.132-.075.197a8.368 8.368 0 0 0-.198.551c-.03.097-.055.197-.082.295-.028.103-.062.202-.085.306-.146.631-15.485 63.15-97.503 63.15-34.314 0-61.104-10.557-79.627-31.378-13.918-15.646-17.843-31.641-17.874-31.772-.026-.11-.061-.216-.09-.325-.025-.09-.047-.178-.075-.267a7.875 7.875 0 0 0-.227-.631l-.042-.114a8.3 8.3 0 0 0-.352-.729c-.027-.049-.057-.095-.084-.143a8.217 8.217 0 0 0-.332-.533c-.05-.073-.103-.144-.155-.215a7.933 7.933 0 0 0-.332-.424c-.037-.044-.068-.092-.106-.136-.027-.03-.057-.057-.085-.088a8.906 8.906 0 0 0-.371-.382c-.066-.065-.129-.132-.197-.193a8.74 8.74 0 0 0-.566-.469c-.096-.072-.197-.137-.296-.205-.114-.078-.227-.156-.344-.228a7.282 7.282 0 0 0-.344-.197 9.741 9.741 0 0 0-.7-.345 7.139 7.139 0 0 0-.376-.147c-.117-.043-.231-.09-.35-.128a8.272 8.272 0 0 0-.707-.194c-.101-.023-.203-.036-.305-.054-.16-.029-.319-.058-.481-.078-.114-.014-.228-.022-.342-.03a8.365 8.365 0 0 0-.477-.026c-.055-.001-.109-.009-.165-.009h-49.512c-8.931 0-24.049 6.009-61.98 52.863-20.15 24.891-37.508 50.119-37.681 50.371a8.107 8.107 0 0 0 1.734 11.011l71.49 55.106c-11.912 49.186 8.487 111.824 18.098 137.121 19.51 51.345.679 124.13-.21 127.487a8.378 8.378 0 0 0-.177.799c-.015.082-.039.163-.052.244a8.112 8.112 0 0 0-.083.89l-.003.037c-.009.256.001.51.016.765.003.053-.001.107.003.161.071.906.297 1.795.665 2.629.007.015.011.03.017.045.253.565.573 1.106.957 1.609a8.099 8.099 0 0 0 5.212 3.081c.405.063.816.106 1.232.106h311.349a8.114 8.114 0 0 0 6.446-3.188 8.107 8.107 0 0 0 1.653-4.995c-.001-.07.006-.141.004-.211-.004-.118-.023-.235-.032-.352a8.083 8.083 0 0 0-.246-1.495c-.005-.022-.117-.434-.308-1.187l-.055-.217a3.417 3.417 0 0 1-.032-.128c-2.728-10.902-18.182-77.837.151-126.082 6.854-18.041 12.211-36.114 15.923-53.721a8.108 8.108 0 1 0-15.869-3.345c-3.539 16.786-8.658 34.048-15.214 51.305-11.945 31.435-11.123 68.836-7.8 96.728H201.541c-4.478 0-8.108 3.629-8.108 8.108s3.63 8.108 8.108 8.108h197.095a326.367 326.367 0 0 0 2.772 14.454H110.593a326.085 326.085 0 0 0 2.772-14.454h60.066c4.478 0 8.108-3.629 8.108-8.108s-3.63-8.108-8.108-8.108h-57.726c3.322-27.892 4.146-65.292-7.799-96.728C89.842 287 83.296 241.196 89.809 209.797l1.044-4.527c.254-.975.52-1.937.802-2.88a8.023 8.023 0 0 0 .308-1.935l9.817-42.561a8.11 8.11 0 0 0-6.079-9.724 8.109 8.109 0 0 0-9.724 6.078l-7.284 31.579-59.497-45.863c6.328-8.919 18.752-26.065 32.513-43.064 36.864-45.532 48.204-46.846 49.375-46.846h40.593l-.002.028c-.044.63-.086 1.296-.129 1.981l-.027.442a266.824 266.824 0 0 0-.133 2.524c-.034.699-.065 1.418-.093 2.16l-.014.341a244.79 244.79 0 0 0-.144 5.709l-.002.235a256.32 256.32 0 0 0-.018 2.667l-.001.536a260.78 260.78 0 0 0 .027 3.494c.014.995.034 2.003.062 3.034l.003.125a268.452 268.452 0 0 0 .139 3.878c.047 1.076.101 2.163.164 3.268l.032.526a234.254 234.254 0 0 0 .529 7.083l.067.73c.11 1.183.229 2.373.361 3.577l.038.326c.127 1.141.266 2.291.414 3.448l.083.657a209.518 209.518 0 0 0 1.225 8.124l.013.079c.218 1.27.456 2.548.703 3.829.05.256.098.511.149.768.248 1.255.508 2.515.784 3.777.045.21.094.419.142.629.265 1.19.543 2.384.835 3.579l.117.485a176.273 176.273 0 0 0 2.334 8.486c.039.13.081.258.121.387.371 1.209.759 2.415 1.161 3.621.077.23.151.461.229.69.427 1.261.874 2.518 1.337 3.772.095.256.192.512.289.769.481 1.281.976 2.558 1.497 3.829l.018.048a132.507 132.507 0 0 0 1.64 3.812c.115.257.228.514.345.77a129.168 129.168 0 0 0 1.737 3.674c.105.212.213.423.319.635a120.263 120.263 0 0 0 1.775 3.417c.081.149.158.299.239.449a117.7 117.7 0 0 0 2.042 3.581c.15.254.303.508.455.761a112.36 112.36 0 0 0 2.204 3.521l.266.397a108.096 108.096 0 0 0 2.214 3.219c.145.203.288.409.435.611a102.461 102.461 0 0 0 2.502 3.308c.178.226.36.451.539.676a101.247 101.247 0 0 0 2.758 3.314 96.293 96.293 0 0 0 7.747 7.912 94.645 94.645 0 0 0 4.156 3.566c18.415 14.883 42.097 22.41 70.635 22.41 35.122 0 62.891-11.401 82.537-33.887a102.282 102.282 0 0 0 2.758-3.313c.181-.226.363-.451.542-.678.857-1.089 1.692-2.19 2.501-3.307.147-.203.289-.408.435-.611a105.965 105.965 0 0 0 2.211-3.215c.089-.134.182-.267.269-.402a112.195 112.195 0 0 0 2.659-4.281 117.574 117.574 0 0 0 2.041-3.579c.082-.151.161-.304.243-.456a123.622 123.622 0 0 0 1.77-3.407c.107-.214.217-.428.323-.643a131.417 131.417 0 0 0 2.084-4.449 136.002 136.002 0 0 0 1.636-3.803l.023-.057a141.383 141.383 0 0 0 1.492-3.817c.097-.258.196-.517.291-.775.463-1.252.908-2.508 1.335-3.766.079-.234.155-.466.232-.699.4-1.198.786-2.398 1.155-3.599l.128-.409a158.69 158.69 0 0 0 1.338-4.664c.346-1.272.679-2.544.994-3.814.041-.165.079-.33.119-.495.291-1.19.566-2.378.831-3.564l.144-.64a184.233 184.233 0 0 0 .934-4.551 189.1 189.1 0 0 0 .701-3.816l.016-.097c.215-1.252.413-2.496.602-3.735l.111-.73c.182-1.222.352-2.437.51-3.643l.084-.661c.148-1.16.288-2.313.414-3.455l.036-.311c.133-1.209.252-2.403.363-3.59l.066-.715c.106-1.17.203-2.33.289-3.476l.03-.424c.079-1.084.15-2.156.213-3.215l.03-.49c.064-1.116.118-2.215.165-3.302l.026-.622c.045-1.099.084-2.187.114-3.253l.001-.042a248.255 248.255 0 0 0 .091-6.625l-.001-.442c-.001-.963-.008-1.91-.019-2.831l-.001-.096c-.013-.951-.031-1.872-.054-2.776l-.011-.424c-.024-.892-.051-1.761-.082-2.602l-.005-.137c-.032-.851-.068-1.674-.106-2.468l-.006-.139a251.71 251.71 0 0 0-.125-2.323l-.013-.213c-.044-.742-.091-1.459-.137-2.137h40.592c1.171 0 12.501 1.313 49.32 46.779 13.774 17.008 26.229 34.197 32.568 43.133l-59.496 45.862-7.282-31.578c-1.009-4.365-5.364-7.087-9.724-6.078a8.109 8.109 0 0 0-6.079 9.724l9.817 42.564c.031.645.118 1.293.308 1.932.269.901.525 1.815.77 2.742l1.257 5.452c2.621 13.021 3.039 28.367 1.229 45.767a8.108 8.108 0 0 0 7.226 8.904 8.103 8.103 0 0 0 8.904-7.226c1.987-19.096 1.472-36.138-1.506-50.836-.012-.054-.016-.109-.029-.163l-.024-.105c-.258-1.262-.53-2.513-.825-3.74l71.494-55.109a8.112 8.112 0 0 0 1.733-11.013zM354.439 74.826c-.017.478-.037.959-.057 1.444l-.041.911c-.023.488-.048.978-.075 1.473-.016.295-.031.59-.049.888a163.4 163.4 0 0 1-.103 1.656c-.016.249-.03.495-.048.745a243.53 243.53 0 0 1-.177 2.415l-.039.458a186.59 186.59 0 0 1-.258 2.906c-.051.537-.104 1.076-.159 1.617-.035.335-.07.671-.107 1.008-.056.518-.115 1.039-.174 1.561l-.121 1.028a197.47 197.47 0 0 1-.596 4.486c-.035.242-.067.482-.103.725-.128.859-.262 1.722-.402 2.589-.043.265-.09.531-.134.797-.103.615-.207 1.231-.317 1.849a207.105 207.105 0 0 1-.496 2.67c-.07.366-.144.733-.217 1.101-.107.537-.218 1.076-.332 1.615-.076.361-.151.723-.23 1.085a162.29 162.29 0 0 1-.385 1.722c-.074.324-.146.648-.222.972-.181.771-.369 1.542-.561 2.313-.034.133-.065.267-.098.4-.222.877-.454 1.755-.692 2.631-.084.308-.173.616-.258.925-.164.589-.331 1.178-.503 1.767-.104.355-.211.709-.318 1.065a123.567 123.567 0 0 1-.85 2.728c-.177.55-.36 1.098-.545 1.647-.117.347-.234.694-.354 1.041-.211.609-.429 1.216-.65 1.823-.102.279-.199.559-.303.838-.324.876-.658 1.748-1.003 2.619-.071.181-.148.359-.221.539-.279.695-.563 1.388-.855 2.079-.132.312-.27.623-.405.934a107.688 107.688 0 0 1-3.284 6.915c-.157.303-.311.607-.471.908-.349.657-.707 1.309-1.07 1.959-.101.18-.196.361-.297.539a98.335 98.335 0 0 1-1.435 2.447c-.137.227-.281.45-.421.676-.36.585-.724 1.167-1.098 1.744-.189.293-.384.582-.576.872a89.36 89.36 0 0 1-1.661 2.422 93.841 93.841 0 0 1-1.712 2.332 98.9 98.9 0 0 1-1.2 1.536c-.192.242-.382.487-.577.727a83.941 83.941 0 0 1-1.853 2.202c-16.433 18.802-40.095 28.336-70.327 28.336-3.776 0-7.45-.149-11.02-.445-24.99-2.079-44.892-11.421-59.266-27.85a83.872 83.872 0 0 1-1.85-2.196c-.196-.24-.386-.485-.578-.728a79.99 79.99 0 0 1-1.199-1.533c-.218-.286-.431-.575-.645-.864a85.271 85.271 0 0 1-2.723-3.879c-.194-.291-.388-.582-.578-.875a95.231 95.231 0 0 1-1.093-1.736c-.139-.226-.284-.45-.422-.678a99.917 99.917 0 0 1-1.434-2.443c-.103-.181-.2-.364-.301-.546-.361-.647-.718-1.295-1.065-1.948-.161-.303-.317-.609-.475-.912a85.314 85.314 0 0 1-1.322-2.634c-.255-.525-.505-1.054-.751-1.583a112.049 112.049 0 0 1-1.205-2.682c-.136-.313-.275-.627-.409-.942-.292-.69-.575-1.382-.854-2.076-.072-.181-.148-.359-.219-.538-.345-.868-.678-1.741-1.002-2.615-.105-.282-.204-.566-.307-.85-.219-.603-.436-1.208-.645-1.813-.12-.348-.237-.696-.355-1.044-.184-.546-.365-1.093-.543-1.64a161.97 161.97 0 0 1-.851-2.73c-.107-.356-.215-.711-.319-1.067-.172-.587-.337-1.175-.502-1.763-.086-.309-.175-.618-.259-.928a161.04 161.04 0 0 1-.696-2.644c-.036-.142-.069-.284-.104-.426-.189-.757-.374-1.514-.551-2.27-.078-.333-.152-.666-.228-.999-.129-.565-.256-1.13-.379-1.694-.08-.368-.157-.735-.235-1.103a197.66 197.66 0 0 1-.548-2.713 191.778 191.778 0 0 1-.811-4.502c-.045-.271-.094-.544-.137-.815a176.43 176.43 0 0 1-.402-2.583c-.038-.254-.071-.506-.108-.759-.09-.621-.177-1.24-.261-1.856a241.86 241.86 0 0 1-.332-2.601 196.345 196.345 0 0 1-.297-2.589l-.109-1.021a242.35 242.35 0 0 1-.159-1.607c-.029-.303-.059-.608-.086-.909a192.25 192.25 0 0 1-.176-2.042l-.036-.422c-.065-.812-.124-1.617-.179-2.416l-.051-.786c-.036-.542-.07-1.082-.101-1.616l-.05-.905a197.478 197.478 0 0 1-.117-2.381c-.022-.484-.04-.964-.058-1.442l-.019-.542a103.08 103.08 0 0 0 6.087 7.671c14.95 17.103 43.105 37.492 92.34 37.492 49.236 0 77.39-20.388 92.34-37.492 2.26-2.585 4.29-5.17 6.115-7.711l-.02.536z"/></svg>